<mxfile host="app.diagrams.net" agent="Mozilla/5.0 (Windows NT 10.0; Win64; x64; rv:130.0) Gecko/20100101 Firefox/130.0" version="24.7.16">
  <diagram name="Page-1" id="jFLHDPD7xxgGK9pivNSK">
    <mxGraphModel dx="1114" dy="761" grid="1" gridSize="10" guides="1" tooltips="1" connect="1" arrows="1" fold="1" page="1" pageScale="1" pageWidth="827" pageHeight="1169" math="0" shadow="0">
      <root>
        <mxCell id="0" />
        <mxCell id="1" parent="0" />
        <mxCell id="Taj2fSa_MXeaUs_PgMxz-1" value="" style="shape=image;verticalLabelPosition=bottom;labelBackgroundColor=default;verticalAlign=top;aspect=fixed;imageAspect=0;image=data:image/webp,UklGRr4lAQBXRUJQVlA4ILIlAQDwRgOdASp+AtgBPhkKhEGhBNJJrQQAYSm78fJjgzbGT/M/1P9huylj/w5+S/xv7Of3T9o/ks4v6cvKv2z/Hf57+8ftj8uv/N0z9Sf97/P/mX7uXnP7h/wP79/n//L/nf/////uD/ov+j/j/9r8Jv5//g/+L/jP3y+gf9VP9l/b/85/6P9B////z+L/+h/5/9b7yv8Z/yv2j/33wL/pv+U/8/+g/1P/v+Vn/ff+H/Qfv/8z/63/qP/T/nv9B///oQ/qP+K/6n53f9L60//V/9Pd0/dn/7e5H/UP9V/6Pz/+Xv/uf/b/mf7////TL/Uv97/9f99/x////3vsd/pP+P/83+d/3P/1/5n0Af/X2sf4B/2eKe/2XoZ+O/vn+Z/w/7W/4T/xesv4z9B/eP7j/k/9R/c//d/sfrm/Of8zxl+l/4P/Q/2v70+4/8d+5f6H+8/5b/W/47/4f7D7Qf1X/Z/135Sevf5P/J/9P/G/uH/tvkR/Gv5z/kf7r/mP9p/i//p/tvq7j2dhPzP/F+Y/wR+/H4r/af5X9nv8x/7/9J8Xv6f/a/Lr41/Mv97/0/yl/t3yu/sv9//wf7C/3f/2++1/tPTa9R/8X+3+A/+df1r+5/4L/Qf43+3//z7UP8H/l/67/bf8H+///3/qfPX8s/zP+//y3+v/43+N//3/Q/Qb+O/0D/Af3j/Kf6j+6f/z/gfev7DP2g/4vuX/rp97n7///8OTILoKOgRCv0wF17Ik0S2trslzjXml/tpxK66OxrQ+Vnrwxlxg5ywmaAbN7PDwMDxxWJVm+xDgb4H79l59vkE6pdgy7GCu1hrj5dZAN8AvHS3Ztx3X1UCLjPVyyxDwFqvoTHBo9YIWAvsw3vJ62Q8LpQqGCOsLedPda56j0ohfy2h0T2+wXOaJ5MxEPfIQiBC+urpjZc/6y4PsS4csmRtdjiY6V6zNWKhfgS7MCCbmDCreES2BDzPxGsfVSf0DqFq/HT3GtpNYyRtVOV1JMQdfhOu+uoq2u+dMqJCTYdCumjW26WGgBFfFbXSlxr5IlsYprvqulZB25Z6lajUtQjBVvn0zE5DSV68lWlytULiMCPe3FSC/5LxDuvSIRFW/F8klUXBcb78sLpteF0ChpB+rBSHLWzCj0yRGP4FVoW9sVoXJjagWqWnu/JdZ/oQwCXKDOy7Dt7yYW+MxH33mHIjroJmifdcNXHaqk/tDwOGBMFKp3YwcN/9SnXvT8RNhwCc8qqFYy7AejeiCz4zFnZP5hFxnOrhrVdrLsPN7Jx0W98hPf5gK326AeQNN7yz5ft0f/5AFcdYQEf+oLv0ln7kMnTyPQnoMBvOzgHbun3XqVvwX38poCocguqx2xdIsHK7Fgq/14Ov7l/5c3jXT9gw0bCjCZiPSWxBJqFUahAK/FnQ43mWfWCrfx2TX/NjxYttyMA6HVF+J/dA3o5iKopOAb741ltxjPwG+SIYE4FJw3BBj1Bw/m7FbwScUicvm6u/8WYBfuCsxxRwmGW5U0mupNsYe/tI9W//pu6U47rno02PCY80FRm5o0KPs0LnQ+0QjTnm7ig6vjqrQ+P+OWfmdatUnN9D65y93T3TDTjUHBaSO0m8qfrprOWrTbZiTpwDU0mnOum+xyPZCNBgWpdXqwQFAL7QNV91Ec2yy2OvzJZFmRAnabp1Q0pjY6RTLGwIU4lWVKDeIEbZ+DRycH9gVIRvTWZDgboAa9lxeeIi+59bcLP2/Qth8tb0mViM94oxlrzGazOItZqSGwTTG4MJBQKAq+8PAyd/fCAfdMbl3wGsx7j/9eAuSWdxxeuz2oq9o45ELnSdnyMn2bM4hTbvRh4nKQ5JcB5he04iFpGWVzyMLm1S7rgIkUeQ/oFb4VwgUrr5OeGitD1UWLaOriGEibgcyctsnVTz59gMvUv9uC4l6frhO1Ptr26X+S6DwhYhh1O4BKx7cI9bxT3Ril+8YaPWg9LSbxAOj+ofjoC2ZlBn8SDqQr5dAqK2g4ikNXvlLBlycsSBTdXLW1MBOnjMtUT4G6xfwsfzbmItCIuiEPg47vXsPnxuitzBQxaP0xAtUNvcIFD+OmxZmbBCmUpmgCI03VcAq8WEHtsvT0gSsBbPIu5cWA60S6YUNQsxLHPemSoRti8sFroqcT3J0lcjMWk4UWWFoaT5eABZjZI5+68+ioV3vWyEFyWqY61aqS+cYiU1rwJCPkLtqciRJ37Wn6SZOPnkstHVGvoDClviIcvcTePBAyHrWTvKGzIZrn2nz1slJhhVbzKlIyPU5xF1tcj2LuYZzuh3tUs0qCvymBdCHCdE7/GZfIfxC5fL3rnz2NcBV/BCT/IxVtKcsI2eFB8q05YgoGWBScb+eYvtk7lqKGl1kshDx/yz5QE9FyRO8m231Oj+KpuglCvni1chxE3E19/EklirOH2LaeveJHXYRacs/FvfPQJwI9Bo0dow0MP8W6VH7XyuXDBtX/XWsvq7JKqGCP9HNnmDC2F9vAg6z1KEhdfKwKF65nzXV6VHPs+ONCnTSCQAWiChVndWFjT4B4iLa8E9NYB3WcBJ/hLox4AU60QCX9egKAQKHz84Y84+pJ+bdZHJvxL3+A1gi8M8q37jYylkM0PU0zXTZ6rhnwqzUAaFu68VYcmv5ICd2D09xCpSR0MK/VdlSLXiXwYZ4+JCbJSoaJMZj5U9p5rhHXrsjW9isD/9w93KZJI6/C3wb60KhUQumHDhtA58NxSELHLI4lLK0iabfPt2nMg754q5VTI2y06XXLK7fOpq8mTQyfYsvqQ+b+k9D5WTKvCNRTYewbYGbnpvYdpwq8CK9txZyK6zVhZNdfeo1UI1XewnL54pVaGTI1S0cEbhmeEb9cBUS7dexJGcQamoc+LXbMgubu263b/Hd9pLT3/CJBbs+ecBYk3fD9L0yuVai23FmDF8kem1kXtqJ7dIuKv5kHKdI/IOrIsMQUGsAYHNO6zBi2bZFyDv0GfsJ0M205s3DWo4LZT+fAWjEHbHeJDOfbjWIn+5BWUgTqt4m+cvwxBSt+ZGvMq+yUgmKF/08/wTbohfzvau6ZD2ZX8C8ItuV1/xKlJJvM8vd1ivecjLv+21CF8hm+Z7uVUV6noC38Lv5vRY4O0IdWbPnuWpCzpqKWpOEmWG+/wxn+Fqf+MRt46N6pHFugjrG1u94bE4f5oNAaLIdHPUEwUvMRjHLvqsiB4kBMKbZg+gw/nwi2567avEHoyj+7ILmmcT+gIIMvDw1FIdvM6ksO31e9w1ts/w3lRJlvQDQu6ZBpkwdkR6E92znINbYHmDRnS30VZ7fKW1TvAM+D10spL9pykaBDTwoY/dbHbZl1sb/hSG7uaU4yeAxoHkhoX5uFAnk2xhfX+uBVOaoaKcqZ1C79QMf+FVAnXPaw1iOohnIi4zS9IZUXaUsl1Leu+DVHPr9GWhT8Mze/S84LYx11/j91/ZILuny0Ao5jH/S3bDoDzGzPAwt1Ppw9+mdGtbm6fpXfa4Qel0UT1vpmF+LWfzr9gqlnDfqAsKkFQV1LowRJolch49/f1NGXnFBLyqOch+KLWsbxWNIP58rVRhYlLPuDqxEwYeKvSuWbqwNZK5uxoIAeymWjEQydfZSmFG51QWjmrH/U+48Wwtp2KP4B5KXXVXI0QuGZsH2dAVG4OUl1/tP9wb5L1CA92E5Enr7RS5hOK1uFtYe8vUDtsjtB1gk7jIdihXVJJxlSpSIAd1tyTyy7L+rMIXiHh8l1OI7s/jHGu+jj6lGNZNsb7fEfYlfITZnOta5ny5dL776r5o2aYYEa1kGWNw62WMxLZkKDIc/1HYLhCNToUUplytshTuj1/hUW8xfziCrwg30EpfUjWJ8bkYoKbyNoTkthkvvmkOB+vaZ0J3jLR7aSxHtkRivZJi5dlmIGFfbUD+pVTe/SHHWAUwDcC1PvCnW43HUaUCiZxxYZOM1Vx7Pe3QgPDpWHKkSOkNgHxq8qfkdwfgjU3LtftJTU0tjaEw2MBDTGKTP3Os0ku59ydHB8bLHKT3QpCVYZWf1d80ch0ktm/de+GNl8l7oiIy91VGjVVYgMQcahCbBx1aOZIUtlE2kWXoBQ8sLzyzv7gZM1slXdtzsoLe8YS2WuOFsTHPH0M+E1+OHnys6+1hskODrJuLQN3+5Qzf4l05frWrd2xuIRubbvBIgPPF2uxu3ONVEWjDZ5W6cihceGuYqLnGlvq5O2clBJ4jIxBDWH29ngRjLgnPRRHaF1sgrMjx2l1uD5e/lgUdbwLAC+zY5/DpsUgP8u9EBirKOsslib6W3JYFuaeR2tZPtRj2ysU5e3fg1qsdmf/U4QnDi60/93BrBrhxs6NSOe07P2CcDN3YI/l6bDrlnuVxZxJbL5J5rKd1+XrLmzYMWLzQUamIBPeisIZMN8j6vdMNhMW3E98NgL4/abYfeUf9kowOp9pdqi3waBc+5P4yL6WZNUROMvMcOfzFKAnCffFWMuHZ+nogIyQDo9M3ThoFdDJzKWzPP0YBFsrC53p3qZaqfZQWrdgnSarX7eRH3OKX3KONTqrK1W9S09hAAGdJe2zbTrzUoj99ef8/gGgTFWBftZ26V5OaVMI4u+5vPT1FxM5VD9OKXIbtNT6isP/X+fl712kbr3G06hdxFOt6AytcySxfWMYfO9W1wioNSOWMcYQUdWcifDkYyMz8+HN3+JVuuDJxqTCurIoG62uY8mlpAS7Re3/Y/cZIq8zX9BRmACeibrVpsdjiTc7o9ePUdgJBzF8X2p5VmjA6PlNrfIVkYxMjaFpbnp9ylgopeYUH/p0Uu0E8sXK6Rcsf1ITzmyc64hLRH6xeRIqxUJ3wPLN5Ywfr3YJ5cP7ImHqZAnzkOUxkEIdwy/D8yxpyQj5hzUY+qPjAdR0gmzpAgadt6nhtb6xi1ATMZzuGOSfMkdJGj8/63Ap50LHIY5+d2o+eNm2Hb5GihttV9cLLnXY2wt9aD6ylYUbtrhs5euWZtcJ2UApWdbSxuAJ7HdM56MAFW21zSj9PExP/Ei/qqslyN6E0bNZtKPYrcRuJWGBD0NPK+xamrhsNgtLHePDSWmbKP7RnIoNLAQcpnorFaWrFvrnpuE39Be4w7KKLsNm2ZOToWBeaXAu6IpSuglH6HltHv3oWc5K/slk1HAO2yZCZSSO6cPBwI97f+SXj5aH5LlVwh7WVGJV06MZb54vb4qdAHKMabSV3zoBTXMvyl5VjautdbPY6JJBS13y85dHCmi95Ib3Byzw729MLTy8KUM81cVfb596y1VFMn3oxbXPJzaalTotapJJ7ZrGPQpAqqh+sd4OYL6lcVpu7uOcfp/VxTUnuNzkL+D35gwfJA+hP/kL2qFcB8tjZI8oKBnBKAZICZ0RBRR8VeJ8gIh3YNa9urYxIhUk/xdTBJJOBfO5zwt5EZXiJc+UZNukvhlO8QTmnNb8zag7YQedYI/VszN+WBf5ZqKmlmalYWEAXa1VdejeOpERSbXWWXiyXN0ymBguwW96mmw1PZv3iy9pZLThKT+0iNzIDSWobhJ8hsl2IuHieD30IaKwAFB/W5hzz4z9iK/eHe4+0a7IXngcRkZmKthVu9iT/WY9cPwLAp2MFfLS9ScOWcL6SezaxiN32szpmWqdWQDvIaFYcWUvyxkUJ/x2QzYZ6+CjB7i97bP41jWZL/6hJqvLahYs7/bWbLpKbwb8GGY/d6dsPjC5WOLeUghlHWEirIklVdyLFZexxDtu0+lcauYVyoLx1iGpKSxuCGEj1oBNmDFoA8cvg06I5BTgrOWAkkns0rYQTWSZNOLPdQ3Ko7AgI34lDqiokpy679BcCAVZmDo2f3gJr83CYb2uG9VP6QRhFAHEDWa3KopqTlnF230OoppAtALI2xqG7rRVn6QmcS/1/X3kpguW5HgLXieLZbvG/ImArGuqPHz+IkJaBu9qoVCPXL3hbG5+13pGwVSdn2r8ojbX7dszbd6zdC6cNXMcTs497KwtXrxMjoug6hzYTTqAD0YErdweGIkmeyJBADW+MiRAO4EOVZInFU37dMCi60LlI2JRzKHkGHS/26NA+DZnXXguLt2yyh/h+Hzq84FhaK3hh1sF+jp8I5Nd1qWa/57a8cF/kfj/kPKDgJx1hbvzHyDa0f4wvdK7e7G8fLvka4H5Et5/pR8tN9sOLAiXaHC7snpk8pEPBKXoUzPbXczRVFpPt4FmJiQEheyVfhJVFSDY71GQhrbe9+ogaUVOuXhdCQkuevY1o2Q+Lwue3dW4EdC+A6gsOdX/3D5JoYAKS//i+KDMon7BQq73n6Kgnf1KAj0qIhmVfgu86nN/xGycY7VqwC+QMe0CKWSoMcEB5nn+NqbMhXKup5ttFkTZELBioi2GjHGEUYq0K+lTywTp4Tobv0q7Tw1el2GQV6kVZQxjgI1RCWutW1VoZYR2HzsdXDJwT4khHMeAu8acI8D/XSqkXLuhXVamYEwlkjw45vZ/HrweXMfdm7b/0Eb94UOQrrS+WtC6S+BehbvBkDEUotOi4AxSPQGZQyximXe3s3wfmKJZEfBui1PRr6+74mVqSvE0/6VR2hxiyv36qyC99qQL5UCoULKSYZd8f1AiERtzYC8xQ+7oCbGZCQKomTS3vMHxKXJEVEdlGA3+9YySAA+kKzWSno7IFPsdrNcXrFDydPOqN5+wVbrWXmp1IghEYs/dFwH3gPCGUCRJUV2PwcAZIZVIdyGRaKkBYlSlNKCwtLVJz3KztXmwAgfnaA7yiFqxJObVHT9t+BW9XAzQOHy0A7grtN0j0jEfJXp9RWwDLdIRBGQRHR0HiwNS7ZZfkXOxbWI30cNCmm9cCnsmE3tmzPTSiDngtJkCpmQLRAne7uc0+JGyKa4bVuSxJTtBZtOR1E0Kw4nEta5CW83y0koX8acuV5rHLXEwaVUOYcVUVJ2U2I0foGu8xIwzlZwFWcFcT60nj2z7SuVsAEJiYUpOeHIgkbH6KnM4Bes3bNXQIZQxQvFIXvmZ0WnVdVWJqvEjZPe38eQF7slw3xTmXvd3DaoBCYEqA5i2gagswwe6pEX+kv7LaNiXP0bqmNygrCeE3rAEh2Mg8Jvm3UGtNbemuV8JD5hB7uKZmKvMKn8jgs8MDutwXQEZp8dqoD9XVpcXPREkwIPyDRIC5qR58mE/Yq/EwHQ7Cou/Y8S36gqbbgjhJmDtq5mu1q8Gr4FjWMSqr1UwUbJHpLaErLwa6jsfvKC6nCpuGfVlc+Sw5xWGjauyP+SV+ervAG00nHN0qWJMAZTxQ4ch7rjcB6gX5Yvdx1V+y7uZXVtsCKKxYrZSaMESr1thhI54Zw9Skvmq0zu4rmGZZsn+ocSIk1Z0SwBzsvc4oSvgRbOdxlO1SHXA6wACRnFhBB0SSyyOEWvMz11NCsYjeJIqDdo1V3ozRVG9Jrq/ZEBzWf9DSkTXEi1COne5TaWERCZN8IjvPmbFbqPl7qMl0Uq6F866es/Q/tLXfDIg2M5KHZWhPIXzMM4JMcmcVU9KYdzEHPIPtgkJZb3FaPmH9VOwybcohfbfNqQhHwB8W+5/aTaPtzjIkoGfQESvOEWu/uNou7OfUd99gEV/B2+ngiKBBGl04aQF4+8uWGpj1NioZFOsaj66inmRsQLqyYFv3CqM8FQ/MJV/Uv83fZFWX9YKGfy1BOPYlLq/6La9Tiv7shqeAdvG4mQ/g22Aiy7w3tUBdbmdncmp4fcxgn6v9EE/p9DO+sksy8JYLBv7wHa19vwkQ3DGvGaeBBTvXKClddoXiv2WRvvV4PBUFX8aglELfep54LZ6bv59q4fWxIj5Y54Yg/ypvYLil3wEWOquDyupf7VXbZJd6g7dsIPK+NXhqynPAvEKyqWQ3hIWK3CfmRsMuAp+seQdQMd7EjguOMpU/3irKJZyjsunzcUmEjBfR6y4FGc6Vp9J7beoIIbPS3Ko0oYIaKQ18QY8w+LKmEzOgMtKSF33r/TEWFjIz0y2nfTN5HrqwP+gSrb9FSfx+2ip1N4hL5M5EN/ZxyP7rlO9dxiWYCyzoj0opqsN/5rJHvYfJzOcGY7+kLA9TwKW2V1YK3yAhWKRyVPFDjCZIk7tctoEc4Ps2W/+0AGWPcrrYbgNi4hcmogM7QwrUijrkikqUBYlUNzF4nLkfyaX6uTQsBAZdnVCEKtJZXNVMU/iNjmdzwzL+dXmPM5aOqmn/VudV7g8jwBlq8cJE82g52Y/DGUd9qD1MAOYxYeb0woW3+seY7XayW29Y7F5W98ZJIA07wH3/6p9UOb3CPthZckRL7pXWml1Po5r/GLa0q9yhZvlvpRWzpH4zwsKjaC9BHMCAhQKW/7GiA5qVCmAEmS5H5bfTZa22rleloJ41O8uRmrbHPw7y07+ie0muBAi5eJAi+gUhc+tsxtUwLYtTKuyCneU115uDUI+rh3Ph0VgnxjjhxpgEI6dYnfLK0u47kUETLU4Iy3fHZ/uO07R8CxT2mzgMz3lvi5hvgPgaLakm0jnjYfUVKwaP8tUqaUdqDriiNmMA4oRMyH4aE1AwbWPTyyMQNRTGPjA25bfcVbm7KKgZXmP2rhbjjn+uBEpiIw2rMgoSk7y1aRV6kbJoArs7L/TQnBCvqdGbVSy17O3D4UacHHKVrxd5twzoLTX4tMwogaP7ai3mnuFeoh40b3Q1fE2qyLxWvumukQpqj6xPjC06PzspwRnhiQcJd+3aWcVoOppNgp2TT4yPMw8ST0qn6ojRc85UdG4aPdtSaT/EVYfhVgMvKwnjao+0lfSEjr3xACD/wB5sPw7S5zbGr/hE2INtDlv/cpo673GkQqsnKVxm6auGE2o/c8xqV8IN9s4gZIiO+JZOO+RVZ6NpE7umDjxM0X0ubTElOG7Cdfcl13BeMk6pCMRKaSghqq0JUlK4VIH3MUp9u7U05+VgpKcZk307ssXEaRD7er3+Lwa7vLRnyOG0xNCLtFgAA/uhbDOGPVBguFoBUMnPNF3PPzQnjPf8BS25LVGYNA7znNyh4RZoZcS/uH2868JfQA+jdkQrcrYV4fKFHEJ+0kQNUHvbEhYUpzHAoKhqiAw/xUxhHTWXaM5LzH0VYBPkMaSZT4dLF3xLYLNNQsIW49virThRrYnJnM2rjHYdOuoekZhAheLxKtwF5qdYIMe4ofpAykyKVWnHJljpw0qeVn9PR1uZefAKvm5fuFCsKljlOaa/Hc4HbT+27jvkDH1+ZRYHnB/+I1pG9Muizt1d6celL3uh84aGPBAp0bSaNZuvUJ499Hm5ub5hv+Rk6kopJmloioTb1Zb6+Nq83QpWuQS43qwxkoY2u5epbdTBH14XSng7RcqkU6+B60ebMcf09Lmpr+bI9QD9b95B1hg0FnCOtSEq0jUoee1ZbL5g5wVT2EsbWqbsly2isJILrum4uqjCOfZIMycnmLjDP/Bc5XMnpRw1K0e54qxqdCuqCUNcWBMCsjZ4n6EP0f6e3lRdz6EsAzZByw7pWmrGgzhApiKS4kFRqKhL9UbePjj4SNUjAv+OM/jhwJQXwd7UrdioAJWX4rJFp/8IjtW4OAjvJoQ+RFVXQySNJxYP1Z+6FJEyLuPhREL9VJGgm6LC9zORy5rWcWE2Qzfknt86CIc3NLJ+iX8KWxlzkJ/p76Lr8XnHrEqmkZ7w7+HUMBvS4XD2qKa1vbdx5MP2GWOuu/Tfuh/Idrl3JoBhfBmHx9fbUgWmL0ljxXBQbrYJYjfKjefPOqd4HBxFCSkIZ1IbG7r3O2xBtmqzwW+TDORHSlLYeiNnHc7+uax77jEQ9SDYn6pK1VlGbuFXqyonfqkvPZUK2IYLxiDgJtrYEYANkIBYGuEJDesKANZDQ4L0VdHt7Win9FB5j2CMP3xe4ePY7bZLYWuR5Zyb7unuLi2y2Tc9Wiszf3UGNz93LrvIr8BgPtZ/jetfqU1iCzSxSMAk7sD4SbtQvhp0h4VA7Plip93eD4w6mvYe3poG6rJf1HUQTiQhlkfWj7L9IhhN5sGT3nOhF96RrukJL+an8anxYKdHrvuTl9nzsd+CAhB9TC2h/NVYwN8PhmMzb51iw/fHI7VU3pJxpL05KlpqaDFzIz1j2hnZEupqf09ZfwcF2KoB+8YrkRUVoV/nYDqnrfQfuI9MsuUd+oRxA2T3QJbgXSKgpfUuHAMMefRuev3xJSvABaNtwdUeO9ly42QCa3zVhgRKJZ4PbBJlxLuYuPAt5hpPS2+xAvmC1kz/yeG94idtnXJ58iEniIRA9JxBS06H/XXjn9v6c7dSZJrkcX7Fmgoqd7LMxy3zGVIrW+COFqCOK9P13jT5sN6+uto+7K8n1xb8/P+twU4IXpX6sP2JmUofalUu1ZuGBpLVNNH+kMZQx/7QeT/UXaZNSi/NrpxQ9v8Mzq5qqTHwFA6MZQNTNTsYo5qb/oUl2yTEYHhmEoodGwg0bwP7+y2I9Jl/a31uDHg2CTIFUO8/WR1OYIyoVtJkwN+KBB3kbf9s015QoqMSyPzZ0YBEFGDM/iScWQHXwxVBXSEysI7Rz5XcjcwehNwwImkkGhp8GG/QqPfbLyjF9MhE+HjzIfGpWEyJlMGLRpkLY0xpLEmWB6vhA+3Z3cWvcmlvZNQIYDsWhzKknRp3zWlswjEB41XIjzyeFiBqMESngAS6gbMWYGOhlc2mWiF7fyuZpTq7Z1cQy/OnRbfabe/Xl5edmzPoB09SZefCPp+5mhw2I3VPiJga0/6ryDLUi1lN4m0tONRG31HhYagsU6oJW2cz5Ar/curRIrvg5auTJFFds7Z7WJtjstNgXvfJ4UMHDtVKnp0Xqz3H8GPTSA263Drmy4cTTM9lvDzfQL5vIWJ34c/sAAAAjjQGSwsEze+aMw0zSyR14ZcdzbJBenW2uN6yNdAryofGsdhwtOmDdXUPcCemylkRbK6XsbnLugCoHicqOkYRMFdnu9YVgML5kpL2ch4vl9mEUD4rTo7xyxC7P+Z9SLihGFAL/sSI6n7C0mX+Zl1eDDXbzxm2P9lC5IzwGXY0QrcxiN4LFjixGviOTeme4ZXBwW82olY355Zictrx7fbIj/cbwqT3C1nDlV5+lpa39rWvh6cCpS1LWNOTQWDsrLhVLaPE70cU4U0PDSg2y6DosqvpDPlHbAbQU4JiTw+8Nm8TUL42MxzTksbQM8tWcJ5OxsNx8PNRvsQeIXqgN68xsmVPaCiE/RAFRmQTjHG+nrmxG17bn68QGKGP7eyzzXMiUZ0sx06QdeXwXNW6B+fzy2cIs+/1frrqeS8JWFgIqXaKx8gaofd7wUdV1Blw+coS6c8u8MXKDZ95WGEahrvUsqRI7qPHsSFMCaCCcaB6ScH8aAmZKBr1XvZ1fGH+LMAAb7XKV2Cmt3UdbM3rTlGJSqtFkye+zLk/8Ei8YP4hRFsjD2fj8h7DekbFFvlX8r4zAivjIz1Uw9+d4laperGOZANpaI18kFcaz5zoJoPxHgbU6nPndMHpVmSCDk5OoISymUUq7XjHPlQAoy5rHicLQLyVWc09ZXkh045lCRZGNXT52/HawhkuzW8hUrHMLcjp5u4uqrtE4h63dTMnGIQiNzQzFT80dzF9ziXerStwlpgTFDOg2Zpw0kO3BjYKasji1tO97xbdzB0sO4R+FGUjjqPq7v0Wl18DufSpN6Fa9XSSN4sDE25boFoml3ROnViYlStEQpRVQYzD49ihZVdWCBM7CCTW1uXmmPbds4qAX0i2Ddd//LXEbyOd7jCk/6POv5jJxss/MEVb5qcs8xRMdxupXWqGXl4ZzSQ0lkWbgfYZfRAUS3PfvSfGo2rfzC15tkh3MPeVumlBftQgsaCVLkAulWgmgzUGZwdTjZ+pZR8pLRIKSYJ/LkPGx7EWBn742bezMeAr0FFDIAE+bSaMnEZTLWMrtGH+mHkLWLDxbVQLX+EY3LrhsuFHlt2w7tdkmjZqEWHrcytwVB9VTqp1M5zzkJzucHZcq1PuN4GSX9rj+srGAuI+OCNcSomkpxs2Qug2sj8vvd6lH6qh3JXBuo4iD2DL/FZxR/hCOM/AY4W07pVuA/jRSsA56t8g8bObVQNg8RwnQTa+T9G7qk67f/J6sAQkVGsZkBgDifZJw3BGyOMqmEfiwbQ5Ommh6vZ+3R0K9H3oZkhiOHVmozae8zSBskNmqUzrsyKTQPvXu/CywdzN5lDcqTx+/ONsMxCAf2iuf3jmLJNjQs3nswaz1ihQ6d5vJQDF22yUvANy029lX2mNJSTqUHA5V84krEBR6AgDI8BIrPyXeZQPuKbkiJbMGgDdnOREIvAvovq2bzMysSN+y6R/Lp+DKNKXYhTlRDB+K9qO3Gj2pz17vszmfI2T+M7nZBft6n5D4Gu1FKbB76N6/ao7Flfs7gA2rEQWl01hYxP/1Pg1tb/dYnTI/sz0MCit1PJ9XrY7BvAsXvGwsHG3/NRLODLUc1Y+626pXDI/0GXyTajpaCGZWI98xH1gbRqLwW86E++r7dTTy3g4mzT4ruzfbiE3vn+RF3HtSbO6e4FscvA7lFW8YSB6PYdqsNpyR93mfkpS6ARvYD4tkWEWnvAhPt2DIj3OtC5S29J3DZOpVtmkVNwDaGLiz3wOQCHlkpjFR4KckLKmwsS4bUnLaoNw/oSwf9YjXadK5vQplGI31vKq47PHrgCc+fLG6h/NiEL/g5FGZvGQnRN4nWUnLnyuLPTOXT6hIqJVo730bGc/bJrzKP6V7APaYRZoaITo6I4L2tqK3UyuuYA9khVwQ9cK0pyCG+NYWSuQu2wv/2ayNc79+xLrXIELH9Mt6aPDl+uN7O2M/8tm7cHEeKbNMX/HrJCRnhJl3+GvVhiSbpN0Z6tJV0+pVBVYyEKvpldbElBEtZUXDNyPcGNWlFZvi2aRH19aH136DdklE5lqtmva4PieULFKwSIZmYTkMKrRrs/c0WeCcEoWU0zlOtoYdUor/IxtMu82rp2FgcoQ18P25yPDa3jlRSCwHy9BN3W5h/glQH22JzYMxYUdnHx8s9rFAMFjqxkN1MvSt03TcRx1sn9siXuNC89JTerEj6UaC+dnoKyEe4KaWLrAhhJ4Ig676QwVBXRDLFYCrfDH2P+CSmc3U2WN8QwKJX1WoAKa2PjL/wwwBBflyNXUJXyhYI64q7hpzQvNu3LX+qH6XFtjqvqe4GCnXJ2IGOIuUieSkxcbkpGhFEuzS6gVU45ZmZYxqldgFpNKQAAAAAf+THcWtLel6s182H4Y0qyvpcEBnbux+1i6Y6cuOCfTDvpqjOWjaGlt5nUqlzbfEOVk0LT1IKZDUVrMjUjYn3BELkWt3qc/LgE4OTuJEBzCdrk2ahZrFUwKKQoPDOvKl/u0BvGCXyp5n4NZlV5aquwu3MbY/XzVbMmIIC7XuVOLmRnYCLZr3cfWAnG2kBZfbSTT9fXOA0irpatCpcjJ0hoe8CygAGiB62HMHlD07lrV91b9Y+OA9yD2vGFWDYZXQFAG5P71MVGTAyXnLYoouTvc3zI9F+MyhAf0pOGQJeJdItcKri85CQsOdZja0Erm7gGiWhm1NbQCQ52ECJJKtqFZ7PeUJYPWM81R5G/9QQkni7ePlws3tiyIkg4l2y74MC3zyXCDQvuwC8gETHFxvuWokihMDaNL9HZl6c2ci32DtQ6gi0GyhokAC33AK/SF/idCssdaPPBexMEOan6flNOlDYDJLPUw1S7NwROnttCL6SHosfhA7MeBo7BHTx4r0jTA294gWl0NSXj0w0b6RVN2wlAhjba5lcSyxmP8yYnjQpM4L4ipsd7jYawLGI4X6wuPX+3njK08jVD2fhYEK0UVRUW8ADE6achLWdNmw8QSVXrh0YMLlG22dbx2n2HUZfnkqkfKulK5V8Q/+mEjKXlEhuSNy1lAQU7t7HTcDXK8DkJ8j+kyaoayhxAqg93lRhUhgh+JKR21h+ICbxdgKNxKJ2MOGf7IWC6ooXNJM6X+UoZbCNEqHjIle8lUhrfAt+9v8mshjhPcXpIQC1BxsktqM6piCMpgUwKBOl8PxWbgACr3ra7PiI11EPFL++61tInOVPHdQ3NcCrCXs5RR5/mmlQZP36h7AEOWhqZknex/p30fCHR3ag5P1uxr7bkAMuy1en1e5Mp0VagwVEuD4W2f8Vgw40jIb9CQslsAWp2rsax6v21qT55P/x/5RAr8mxuyWImnWii4c8L7fXjZyO2Ej9TXDu3kZfSgQim0ljLeMv05jNn9vjFb44EcJ1zn7Hmit/2z3Pv1hNYMgdI/sOTY+LY/SRwFrvoU1TRlEkdcfJyhIByCCkJuq/YMggTgSr00/ic1S2rkLQ+E4U0L+qc8yzK8InNBc8NHvjxfAknz1btOMsSAVwNKvATN0XEgEYLVb35xR1JSmXtOxN5ioia49c8Li6tdIojC6kLuy6mKG3YtTRyBJ16t7EpKXltGGOQNo2JQ7UL7HYDiQsozy5xxYbl8P4qP9ON37wrMTtuf3yABsUKctBWcBAkssYdA2GPDdupT+ulmM855pMCMScO3Vs8Di7jOklEh0PBqLvynKOkNcRObOCSyjcF+QEgLZaBBEwqA7mB5hWzjkVCVxGg/HRI1Xk8fsKeEbrgDgyrR/ttStYYhjkqO8k0Y8VMx0cOxrMkzGeRyxvF3m58E6DalEAg7+Odfiq27zlaSTkJ2VYoyWvvnno13Q2KzIPFFdToNPk3IJ3zRdkRjcYlLTXv0Fd1FX4ipECuYr1AhbNbLkDxKzDVc9VXQ1G3WrH/Jf7fZt/dlZckEIt+pwLCT7cR/JwxIfWnHFi+n7EvaPAJ2xpDBnKZ2SKSQ82SyyB9w6zBEewwODPbCqrC+ndF8P6HmRNA9uHMhRDaDPPgIpVxPUjhnfMmT7vsoeY+nA0aKjkj1x29QdtrF1P68SB5cfsd0Pfkzv8JbMOqD5hPfdhjBrinNbTTam6x8CRPrKR0gzXzSqBlr2sDY863TGnEqN6iWJeM8TY8qIs8jUFPMHQvl86O7ayJf5EFECWIkOm3IKXYbobxjYV2EkwsIrntjT2qVHcIZtJrfdLthmd6zYUTkmXIkSPcZsVC3tL0vAcPXg9ZpANRBo1RP0G0rYG7KzsxXrt6gTN8yYgVIm88wa5YjHmH+MNhODGug1PQJ0HMfZ5Ld6uR215VEAXj5BTkEzDStGS03Sb4v4eEG4G3A5Bo8J/R5OirzUtDZBFGy66TIxgZed1JZteASOZtYP6pGxnxZn4qnp7EVxdEozpUQygFHHnxr23WbfWSNXPA/GUly2QdizFBvuljQobWOJTmEd/ohyT5lsR8VEdUNKlK4jOjzkNTigzXa+EFt6XuEK+GdmhIXvpe+zeQDggWwYlVt6oJ+UBptvQSmoS6OVCN1kfiVxQiL1y24ed0fOhR9lnn8G+KH9ok4cEVaMnKY8oYXlPFTBODIzTSBTy5UBfKzYWlYOoHIjFWk2XHWCEMy0n7IK2Ob1+7pSOUV6kws6KcTd61kkCPMb+gg7QFsTuXeGshNc4mCC8skN921HZXajc2XQgf4KX6yY+hhlHkyWHaMVra3Es2icCzGPZ/0yEbiEPIc/LBUiSQIt6etVvBqFzZlupHjRN2PVIhhXe+UjOp6AU101LTjJ6WEcw+KCx9Wmlofkj1dYrwfcwEjlCx/KWJT2EcwVojUHFhizBYcmCV2KUcIvqibUCJ/YGlyIXDF63N+xwB1vooGgAl0sfQZVTduimc6IVd7+lYldqufmpAEg8/F/kOz6qNAfAFpBEPJsSh2j90tTwcOx/cdkEpK7K9xOT1gDUgUC6GU6bqD+c3vPfHRe9MwGjPJwTEby8K9s+QzG+e9udPa1aHNcxcko49G3FwolR+EACVDWv5OcyTRYT5yDLQnP7lXCQYnBhEIgzk2AUqOWQkGiZz33G5fSt681+g/rRJxSV10O9EoS+SbUp8j1BSzWDvVQW1dQLoFTohGMdvjWkFtkco0z7kFLLLDdW1/QikybbwnYgetwIyfRaum+jHADHFdkR7NX9VLZd+WCMJW+yeDb0n1ihwidJd3soOvE65W1BTD2b2zYnAo58W0EcYQ9M9u/7QurtHs6DKQSmiVn2zqtCV/gCj2RxieSi672uk8f3Doml1+q2zaVa/vvlQ6GexPw65cHbGNO59nPRmSRsKIwS9YCkCZZL76ZwRyTW4mIF49CpqcH/ZwBlQdXwgbLW1Gu8tlUlKwppd44Dj+SJjFAMZ8qQit9phjvi7xMKeEclm6an5i9M7hP1rW4RqXXIJ31CZDMJSV062tU+iIX4mqmneg7B8LcMbf9unUv1OSQN8+2sId0q7YbZ+uzKl00ihfw3fqanWXl+pPR4BR6E58urQNh09tq5B4V2Lp34GUm0eI2k3xY/w/wLKAwmVee+CdI31QpChPFJBt5Txo5oIdPwmj7Jr+dJSoSWANsZr1MJeRY4Ov8L/YEOUOsbgGo/1BZDtPzVXydwR+8uJsda4tL1AFcWeCQVUwiVuPSedGmGbHwGt6C6l2pyQB6rTecCUSc0iCmNBng0Ofr5ksEmib5QEmMl9XFlBePKGjwl0Qq4jAWVEHdwSE+I2Cx9JQllVEqWUbrJwsBvkrqwKfBLmhF7oscOFgw30FoYp881a+gSXrXlFCpdRm600ZWjp7Uxa0V85tNoBXb7e9fyaQMksDOyDaaG443SiVGIn+tkJlQlmOEdo4+ioM6xn7pR6Vca9ZInhiqtVItJk8T3aWB53lttC8IQ7M3H/Xz0kiUvwspXPVaK2+tJ7r3SPy+R6oATlfzeXFBvvZ74waI40k6jfzLgwczwubMA4ZD/It5udAhQFup0CyXzh9WdQJp/c9hSNmcUNA02hTIwACNGiHr1dB7JepZkx56ndcLNDQPPBhJwIJcTcuJaxHkS2cR9nzb6u8zmBwgMnZxVKO6C+ys7cPQImalNpCoAGLQUZ5DuIOB+1/MCWJeREYKsjH68tZ8YQnlCnYcStfSgNuDeMYxuOA7cxw/wQKIOsZgm/x3LunTaQLdLwsAFt0OK4AZMowUTPNpmLnI6xCJPU7Yy6ywCb/7rRNCkZMWFto3fTOCQs/SQryPW+hPuCUoHxbk0y6Fv5vaDA6JM8NqCyBHy/uv1lheaxyGAIriov+yOsgNCLfwjRUiyVg/IbYxr4HRg7N3QOQnZLVamR+pil4G6Bo2XO3Q8q9Zznpa2xulB1pqU9xgAk3Ivv7V17QxKvLM9BgDlVKsavXYlPiTFTvRfPiQ66CYDwjN1obj1DlyA8IjoOyp5HvBxBPwVAvq1w9bv/yeN0oqwdRm/en0d9uRQgsniX8Q/4Ywz9WSwOn49grZTACPYE6JR/qhzgDYIIJb6fQc52UPM4KcrBFQnMv+5OgI8x24pe+8cAfx8mJQzp+WYbsiCtCE0fCblgJyGfwYsJ1B77f6NNxOdZjM9NLC/skLCnbFgAeU+qlipOZ3dLxIHGdXSq4WbUBPJ6G5FDFvvoRufdyq7gG2ohMcpnw5FG5yNC92pxpuh85XLKyonHsfGcOV413XnZAc+hZsDFWHaFA8DXYds5mC4+/m7dErwrgtH00nZT6J7AZzdUsV4rKG4nFu9MmMDsrtCsdjLrSBpqjeYAmhVNfo3oH3VL9aNNWr1t+oJLCIbr2H/fFGV2E3+XkKsFyUWlH7j7o1RzrszW6LNlJbCyrX6FHgXwusdB9lClUdUxVXcmFQ/1aXURAvJoM0nJrpbpNI2U+G+D4Q3q/m4RhlWzjm3HLst1iWwxayEXlKppPqzDqyF2vZANVTmGq2bP9dfJ1+W3+hDnIDO0FWNVthfv9QVez6+3fYwnsCe793BYepzingUAP3wN85Yds/VIRGU+aTMWeFwIFKHTWarkmeyMf3v/5zHXDaUtnjWJAvNLdDT1A8WzRDFJ/YlXhgUvEGn7fw56EedEOdz20T9VOpiWbygADTxH9AeTQCUbABPOjsQUjX6Rla309NtWsM9P7L0WA+efJTld9xad8mpYmj9KyCqF+wcM9M7/6agWyTjU2oK6049/4+AwpCnKen4Z4cfk0twSLhfJVZPGrg5hs+Kfc5roXKKF40yAR2oC4TE982x6pLBn5Ccy0UBfsgr5XfU6zq8/eWl+pfGmVAYEpnkqZy8W5vh4VcyZIgiKafoCDGuQ1b6D69Fg9p8zFDFuc8jMMsz4vtDTI5XozsDUVZ8//GmWFcy6/OOWnDV6F6+koBypYG348e5tjyfStaCo32sWVqohvJygwUf08t6gz7VJz1RMg+1rT9A19EjaxDMUU0wLZBzTIXnZAcwXl6nUdCw2rYLFZ+zywOuDjdXwTgvnRAI32/YiMQOIhTOXB/tsY/h89G5xCvHLPm9NrybQNkrTzmte6Dx8u0l1Bt1fQ0Athls8IRIQ2KXlokPV7HG5qK5RcJXieUEYdthpT4K8lKScHGfCXN0UIw7RDUu5WD9wC+8caV3urvWOPlbjwiGEzWzfAtYHN8oTQbGSPJi0lKiPvDVZAFMrLm5zu3E8eBzcyWOtWbN+hDrn/PsuxD3mqPRBs84Brnk3Eu/EGw3/zuFxZtBw3L/rjW0La9kZtoE6w4OBvPDZZa9hiXV0AhDeCfHAT3Jt6oaiwun4wSLhRPuMi9TNdB6HXpU1C7STvLWKrMAAHr4q+BBNKjtGR6yjA+NcjGoXCE3rpoZ5MEi8Tyel+FJREBPoOVkWiVTVI9/F/8itxXuaDHH6r0DU7GMv7iy65hXk9tXsIhqWexcr64WVioTyWtRzpF/+UU354+v0RlwRzfH4VN5lVBc6brF7Rssa2XdTgBK5splVbUb9nYeoPA0mgI/MeQviFuQxCKb5vfNWYP7uZ1bZGY2Pj6wAQ6uC43pjpOODEjB3VURpQ4vcEgK5FNXvksXefQ9MK5ecu2U0peN+MgwbCl1rhtWI6YyGxpnxYhFYFj2zj4+mP72jbdffwAAAAsdMDUQE2pvw5EDJMppSbzD5u67I15vwUdyORo7SiMF+oiZZb92/FSWC4nRjl5qrpjQpzvzLY8v102M78RepHN/artZhr+D42O5IlI8LQ7FjFbcrArWa+VebWZywH/A+x4YOhyH2SFDGXTXjxs5PF/2jb46JzX81y7FVnGmCJ8zpAX8xID5EWZHGL9dKLqwZmItCoqIRMIE/rhiZIE+lJXr9F8JBPIW3SbD3UXkgmYCO80rM+TGxbxc1aibAOePtj/7x5mnDhlWuM8z0Q1ggMmgCWjYCeQKfgsGgdBM2dJr3dFhivOlbjSwpEqyVQQsYoVSSxnZtcpI1zerDWWTw9bbqQ0g4ptxZyr0lE38jv6YYsD9RA5VEuxlkWrL4S2oY4aCKRoSXGRlWGv9L1qM5hyy9uLzgaP1cDc5T16/uScPMs6Ne+vjZPBbfo0/NoJHc4+fPd7YW24Tg4Fn/VE2YX8FUKVZDX7oBsJlTqVGX8NERFok0WYpXAK/h1aASpQNvoPWFtGbE3EzjVG6gHUzMCb4YPTER+R7UY9aBcbDccIv3Qjbhkdb3/XgktBNjZZld1a8c/ebOjORnTSsJC8LpMeQ3MZUdoCCdT8rhJHOeO3F6C64GmXQI1wt1qxH6BVXK25QBgxXL0IlgQ6GLmZioQSALUFT+jUl5o71EPML+wy3Uc58TFZJO06JuX0SSmB3L0Qx0bwELFjr6u177DTZA13K476J1okrP3dLFHsMM/qNCR8m7gPhaSrSk4f2l80Fyx3iVuRYlr1vJdVYDG3ZbrwLVSN8EVVqktvJCe/opkrtLjJ4q/zbKhXWs7X08UZnEhXXuQXHE4F5HZJyY5nIQcIlg1JkbCBtL1K8bSQlTkpjk5KKopWVrCllMk0q8LGIQ5p4YucL5eO5kgaX4EbbiCZdDyougCUOVXjhfo2SY8BgUOaHor9h+Pg7LtEpUCInsnGK8ktxwPYfdd0Thr5J5pL+ddI77gFsYXeDsJ7qyck7DXHqeY7fK0VXm3+mMgJIkz7WNDqLGeTk1rSB76SYwED6MTNVu7WM5EESrj5iALMFSg8kGDjFOlS8U1rBq8IsyotJDcC7z7c7G2qeOyt65lvXyu7B8vAzVhhxvslOL7r1y8yYYczKvMl0rIHWJ5lsJFV9w0bjbK89Rn7PsbtLAGLbnMPuxx1DqGtqdRSuc8B34D7fatku7MUPhsBm59JlirgOZ5jRWBWqcEof4Mz3EXCeQD6mQEako29ryE7hET4WjUujR/MdFftaXd6CADZX/QXSslvxvHhcLcgYs0jMFDXs8w/i0cTBl6LtgG+KZwieemCCt1/BEDTCCG77OEKmXm3UvO8hVSi8xoQEVIQ5UFHZDrlI/CA4+aVvQ+fg5jQpu9aD/S84uygpjKrsQyOXTjL2n+LVV/jh2EjSAn961Z1m7+77Jh7R7CNCgq5UiM5KPwDAzY/TWLSUSjJLgTpR6C0+u9G/K+97sBQ2eKJPGuw+XHIknQgKR+kYMsh64xY+ZYN6gc6tLtjMh+rrcgtbmMFlXp7q9zQNskUm31LAZ7I0KP3R7JtqP51vby8GFya1MRj4GQYsH9kxpRYp20mMP0Hr4yFzd6WpAbw2VCpS7KzXJ/aJQ1ry/JZozfwrEXJW8KbDRqB/5fYOSr+rloqCzXZzpP1SRuzod6wmM54g6oGZFPhXYzNICoXi2oRI+R3cGs7R9jcvw3JJ6PSObIGH7d8hEif6RuTJigbZVwtTPb44ecpcyfFgch9m+b20oXG5l/efsPpO+eMjgQaaDsvnqZC6MDgiSeZ2D9fg5LoQkPzvOnrDbHGSyYgKYI6/vbxnwmuEc16NioLP9leQaRVBsPPo/dde+xQwXmmxqxy6ErZuC3qWMAEH5dopdOggdhj7do9kU1eYsxql40lqTmF6tD1NWxnQarojpksQyNgyJ1eL/+XWKtoyT5rEsni9V4gIuwvrGQfTFRN/ghr/e3+YPXolkirj67aGGP6QxkGtMmn9VbVa3rCdl27js4/8BHMgXpcL6VicFaU37AhMNOK0O8GAXXR8wq/kLfKBBYPG1OM649fWYJfwspVuTYhGnJgYMUalmf6KFRPJFwQ7eWIxLfs1tJyGuYmtQdafXWx1a/cSe/fJduSJPtQse98LB65mRGFq+SXZMgFnxsRp8g7nTI+bZQsf+WzPbV2WSdTqQtjLSDwnVnfQFG7IOOThzxy5ZCFAMT7+ufbyldmsF7XCBsR0V/pTLcREi/Q8rxB+q5qyV7EXIp3XACsrGx7OCUeg4R2NyAN8N7PFNC0pCrcmZSh5D12hxrIMRjgRm8oSmnKwzN208qZx0HVkvdV3eedTqJdHN+UIFU/78a8FWTD+QhTY+VY1BmQyh9oYstxt96gN8qsCnp1JSVgAiJhrwQn2qrofh2+9d7qUbpzo3yOOd8EjItMuLnIap2EGJ8KukG5ERfXWsYXXsdxaP322GYgX8RX54aRPIiiuxIzvXTF1SOyRhiCcLnIFhCBzgYdyXYW/sQgeChE9Mf4PKjoTO7S6zwWkioDYvNam4b7ph/KrOIR8O4dc2b30Wpqsvo4Y/DCABrQBKRieRJsWpA4TN0N2ODpumG3Mkwp/BTy75UN6NcZgHsZq1ETtUIJaUyOBLVB11vQHP7jl18NvuXcaznwevRdAA/jpH1Mxnn1+EBc1nh6NfpaxMU9cnNhj/bKb3NAYfPELYoFlQ41rHxp+0c5hXf6xgdDCLDZi1xNptjAFLLdDkYUyGUDbnhXRCO8b28vvrMjV/jgudlitZr/CDw9jaN3u8Nj6k/Cd926wzC9PsD/fR1X5MlAWj9e32zAqBwLihISBefmItGECDanOGBIngHpZfXUrI5CrkvBjtrUIYCCbtYqp8UWFzxzU1DF2evDM71Vzlf8ZfTb0eiw9wppd5dbWm4rt9Q+uKJa/rhUxQ7Qb6iX4N8CrLchE6ALo7kUM050pBF6CHADoHXv+v4bFHF/b4XiZ9dHa9okgbrPxQMA/wq+IAq9YDASDJDm+LITEqFZ/+4NDK4+tBdCb7XnKsqMAq5390S65AmDnm4cB4hqJluMDUA+e72exXqK8FOT620KGGpmNEVmDoh9+6+tDlxTItDnoASFWBP4TDKZuNlEkFpQKGB7j32gc+4Fi8UMlFrTiEEBQU0L8IDjIeVt2Aw9OQBk7OcvxZ4YBNS0GUJjeUi0quDGrWORiD/fijRdA+gV01huDl3wfwU9TZn6b4EV43MbB9YRchOKtEBgv6hGA1Lnbsxtouvhs1PAhUGncExgP04XG7OGo9IjTxYpx1bnmQPPPcyd4hReOCiNSwUbTlREyUhlZepX6Kxe5O0tPTi7J3y148UN6wmNzccOfxm5IMv/3jEkA0bpYgJjnrBiIbWxdxCSNXL2rMvSQ0pBgD3Is1q3kFIciblawO6yEkchIt9QIvjiavU2MNAN5+/y5wdF24IN0BN/pIBPO28tfuIynw6/LB4/qf7D9ygGn9zn8ZMFxxlK9+9bjPp0jR17PJHTcqa3pJuAXXI4yehdwP/Dtlfx7uJcnUPlCQ8GFW/qjb1i/youISwb4A56AxVWmsSgJgYE+4+6mJkip++IdL+pv1pdWhmwX6pENy3sy1BUwHPZtkoYy8bjdscgReM0y4KToA+ve/1qjA7BEQAACFlS/rZIioZM3lkgaPZiz9dYUvv0F0rmi7meBnX0+30IwMsaVgghtS10dUBsjDJXgGZcLqAwTf8ubEo9Qxpo2DKPkulkn3YPowerCc/tTDry3Y3rcP1o2rucfZRfjk4AplDH+LAmoFTTaycU4PDVZWlk8qQaeF8QWjw4AGjUgh1SWqqEyUyK75qB1+tjidqG2UpahSa/laTzUhT6l7vXBsLafj6pNYHRke5oFTkzcQ97kGdFvxtTyVodONT50nsRX6AdjHMLUtJ5eWGuUhbQXPx6LR1QkKLXWjYuLAuZcHzqZpCHMJH83FpJ5mH9yaTFY69ZuTGDB2ukdREf6s1Br7j6kxlIEIyJpD88kv3VJIIWnncR/TsP+H2UCPChzb1X0I3+oNpsMpLVbhuIHhMIc/ZSYAUr6XzhN2Of0nk6FWhn8J2crtNEvfKq936Om6IKg3n/jqROWHyaT8v6x6qXW4g5c58E2NOuTgy1kl4muRiIkGSjtlwNit9r372vsBQiyri/b9vrWLJ4PSvfENNu8UI3FdN5w/9pIxXS0Q0HrLhmtEPUlhc/G8a8bMPLftK6GqZC52PRKTJTQAOh6gnuHRxqJ5wbOVXS4oz4Npa7e1OnYmYRLb0/CvpQo5QuK2gsB2RTbTOVky+f+CxxKOG2/63PEjV27QnhVxDtQ6uMT+dOSqqmlZYDropWb88qLfClRe37eoR5lFTf+vifk8Otl2AeRNBRFAkDmhxtHuU1imxUq0zYewZbJvcQNPtTeXbOUUngQSGC5689JAziWqu2wMbtWm9fPP7/3OPsWaVuHWDF2PCMx0As0u6A2OxKldUcpHjDzFLjzVa6FWkWorsDNExVDrphGboMde6QWWAqXjwTIKESxQ8IL7gTHdCzhWhugQ6yUuGptjzD3M8vDUBOAmX61BHxNNDd3PFtPgjU0kzvfc2jxoojHsHJJN+YlH7iMz2/OX8dtRRMaid2Yj7nzBLCYnalZHQ4ZdzAy/lZ95iJfTJsYgcwU40BqH538kdCMDPQ1WU5j5z/TQ/aAhYMq3DOAWeL7mKTalCRXxpBngwT0ZpXJ2VMJQQXud+OFLxwb0Q3jCqVlhr/db7yTurWCJxhtmMyDEsvmFS+9mfqgciGRBiM6W0Yi4PlAgwUqX4Pc98GvZIcwmfGFsgZB5NPExEVP0uXgVEG4hfXtChqqL+gVVRjZonGixm37j57I7K6SWDDsPpyvkW2wRaQaTGXk0vTRqhoT6h1oPquhp7ASpv9Hxy/HPNSPR7xWj6kiUoaW/KL22KhSdP9pDh4uziR3u5CiR9COgPbPfaB/SlW/ZRSpMgsAKqYapvSTXi2snjbMyXZUloOqMN9kL1uX/o3YNqHvLwu/K+6Xa26B4ZxcjW5/VM0NXy38zsDH4EnHyL1DPUuR8gtv8p34XmPZujddt3awxkqX6Ib6CL+QUat4jchtBdkt8Q+pST/Z9OAuFJZOtOQ0BshtqO7Vx7Q3Vpd8DRal8VItlfULk2oS4CIEP0G4G65oz54XcX5lZVWRCZ19WDOdEG6t7Ceu8Ol9Ucpt2uIgXv83D+5f72PjfWEwzOzyGvlLQpn8wwBoSxYqoAHEaGJdhnRKfQ/UxY68VO4/knprhB2MtQ/6Ezd+LHQydgUDojUtNGw5o5Jxh8k+UzQ7R+r/gGXxPNb2CehCPH8ZlV4mJBO9uC8SgE1+y5VC7nxrDdKRslB6HpqCh8s+ohS5QbTVmHK/A1fnwk+HKCmG6tLA+VaQaYWFwJBOiVBvlGU7pSbgtAzBantqZlGLVuuW2691mrwyzsDvNWjdBN1CqctAflqOe1BcjMxLJ2K5lvLuZkBSAqUOiykxps30KTNF9YwBqUTUbijCHygJ8KNbrttrBhf1sFCxRlZMXGwT8NZL7HuuRnzg6mkvoXaVZ25JUneRSZr/TXf2Oq6ccUGUWPDaLKR7S95PJF+trNvXlhtj4tyVPD8WSs8r6U3zney8oJZX+u1RvWAG1AlDy81odZjwt5zsDZdHJRIhQseLp2Bt6seqGUyQ9SeFkzbcH6M8CtXqjXyM92cmnaHhM+ldH0gxvruyRV3EgKvXwQMWhT1/p+ipffRfQzzRnmDqMfgcxRbKx/MsiZQBRr/zTwWNX0JEKjj8lWJD1RWq3lQtHkkpoHghG69hPWAnKYtTfI8qg5DPzedyWdMiRJVUDxubZTNI7LwR6ZajtMkcLD/09vsOnVnyM3a9oHiuhUhlVLGMFm2eZ2KcrCNZOj/y+CV2gXAAT2HS1MMk4TbABj8aBnn75eh/9AsoplBOtlebTsIu5CJtHZTxXAzh+rMHIUC+Mq0lo+CFofH+iqZsjn39feUMEZpnOvIfHANLQsqgh6cTqKoOQ51lxdzK7pwgo+eLuhslnHBW7LNlDs2wsdLsebKEXpoKXKVxLZwYli1ktez2D+yGNB+5Bw68vdwpZT2rj2c3SKL4JpDAjD5h564UKwF/vNzU6ky0ymJ6KeB/BX0CzpkqW0p339bbyGUqTEQ3+OrH0FePENlypqa3q7CkSlwF+sTNiHj4ly7lKTS4DrWDllte2b0NdQJvMBTI3Q6QixvEGExg60+UFBH87VwUFSjOUaewbC2quq4mEbaCqkdT+khrrfqBSgQKBiBT+V7gCpPCAAnjtH9Iyv1/7PCiXmVBH/w4jJs2sc5Xb6E3jHnF7uDfDoCoHoV/G6yjGsyFjO1u65JzOi8iLvb8dH9RjMKb+lMZvdoJ62V0UJ3UIKCisBkrc5k+BfdB0jWbkdBbUZyKkuWFq7EbguQyy2lYFBlfJ0RX1TFyt9ehjTwh/cY7Exok1/f21M9NWIwTGdAdrtonqoBojVOfD06NRljUjcRXJMIRxsJNt2xC1RiQj6iee9FALq7etPQhT2Bkk9nZdo44kQ+mKdlBzpbGarFY4vvfiGwynmCKO8FHe77WyK3JCpIaPuZiPRMNciqcQUsObH7SayzKz1zrVuEtUrwaoM+nundV0C8QQVvSI6WX7wIsI4BF+kqduTa1EDRDGrXrjCGCjteqdMScctgSX7szkYVeqsqxbAuetmCpnTWgT4dqqwkUMVP2zdVIZGSrYbl1leDHbnFFlhNegLPWdIgH9uwfEdzs0GHpi3AvTGMVS9mcKiEln2ipxV4XRU2D+Q8VIy1FVXF3oY1PfLqpNH9EcebbPouA8caq4bmyIMdwr461Oc7DBpyOEOV8qPvT/aiLxEbceNnAa4jQ1PYixofKeR74kCdaEAbagTP1V9T8kcw8fho81AGaKN0aG1NHZf1K5sTPyyJ6WNZEuxiSxhqzcwJGSNsLJdcoWtCjoUdqkagaUHvj3JDGwc5fFp1sUNeOxlNC+OmeeSMq2RwQXDMQYQ5rCAh8wppSgedP58A+NRKOjzYDFOCbtuSfeOUC4xjmzr8DYpwAwpv5UxQXGPry83GRedVkt601J1Mds0Hz8zTNhg8bMlq8H28aGDuxIBYE5zTB4ik+p2Sd0RnBQ4gI5I/L6M7vPONfntUVv7uneR3e0QdOEd3PbvTzZ6cc7OSLJ5h4DiMEOFJDTKjSEJvKFgyG/K/lBL8tNgc67YzNAGA7KYbAIKRZmLfhACFJiTUUyk4UKNU8ULKfJFFYRyvG21m52uAAAAX/obOxVsOElHvMkUmZ8hUfdK6fS+jC2UgVcK1ECxrKAo2D9KqW2Z6C139hwllhqmlT3qwtSkvIVcnOZ5NZ0E0WYJokyIjTMmG57YeSzZO/xJxIo9Y3lvB80w1+uYhqKJrdz4jh2acsUg2FvZY9TPzos/DvtdpfH20Jy/oaQyO6IuQKtfjE+t8p4A5e01Y1JAnjeYprIsdV2eQ9bo9VqdetVCfg9j9O1SGPXqT7W3kyomZVazG5lAor5hpX6OlLveyXWPy4nf+SK1CH5CBb6iA3q7C2L8/BX23aoBwGYTvdXSFGVD6S5nMa50kEt54kvCzL6iWWyW7vgFkP5Iinx3Qc7IaDCvgJp/4mwVmuVrxsmWO45MVa4Qkkc+4mnB8xgJuBP6G32TVvpLFuLSs3YNuqNdd9xesGWTsQcK/9TmsogJm2JfE99VLwQZvvowxocz5/igmkJP+d+p0boj7b30pK1j6dcvl9NXcpkfNGYiGb/Plotpz0Z+sROXdeQZlxxhrEhvmEroFU3hZcUoPVik0vIDBciPRaxq0q000T1qyCvXdcltoiqEQUXGUja3jGC7br/L3+IYUkDtiFIGKn7Sgju2G/nnfIpuC5zQZSEVIOe8dnK+RTCblgwSv7YR/4GDRcSU7bSkilx3mqa6vcJnDe/WSrNLGlXb1T8UlZGbVoNHiCPnNkXuBCAbWKOaiVpGh70KtlRI8ZLJP2c5lIUORdgSHaoQ7iOSzTdgCtBZMOsh9UCGafr5OJogRZ4Z/drt67cq9QJiE8sBcXTpOAd8so8enk396+j0RG29fDV+SbwZbAJlLeXYROLHeJ+QmcCo/ROkIdzz3/z9U1OTS9Zn31XXyXkP7sEBUQ6vxF8q+RZcqMYeXtoXcBv88JhAa3YHFwvI7ZkFWROnHtdJ/JSLusJ7w9NJet47a214naD7fD/8hsOEDlhdShmMgCFy+ef4tDGZ6jjVKkMRY69ojoYP/KNQNcsGW/3c40WdZikMG8/EKbBoYOqj3BQx0/JYhbAc/O+yWap1zgcTIBS33ycS+w+pgAmV3CKgBAzTPky6VZ3ON8/SXke1pnUH2C0e2nFmrlXEHhw6Ncxp8uAeyKMDEUMTlH6Y1UN1D/AgnARHL6rXp/14fEXPsAZxfIQyelasyModcb3GuW2SuaPVXGJoGUEqSH9rMCQqZHz/IiP4myBeJeqkBCtIeHlDYrh3tX1WJ+VA47iwgBptZ0qjcxvs1GVldghe1E4nt9UDRx7Fqg4kdO+cHR8xuti4tm1LhlJ7TTglXiSy7HUs8jCMqtojZqRnoM7G8LUjqs4vvn8XNTW79The5ecZdgNOGuQTGCyHqjxvYHV1voSMwaLEVbDrUPTzWUc27DBbBXlzXpjYLD/Zm2xPwf0EPxhVHhrXdspCeSj00hg/2gaFHUlW1xdtvWkxXiSF19F5+FHzKZUoEAre9DyMvnMzAAyy1Tot4qHDiVryKaJ4NspJaWMkNi3CVpCmNaf7nJ7mKr0P1gpNwOwOBci0hCZJ6B+kJA74t4iOPDsJfSMfk15exAaP/gWvt7K08yV/n+41Eo9mkraAAqhlhZscgw/B0kZMIysH6HSWK9Ki8oenQP2ZN5sW/0Sfy1ENzp34DjdT2I2tHGL4DbsxcDesHOf+MeZ7x7FVhpOF+096T/iN3flWghxwnNO1lI59GLJOM51/FFvk9cU6h31XqD33ePSeMJWJroSwvoDuSfzX2RHuge+QkZFMswSrDTlth9YuiMb37mQF605sK8mVZQAHT+q/xj19OKbYq5jWZPTprOLGV8Ub6aC5Sh/6qTbBFDkOg8uMqEGQbijeMU0iCKvXUn66PfE4mA+/6dOZlEdxiMEIr15dNhU13CdFBhO+7LPCJ7IXKI27LkFg9EP2zPav2fTPny5M8xA6iyYa+uOOIDMWoWWAeJxR9zIFn+WORazMmIisk/QImrYGWFHRdcOYfUGVH0UQwx9MkVxFfxoWxCohVgdVMLSUJv38GLGycQX92bd0RrgvHrlsjOcCGdBdCuSpF6FxTOoG6Acd0ma53QsYTdXNzVAL2yjwT5VqP7n5K5kWa482OUkSeEkxX91onqqxjCOMn3Us9xl17MPy8eH96iG8ucD1n+A7SJwHilzQryS5UCVFVU5Co66BisM/JRvXZ2q9QguxZwTv6awPUTc6ABMaMib4sonyHjtPqSCIthgm0m4rOZpB5T5vV7WXNUcX1CxJoMbpJKV5Vy6njspiz7hjKxwWNRwO719cn27cuAGKtBnZC76Tg70iE1mG3NudGKZb5fX3eAXhFbJOskN8xDWISknRGF7EiPnVOyrohFXLLvDcspbSFtSWoXSqZO6VxKZubBr+QIbDSzk1GMKXpD5MOuywWK17uaLmLS0t5vpkPTe8RJ0VzOyAnFu3D1tUdTj31OuT3/qR73W8NDEXG+QwYGIzISp0n6689HhN5bBWIUNt2OfANFTC09rjPsDbd/iWgHrnfseofFycA3OyfhBUNuolU91qwlGfugEPuJWtynuRgtgywQHJ549NwieNMslLiVdVHj3fcw/ULQ6aH3KKVNSWoM0Fc34NXZbR7V2psIhtwWqnhDFDLjJOMMi9p2n1IOmthop5SXGUVnfZURuJeJOC5yBTeNieqTjhW7VUib6Cn+e3didE96HgmhWFTTCrb/QqRKHJi2l8+DXL9N73JF4V/U7udrrc/xyB7/MCuv6nSCfqO8knkG2/9m3JeAJUTdcA7DJGrBJyWqkJf5snztg4eXgjDn9mKL+h83ZnREA2h/TL85IUIo9uq3+r7R7jBVIwfNHtfjwHesRWJFqAHzYn1PyJMRg0e+w0fkFYEmGOY7TycCwwo0h/WDqCN/r+Ngh53/UiX3Gpi6fyikTZjzpmW4uKTj/LqcUlxdTuCwyDYGDcNdE7OibontJbEqiB8Mj+p2zXUFvZWRWWL4a200sfjza13tHZ/Gdt9oJzQUk7TbKk1r3rMQyX6Ij8hmTkn9IWQdwH/wMskS2/PE3foPLwd+bqNM/QaCJNIbIJNiz1lcp1mo18eoffbn8nE14y0bPJ9ZKRpEdfVmqmXUQ2mHgNvnxoG1ljN1VJAzfPKnywsr6qe38RALFKMIUfhAzzZBvHPvs4DyWarg693n/D4vamoaA9JVhmXbWN3VMeH8rteMLgqaRdQdB0Mi2JXuu6eq0apv7kOCR+b+KuN6ss10bx3UCDI7v9qrynOwKcZMA5R+VTkfEDyNJ8TAznhiev1YcTUY2wMYBZw+h2hoIUbD3f1dENrzzDjeF4Lt75psVs1gaM9T1fibw3fZR596dDftm/unFtS+99M8ekOfepOAynwuab173x4mq5oIMBzz0qXLqwwDD6r8QC+26pi2KAEinrILY/hEmOrN5Cz5Im8JXD+RT37r08tMAzTZZDeJXMt+Noc59aa/QT+jwx/yAVyZvLDdU9Cohk9OnKizFgIYNRdsmud1Y+YnwRjBjWjJ9+0vTprwnTjeyxdswJDK8aDBvMU7nwzO5/GKxwyhgODriJGunks50S7pIfgt6eQLThQAJZq9MbnGX21Rnlu7VpkglMdYyrb0iQmyRvdm2TYSD4dDk6GFXW+PMIRy5NMT8D9hoQo/pf4ZPTu52/gEfmmNXuBXAqa6FJ7OFf0gi2v8CeaZtbWJ/r0EcMs3KSlYqo9LDc4O/nORgXFQ2B/zbMAn03TVVnNPbQ6Lm/+yHNvBxLzLulEPLiBCBHonorpysbc9zQAve6WiCHd9IY35H5+lw9O2467VeGUcZcNNXNDr4kgGXbQRGeKSUdRwgcybNT3MSUF6X0RluhFxOeUXiXxn7es4IaU1nwfStyUJmGfRlAFcS4mRny9SETTif0QDL1j0eAa3WpmASkyUnsXsJxNh9CaVN9Jx+KNxLRZwbrqofKIlsJ281GOGZuvSSnCb82YPXmdlrQ5CFt0/0/8mHzCzUF6bjNRBRwzVQyHRSNH52CsrrG3o57OpsrNKDNuT1+QPfgoEa8l0oVQr0wL7NNxuHZ0+spgBARBxnfKtzWVOlKec96uevmz1KhUfOogO/8vq2JiEmVA8s3s1f30ZbyR55nh0/cXAwpyG/pOcNQLeseUEI8yuOwzEh53by1vXWnSKd5CjdGCE2JD0LzYJ9NzxFg4FVh8WpgntypvQeXc3xbGZEjrRuBElaAN6XJCz/kCRJw99HPSbU/OkXmuTjsatx6luoiZc5O0gDqOdfgnHFXmxeEwrAt6+qUtvn90FysvA744WLD9fbWyhUwQSfqc+WYz/y+xfpMzCPGHvf1b6EzDWIpT3DlMyj/7jPRAfwnQW+VjCPal/sljQoNUcRr9OF0JRaBPWryLJdK/hiI2khj1SdRjrO5KwneWcPemccJozhW3zv78ATHoL5voQPdoxqaiMFUOSEEvohBo3cnfUpSp0SdNKqVYy0a/cdAFqv4haALoT+Baz5s49NaA44bKX+5A73ailb3y7UwMwktuI9GFVfETP+jFygO7jMlxMuHOxf95LHuqYuPrryKdbFv6TGU+wCX5rnUhBy7rPs5/hvcerYBg3bacsuX7qtTchMNU3aNPvrpqWz6TG0OD+ivxA5YGGdDUmRUpvWPYz4AE2ttqer5VeFBX/Xs+k8hI34FkCbLrk4TA+vRKAfAIpA1q7AUzdFZYu+pseoeU+ckIkWbm/fKdkVMVW7YLIsoICCr++9GohrfI0/14Xpr0cbMtQgqQxebZx1KjpSwFV8xqfqfdQSWhWncf0G8/AE6SA5qO9LP8bFpx5czYroAYN0yq7/EFE843QNCV7A6plKg8/VkOEEEgkatLOQJubcT+UaMBI/RGM+x6o4w8nKYpyR8dn+kMKGJATnWzHGX6kj/sltDqpwjtNm0rRpltxni0QbI0SN8tWCHVGpT8ROnkNzkL36WG4K54Eqtx7vUORyNl0/spE3DODXXwBK+YLwabml8k/rjKLAKw3Zitl+ob4Y+lfaOR9vISWuwqzWm0ytzbIfDGznePqlwDmfBypj32vzz0l6vceW0g3aW4dLoJpgFle9kiFY8WWwTCPLacAEwtiyq5rkcHYxqjx3ZAtG30UHAWtXdAw1fE9dfdx1LXnFtdCEog8+Xbj1wla9koMN1XE2Ny3lLznNY27GqXalKM2fOxbUT5VsWLhJkrKyaQodDbqYX+tXO9cSK6Gb3sa/kYzxBhXRDfERoj4/rYC02iVElwhej2Dc26qPMGRqqPBEPVsdZTOj0bZFPMhHFPNDuRtsiW89yICeaMg/kA8pQvflALdMZjIWD30//B3rYxDb8EJGD75sf0Mfuw/0vmPMFiMLCSpARcZ0hGbcEpuincdx2mF6nJ/igv9wdrlio2+LeI4MHUqhmPrtKAHWcmnX8cziDdAntLQ/5Xz/EjrRpm+2vDKzzlKiJbooyDXEAAo+SRwib8qMkMg33fZ+l4VH0OPU80JFnnDN7XqaepNQbflMDgp39OFK03Mf/GCMEl7x8CO1hSTCTwpAUcCdcOMb4y8SHEL8+d9pkrAwVx9mqKwQ/jWAsu0mm4yTGlDJF3hv7HAG7NV22BcrjPXVjcnfvKS5+3n9t0jE79C7brZiAdr+6sFVAOFJb/lJ9soCvzZtUM7/ZLJ+//jeuqsydT18Ajz6LAtgtnl7QQ6TAVeyiqWNStMAI9H1tnthvUfFBw0A/liNLBB22ZtOkMEayzzBGrG2LC+oCrbF/zMjPdbYLpfebWmWcPC4J8aOMbgNy/wKRsRhuX4b0sRMnV/Fm2l9raljoPl71tk0rn7vbI+wGanUajxHobQTamJEFOuvuXrKewMHUdiaCvF1fcrtPU8fsXWOS9tprGBd2u9WXmuD/Fe/kLvzlYeEykamM9RtXZBN2M/ZjxqU/a2exvmEPZomeIn91GD7ii/aP5sbEN4Ku7lqZ3dv8ZpIEZR/kYzvRFnAF/0woxg1i9Z4bCwysroLI4Lbm4Lp/qo+YOK3eL03GJ16uUab0f1nn9W5HuT0YvsCSb2LKR+HhPfdgCk6jkl9DhHWDffvBO39HD14Y0CzbW8c1jE1JbQy6IXmXhcEjx9Au/vIscLuCgxYcawMzMwwa63RSpL1V1Yse5IH1B+kQ1UBQ32R1D3g0qFZFHY774W+DCjZl9mu5nRzWRETNYlV+z5sbyV4VAWQUY0bfCZCEKaycLEZ+ycyJoRGPrc6DzGtJzC5ypSlktIe2fg2qWj5EJWRsw7mnISuT5afGSVlNwgKiJujDnkYSnq1W74mf4/lEZvoYElEOdN+lUMogMi/0zRJfiIymCHlBJuEXtQoF9pD5+WtQLnbbXXFvyZR26ddts4urxhlLVl2143uEXJajq9ofXL8Y0Ayaj0Uh53KlGNhuhej8dYhTkLT1oza2Nl6WO4vuqibbwrl2Qyed9gDKfzbo1HvC7AtB3uvLD6DsziyWaChruybvCfCEjTU7/9lWM28W/UdSPxKn7dP8Ca8jvbfTTSVuzTXaY5aUKTmV0Ai1/dL0US72GqcGMQgBbh1KSUFjrbxocDLwuadr9PuAkvqM7CQ24lwxphGntQiUHzYpRRkDhyaNFprmpkWEENLM2EEd0fNdp6NSUU2LIMx6i39scfXFtSR5EGOuDQTNR6O/i2ghN9rAXdoNJhXUAqldvEzN361HMUKIoDKy5a/+w5eBDHQ0bKkOeQSgnX4wtoYT2d/MuzW0uOvsx0PFGE9CJqQqkW4P0xNdgRqUttm76ESRaax3lduZ5CjY+CcShSVA9DbKgazotKmYLvhSRfNcP+dVdsdWCRgMFywdAKU6RkjZlL08/tGcAr57QBnalacD8o97qsVaq0Y84OudhkGUhymVdwhIWG/fL8CgyYJvhQZBbJTENroo1uPvXzvivz6PSZCTbtfGRfLw27kqYTMVY9Ck2IiEAV3EapseCEcCxrPNpmOOGeJeIu1DBLc6dtD1Kdh2nsvCf3won2sk+NCxXekJCCYUkhlhGSCRap5PEkTpScthZ3Nlz4oy2AHnh6+jSu41dYn0+f/uHfe3N1gIvxEfHgkbMxULa5aDbNBrWEFHcOxyBJQBr2jLblmquCFnLEded2rXi3lzzoyncz/qQX4uTWihTrResBZ6XRJakt7PqQH5TuSMoGVNs771+MVVuoQCpwGi9pggKI2mBQVJGp6x3Jn1JZP4KSNrXCazdFo4VUK9mNHvglO6ipqGM3FVhcTMMqxOPnEr7fefg4PRUEXm9b3OY7d2EbrW0zCZOFuDH8PLgP0EkzSnCMbHCaPKSUo3nnxmQOk4MdZJ+rlRdkBpBsDcckQjleyJ9j/Y5RIWFXHol9vEdOr4ujmj9cyaG9LwozoTPKDuLc1uaadIahtetX/ILinBtqkgwMKCj4MaJGhh28VAfqDKtWi+57SqclneH3NcObykuJbdrq7QkqurVq9xqYGP6fqK0x0pH6eesukYXZwO2fTpszhBB3f8MbMa1zb+SrxvwIHH9jSKCPAiDF09KYcOCArFoE7Nv20kixYo3m0045zycbmO2AVCecHVOl9HhgMw0Atj0BkFHuUPI2iYaAQ8aPif0FsAAvWHWS5VhLbLPB1NAAdSzuoSFq+ypiG4KCG7zRmq7j6BwR/JdcC7Ko49zYHsdzcApRAETvlUj0U6dHnUNLDyKKI1/EfYS/1yQqsKcEWGVsoa+1oehgcdMweNfti8nigDkwgKGCKpOX7hCeJtTZsC7Bn8BnqxQk80TVjP8y8o5Brq+LJ1ZpbswxPJVqb6efwZeQeLAYB80Za+azUS1RyN+jRQgb0RBwHgsM0xwwKHR67cUubMievAa6vmwvwWIc4mW3S2qv0PqpOSjf5Fp40oYakfKix9cVoxE/OUhAjLn5bDxtmJTyCh/+ud4G1KeRpkH0JuKihjhveypGZLuMLbs8vWevfY90apzEuw2ZAtstbpyHn+P5DF8ea1ZijcIWSw/HQjTYgcgJnc/kNNkxqxx0k9um64r/calHTnXnrAef2K9rPzncXl+TLFQO2bivJ5rlFTvwBKZ4EC7KRAZjlzWJEDfZWYGKuU3Yokb2At8kWG3ZXgoe+yAse18DpvUYp0cM/5YR/KeyGVpoMYwDIHL5qmGdIVPqhGUb2R1sSJxtZ9XS2fJ61oEiIXnckGl2hkE31mFjcD+HgTqpI6h5SBj1At8SIoHyTXmr6TSn3AXkr6j19sGhCI1a4iB2I1Eu+YoWWI//TXKPpcLBTwhgxpfOMB9UDgmNqH81D7+zqUSTwVu67Z20FydDZhMkdsQCsU/3QwnBcb3QRaRwCIi2kcm74KP7l/d4NmobTC6kmLcKGv0mTAei8bmheTMHg8FrotY/bmUtDEW2KPJ4nrJKXEOH9NmcrzmS6viTg+2Ct+39nPUHnR9bLYeMXmED0XB+N6fvblRHzJVeDFzbEey00t41HKdr/srp7Jii/1iuGiYvX/cFmfQWSiq+Dk8aA52ZxESAXhdIBOCnkxrXWogl7Qjz2yPOyzSQ4EiSFkafslCy8r7533o3MiExyppQpfznTBHwnwsvIYHCHhB8aT8k8yVHDzIQ4mHAXSHr+SI3prCTx/HJVwMUSx+biIsAiFk3KF0/j+rFefe/N2tmxpfGJyfJNSMgic9Ldga3/mz9ZK1hpNge5PhkUbAQDrJDQL0rIUbMB8mNts4LsyvfRwVTIJrWDu64yi6YydI/5CBalKFEURoA9s99jJPNMVC7DQk4h96xOgbTd8kg1bYHVnapEH3Or6IvgIKEr1dI10A0gUdG1xaGLV0ucbM8PCFTfa2TSYKRgstHJlehuNogLHhcjkfXcvYQrdCPjvQwYbF867B+mt7WTy/l8VvBN7SOd8OFKgOPj0k2GhK0QfVhJIvL5lWz+UtA8ERWkULyDCOWbE3X06vLixQM9ViLbe67JfXDwnuI59N1HnqOqYoe5own7SGGAJEUUnu7XLUwSKU5jBjQzcmNjqmVPvja3iVxLKkaHQQtJpMtkf0Sk+EUb83Z75os18fy7VQwUwqhdyd460bzyJBxyQdDNS0WV/nIHq1h/yKSstk/KktrYJREonqlI9K8o/t3ArgUvnbUcKotAuDG8oDkyxmaqZFEiU+okMtpv34sulBXalM3ezepQKSz3FrM6ljGepesDlYCuwaDUeVqratl7HAkaQplZYcR3eStpVdtfa+xS8JJi1pZ8UN4yx1a3ate3KRhPCz9y4FJUvwsYsjLa7EK75O4Sq5tBsFNQJuRQqH/F2k06DJDfNHOYlb+Uu7X7FeDQ6a+cNtihyA7alLTiUIuTd9JbGmN+PRJqd22HZQm2AMxBoGHShIhAPLg03MB0SLd7rrQ7T5FtVV4oufCKHWQ7PDrzn4xAtBMIvKy2dQRwRJjVCwvWBzXmQntA5icqxRd6MuO7Ek9VaT6AhSVIEL77RG4UFBWOrHdZAuqopQvP6MKVcqMiiIl6NUzwumAhiLHhSuyMMBGG3XL09xZXB2TqWgmgN1VjqDsglr04QAbjlCESN1eNa1tYyTw2lV7dIxbIkW3AVAcN/G1MiivtDFxaYwHg6v31J2ChGqhuWmE49ZFKZudQn+onRlu6qCSphfKafkP+U/J8cG69vaQZM0V5gz4EV9sdEGdIYRtRWkmqoIbaFpte57TAElufrLPChTvuh1dcoK8bjmSnG/Sj/Smc1VNwIAVVPO/6TuXPawDj5nrJE/dFoHqti3/ATOQfXO3HFxdLmADa06GABshXPPeZ3/Dyqd8dVoV5Fx+zL8WWI4gODTKwV86GHhh+NDDZrYIJ/S9M/f4L5Tr0tx1x25dRqyAKlVRLVWpJ172+OnWM+fW4JLBnXmNZwBxJMFRJhSyQCBalbQWgofkkAjHYDK7OGzeuYoF7qy49cxmBF7bWvtwFIOLnhY21Cjy7bX3WDtqJc1BDsAE4quLxnpFwQPxqzQKMPAai4LYHQeNwb4XzrTwmGpj13TYDhc1EAvFvVFgUusaG2Vd6JHJmeCRgjIMMJpUkU3hmls689akIP5Nq08gt1JO0YiWabyiH8UCNfeNh1NkM3jId8n/1L6ALsbksM+Yz8N2YZ63FbXTklJmm6JRAazy6Dz9/y8vLdT1a5NLhVcXTVgpUIWDcfxI9JotBnx6lMm2WwkT8oEAT1wNhcFUG1OjRcYXx9sAanF13rjASezue7lP5IfQGV7y9cw+7jOp9DOH5detmMfHv+Wt7s+k98lVlphDz1QeQZzuawj7PGJa5PTOWJ/rFYigfPoEM+HrtHjUnHoUJG9I1+V+xK0MlVqNwof9vW4ulgqojsPhl9EZDRW8JWET0lces0v6H84SOqS8bgAlO3wo3XU3OV5McpJdEM1fsQ1Nw23xiNxhvf3+MG1OxG/pBta4FVSWmpOVNxLf1ZgIyJgaBqagIVpSpZEVcjuD4nre5XnipQZyX/XFptk0n+iMp9D9fivJaSfTdK9uq/PR1+nUkhEfEHqIRFzzlFsa4dI0Ul5ax/qDkF+ZURY8U3NfyQmvVV4jqnHM8VIdPwkSZKgUZjQjbXkq3mA9Y5niNTzpeP3WEXwN917YlCi8OalkYp/hruwqIaAe7lpZ7bRAlITR1mkYJQn3tXpQk8q2kviMoZwiWSlgzDP3o1vvS0zAfrDv1zWyMaN0IG4b16EQAraIFaR2k+D9hezjpurMWEAfwQtG072HyQwJx+mlx710IOEbKvurP2xRu2WABRDadvi36ZvU5AjsSY6hqmiGa8eubmOw/y8LJj6LmbKVKdvUobUMVGTQZWlN+6ukYvvYNXl8vZ6B3jpHyIr/1RpKhY/vEk3daQDX+gO+OnlYH2FGmwG6c89z8+6ZN2FEvI5vrgTK//M5Izk+ILqYZw+/r+7s5NRM4ONvWHAxKAdJKiVl4vlQqfI1B7i1TwQKeHA58EO1UYXqX1P41Kktt6tQzx5AuppALrB1zYNyMUN2sHJZ/KR6U57s9AXVU7jAafvWpvUSGDvh9Cg5en5mqKmidgQoFdeLnNGHVA9otFAtIePkjvJBcls4xm7TFdvcakgNLp1C51sN3sfl+AHeMmueGZZsIVLCSLWKup7myKZRiDmYvxI8XMwqNkBTR43Go1dSs8OXMd2DaeW6i5m7FvfclrQgR6AAa92iP1rSHl0Hj3TeyNqCS/VNWXUZ+/pmInzNJy0gD0R2pR763bhM97Iiw1RGNqXgt0tmO1Y7Sdk7+iY47QUKaJLEqjO9pb5eOoRJrnthPDHRUefSVhX0RYK0XDEAbBA6ycOHu6s7e251cvT9WX1aGq///h2+Ro3G7QvfFmNsR07/zhF+EDyZ0V+Ku+e/OUuVTQRywR8PQS24/5RXV8GF+J15v4gtpF1y0+Lh70dKMYRyHn9BStuoraH68AmqUHKasnH2dPwDbbeI42NtGF6DPce8SYI1TrrgxALQ+1eG+q3AH44UerK7p0QksS6z0t8i4HgXvmcLeBkM1AyY8j0XdD8gaxWtfSfp6TbUu4qEspcgcRhmFYK2PZydV6BPwEtLEA8wejCTKfuNFUl9P/jAFTLDhnT0JxoUllhawGWVeEmemF0DlEZ36PPIzd2L7nmR1OL5D8QWntk457jR48mt9gKwaa/kEcMk3vG18WorOw9X/IJzD9c7ub0aTMvlEcMzj0PCIgYbzAaofl90DoHCGQ0cImTWQvwAgdFeyc9ZGeE6cvxpAZoVHAKAAAQ4rgwYjib2jwmAjSKCil9WcRkt3iZBsvT9tv7rluAyC9QgSipiCofuajLRnUSANq+jkviriaTSq8kvM7TIVyGFK5w8mGxxDN5yQL3YXvpC3KFY3j9BjXvq3ORTN+qSA8LoBkGYSlM6wzj0wpD8JfTko9vGcu3y9l4Fh5R9CbOiZr4b4hzlAT5s+DZ8Btpdg4buIn3IIlTayqNbM3eQ+1ilbIJMiyuKBDJ21gKW0QcZyMdNLnJydEqbWdruaK5nwPVGIbj9roqgyJiLdYybsCtKytL8Fl//TUP4x0H5Wv1OgqcNnC278bgeLs+ilgFuOL5zCVd8yQGaVVAwUBqRcGuohG8Nn3WFdF7oUOYG4WGNuf/xlTus3w+pgmrIJuZjPYfCZeQqhNAcnSVIAbSnImp7oy5kkxWzJfF13/0Esf6gzZZP3Ht6UnQJALWs4eiOCDOfuORxdqmRrRwCy8rs0Qw+QmDOtKG25ErxjbLpxPGwPtVef4SpxeZ0Ws7n0NemtxxxxYR9nK2flCojvGHikaFYkzLLBOGQGSKmCdCqVB5ecNGWgndG/gqsqeFuYF0Mf2tSYmS3q5pdZLCyBsGK4xsTJkFWN772DbGHofxtNcrsEJyky3Xqn+Rd3JsxvHzooMgEC1vCUF8IBOP4ExNeFsqCD4gD7X4UK7HnCfMJ8I8Ebsd0V+CEzvgre+Cha7tMfj0Ddc8lVowlNHkfXtbRQUKMDJhpQJsb+ZzVpOc4AsrQhfdG3qBqcr9JDqr4mRLjbNg07UAJYp8r3MYJST/34QMqYAZ+XLXjKrEPftpoEI0ByuQskHDYuXV0N59bjtMhjO3IKtrquf5ZdvPd7F360lVlOrWmU/E47adCLM77ux0KZtOucgh/Lo6eqJ1l9MSQ/BF+beC7lFMSDIPzHATLoy/Md3NXtxRX4vyTCzajJZf4NCENhpNEv8sSMnNOANAl0GfrsF2NWf1UXl5EpmYKASdhBd0SUOUdcwSges7v8raqRQiXhXjTkPRJsLefcAG/NdRiOV+1L2lP/dCBF8/R6GnxemQNXHUZtExRABocvujr4OqVXX+FZzBdZek5mrnoDtIxk6oQRJAkHGIyZFulEg3OjQtB5Ipb2xT3HQO0stkLnNwVsx+dqi5Ki25y8pxYTS/BwuLCe9TO85tGeB033NdzVUvwpegWPYvPBJ8Bic7pyRC67N3JNJzg9Kl+0rzODciNwWlfqr6EdnB4pkn/c3R3eqHUXuSkGvJUPhJh9XBgYBwBxbQNxJeD7DcfJ/L4Gjtos/s4QaoMDTcSxjc6vnQWGq4d0XiiicEl333M9S7EujRIZqzsbHV8fO1vOoy3OA+2r7RmpvpBTDRjvm7/V/fMVl9sbYQFeh4we8bovXLngbOBVgfGOMEby/YDz0meVrYfaBOo9uD/Yd9qn4AajkPv3nG3txhY7A6Iq8vHWEgaQZb4FM2yDRZU66xygjbgUTEu51ibW5s5P/HoL4EPGheYB5+G/s2T8Sq/dH5/+If08uKFbuFx7HhAUskx50xDrYCRRgXYqE1bGClXvff/e9dnr1sfGyeVmwVU1WfvV9zsswlW6JEmSj7J4lJ4mjW94N5O1bS+9WTOJVLkDKFk78UJPZO5xuhgUcF2SYB2VGgjdT5lS0xtnYjjwqhwhP2v7TQOtSp+ZKj65lSqboYowtMItW01Z5klfGJRjuw1InTIxKy4THFR94dRkAf20PPh8FjtyeClQEwNFHNq9FxZYeLWRaaNi8u+BS9SgHPAm1EpIJWbgqUj1qlNr/ZHWeg93k5lz5RK9i/PViclR3PTaAcu7dWBx91yN4OJUQr3KixTCLMq6iuu4kw+25AMkDt89O5PBK+vgpEGJiNE9d53qDMi63w+IpwRhEzdGwmRJx9XjebNM7AQ8nj5xBJ3o53XktofgRdVzzDzKny5GER0g/otNT1lUdT6wEHjyB7/iuttw3x46+7Zx7HmsB6R5H+aziWAhvapiwaxEwcjHtuUQzpiqsg/Ol0aact5b/mMIvRCc2QaYGhHEgiPCttAxDMNBNZzEzV08IYyAo1ESFYNRI4YXjHmuy9ig4Eu/9vKsR8IAAj4bdt94lPsFPv7eV8jQsAVOZkyQZlxgLM5AHUwy7RrH/1TYkLdUDOeMKjZghSg97uv7Wxa+iA2Ch1FPNA/1vMkFLCdoISeHAphMg5If7bdUdaJwQtEkSBAqNJoN0f/nENgTD25SH9wRPRrvCy+xpVX7RJThZWllF2+Vg6QCMz22kDJjCJGu8HKxvS6YFiyibx8EAtMAewuMPnm5hQgicQku6MQ3Io8XHlteziZiktzom30cHZZPcX3OyRYshJx56soW1S2ZUPlSEGYhZrVCnJBUahrzMabp/l2GMQc8mgduGFV6fXolow34mmsxhhqB2Sy/HFrgKowJL2f5GiUJLkc0d8qItZrJwQbtN+5BjK0PqwJix9Mh/avJe/71pCiETpdfJS0oKsNp0HFZf1zKqFfBbZyznr/PhURA1SsdvSn7DMdWHniMVMiZ7VFYdcqHNAKiUI78IKj7j5iHqlcSk65WELzBLftH5Yh+CJP0eklvZ/zaX63WvC80scZ2G4zyFW7Lk13xXBVBW1tfkfnNhzzd8wW71VLuUqSwjGTIA2Il6CKz7c52HjTfo0F9c7/wjfkdQ8JzqTOGp7VXi0htGk2tgien7pjosogEaAEQy8vzYR/ACmkF+nNxBtfAUbRG+aBQ2e3Zi3DXrpCDoQdbQ7obdbBvmoMT/wXGG6xPgDe0p/6et08g+32k91wFGXpOXfQKV8mBRVt57Od7hjSIUlzJnhbZ0w1K9DUuF/v9O0HZVNUUea1pbDFSp+++PZqsHRBa6YYL8SGbn6M21ktHyf46DYZn4b8Sdz0lk2V2ueP0ymJjcZVqS1v4gtwZDECnGx+/+CXUw81ejskihA3kLwK00eTV9ERz4OZE4ALqiuE07Pgdq+PZY7lZjgwn0sbqFtFRAg0B2w0Kjn2sK2+9cStfN/qdRrA5n0d//9U0o0+w6Ds/jIO5sIRMS4cGvU6B6MhTrMqq5tOYVDSUmu5OTzKT2yyC9g8+JmHd5vQqETP3kUltF8ZTY0x5Ki6lUcCTMDhonrzLR72cdwJPI5v4/bvoV13JSGIxhOoa+KismP+XCRZ0hLJ2uMw1/16u9dbqL/CCXO9meSEhCMxdMcsRRdr51eiBf4eCmWhR9p+wEul+VJQ9Ph83x2rtd9AvBlnJZ6POEpeN1fMjgKkGoRhw3chKRnzkxfhsEYeXRqLkGGI5slvHjFcnlNN8NlMjbgApJG/aG4uekP9LyT79yQYm9Zr3SaVIgw+knCaqcnz7Agn/uMm+tsuEC9ivAfRQEFWGwq26dubRWzBNlmFLBvy4kMerEm0ChtbWlPbWG5BuC/ab/vFd43ADNM1WkQ9hcADKwTfvNU8dPW+DlvWBTUF7CyquvqylF7hlWQDtZHWd3DSujQvzll2SbnWi2p2CQlmjGCf4zPkmSUBYKhN3g40+s19z1L7BxGkZKiB4LR0ZmjXQ4mWjhrGZNV62321gEQBkpC5rW9QBwWkbziiKauKpLdxAavZAX5i95mnxE+KCcKuiHkYG4JPHyvcFNVF3rZCKn25DiDG3B96GH0sX9ydCkO+Y9WQwrN1Se0eFmc36bou5CaSvk9A2E00xGrQLohic/5SueT1fwUyuao0vIQ20mK6cU64jxlsQiFTyBELOdwf+fBby+kO5Cppf59/+Ws+HhFrh5y6+Ze9N6mRkzWc3PpXWO259dtmyx5DCSFCOwU1OoYG7bmHRNYoWO93bX8B03DTMb2UvpSJWuqWKtolLLurZXcJGyY1aKffBXIBDF6Zq3usHq2e7YkqopW+bOq9kC2BJspg/N0WmPhUanqBq/pbivWoGSkI1cPtxiPILWwU0thMe0s1naUtFqXDH0zuBX2OxDN5k2QBYcCJpOfN3BJuACgrtsYQbmswKnaHXvAG3MmAUx5qzJqVAqb7b+VNpvTxZknhUbmQLuBcCPFNQqYDLBpliWLfezoun/+GiAAYKU8OEHiZjYB3tHIpq+O8jmLqMU92/vozI52WQ37qUO+5E2m60l4uTiSQDGHoJ4Z//RWjl18coajaeD4PapGtoe/7Xb4yfqMrZBgGfhTGQgS9uBgvPqcxUm74l4w/X/AVqN8JqZptMgZjwO4a4NRwCL1Dt50UufVOwaQCl5yOIsb4iV2IYUayH0IawszvB1FM/HEerYh07HzjJFHFiSOUgNNtr4XdjumA1B9svRezfAkZ/yw/p5/eLCLyeIY4F/NT3xh2KuQX1IPRYuzZJZn1uu2uWgpdl4b9ALhvbKdk8tBp2muSiW4ZREkjtsfS0qj72ZRCmZCJvIA5j1E7b0wlXKwXx6kiLpCT86TlL+F667O+TOERnMqUa8BJCbLxcL1A5+V5mwam+qAYhciGGJhQbYwvjiATM3WfOHyyCuiRhj/83Q4/pZRKnnYtkecuN5fi6s7ECvuzPORFpSRUiASPW/dp8PXKO1ntzKC9FL3MQGLkDQORLfVBvsV3jWEjFni1Vwnm0mM/mSrtkYMQLRWS9qgO5gZsjMbagQpLaonxnhu8WYdqGog5wj/A1MegvnBld5SL3jF51iOqaekOaUlmy3cdfedbilfgsmRChYa6QKODHVGuyAx4SqFFjXLLnhFO/YAzNAYnY666UycOohThXMTr/QieP0GcuTjMxDYnDUu1rWm13EvFUTUTFgHBQ+sPo3ocTYw7FbqW89hWu6A2ZQXaOxli9K75P9UsHV0ryjLjedMDkaRTpaZGN7KSrpO3+2gTbhdA2kyKzYtXRP0nkYM8jVTwfKzi/g3peZi/lgUdeKV2mQ8blRhgXeW8IgMwAQjJ3Z6CmfAXuKOjDtic8N+1bbqXIbCUv4GFvzgACDaFuh+e2IbscwdnXmIYIZX5PrQj+bJ3XFap1x4cnzDc9StButeUUN11D2J2AtX9j0r4HXNIdA/cnEYp0seZMNHsO2VMqdTXMJxn/i+5zkYzElFVolp8vri0fatEIGwIhCdMOjL95132dsqMrDhAGxEdTCG/qxN6gtb9y5C9NUXaQ6spSk2FVuOk4L3cgK61Wad54u9YtIzJJVpfSg2qJbao00AF4sEmcHgYxmW6JPAJ6/9/ugvWO3YgvQ0Rt9gvR+Hq/HgiAeWpbrAg27NaRVjQ4PbcQMDSiKQrPwVxANvzYNkcY5+dWwRq0U4MwhU1WYIMMnKHq6klnkksDnMs+UX+PZoKV+FEDyBT7nli6xKOVswTSujj9xR0nLltCrddlWGZ+u+yaHu0T/mnNfHntix1ji9ZtL9i/vM7r53sYhm55vYNeN6q7KaXcC0NbkA9PJy8PWFo2uafjobIoG2AC6a6R2RprlbZhEYGoYZrjZ6kycA5McQSHQ2g76Y1kqh+TG7lSv1BBGadETFXRsoi5uBQXO6krFQbzmXumdQE43YeNMUyhlwvZWZVcWPOwmlNrxYiiPVe5iJ8m3aNiieBf8pixM5N0LAurtTWOHdUaKrRpmelWMpRXeC6HujyQYLVZu5tJeXxiH70n3W1zSS+1JfwN2CKgXLS4Vr8fMUq7cADrm2OxyYlrT24PnAcEHyeFvlyTsLiNgzTM6cPPZKB5xRbhrO1Qwtix7rgfuCudlEHXd0f5tK8wpP4gR0XR2QjikMdHepL1osJTKeAAbmgBUjkq0viLmE38VWKkr7vXT/gWt4i0XWL7a9lIXf4JkTG3RfLdmo7UW2HGjNEqMy5DdBaYlwRQydrYFRg09up5GlbgNVkdXxVCbPSmxCgLIIAxfQP8sWC+x6a+MZtbWTBaUWoOuVpX/5PZiVRXaXGXN/HW0Mx02KKx6CAVNkss1jWySJPgy0+Uo2W5tMfBsiY56euOZ/3YxKFeubZmleMBJuD3osSet6cpBi8TDcRA8Nil1tr8fIvg0vwLmoLX/doCKghzr+EpkSfKs9aCav0QO45IZTMB9TPHUKunnWMlAPlukBbwP99/JTvORNMr6DJe/Cinig2p0QDcmmhOpMaGYDNA2Q+qw2Ho7lxiUfY4curs2Pt/ytIROOO6HvMGtJldzhNhGcXaJxh7IQjossb3YNwaceHPdEmwElG4d1ZreyTe7I+u0WectjOAM1F6R34JKubBeFbVjn7uJ5KYrwBOJ8IHDN8s0nb9WVHC7EdizFTZFr/LNO+ZTT8RTARRTneWwM5b/dTSvxY5Ri8gwv8ncvQRHyZSxrINtDJLCXG/vU1VTpSq7ABFN/v4pUi5HVYEWWxfetkbSxzj3RJ5U0vvEiPJPOBCG6Mn55jT54j40mR24wz8zdztPzMrZlpWegrn6NbZ3HScHW63O9pl8AVO9ACwc76qI/DnR4m7xFC2WvV386oY1k56fmHUOxHcHPkbZsuGcOpj/iswzz7EAylkcNUjgs7lWXlL7DS5n53CFgr2R/Hep8qiNmIp72GsTATDUvk1Zdj/JCGNgmfwesnZ9AsoHA+rJVsUEwUJor2eMyz/HA7NSzjmR9xK3R+tbqzrlPWafziTvM87d3SGMLYrRlNCveKQLo94HCXRwOpuoTOxniCu9eupuJBwPJDf/IFpURHgX7mHZpk4Su6Vtenu5hMo+T1R/g0zRj+2py+dt2xjrGwTl94xPG3Ea0rjDUp1qV34ILSP7XNwLYUYlLlzFHBN7dRqe+dpD1mYRK1Uh/ecS1TkC6Mp2MLRmBSKIwG5CI8/bPiU3I+bK8VP8y5UATPlkFgxlKIeEhzZDu9yopKJyKAHVctcroXHaK6qdUZ9XC7wGgNEEEbCp0Pu0+VT30yD1GDt7f3OSTurTvTeh73kgHMVI8RHM2/GsMNZ61ZXuvl0u+iy4RSUDPwASTp08hhD7Iwbr+EJQSvYWeKrWo0cX6qzfQ6juGmLdV+esbJDKeeGbhoNgXXLHEkIIKLOa+7qqmNgQwrFBz3Ni2HCoSquzYWpsKAbW5OR3777bqC1duACFxg6cyW6IzyHz/1ydU/dx32oC5S2V+WY86XuIwdG1zHw3ffnUVlCiwFo4u8besNn/qBE7uvq2+Wovb+DRIct5aTF5q6jxQgBFf0r1/n/lVnKkRnTYo6fI3EBItSFaRgvKlFfRxovSUUny2StG8ERoZ5ZvI9d6Brvsj59i+e0xcfjcqx74Os0tJ9nEZb+hbh1F0UsoQInQY1xsnIKpuJKzbKRSHjR5g5ijbby8M907egUhMgSiGNdLFVWKDxyEJjAnfXiA16YZCCv2eOJ4E6R3Nz7pO4bC98Pkfs7UgGYJ3FuSSHAdVXbvYzY6K8HT9YVXMAvqdaOdfQobnPi0q4Yrnjly2tFXS8Ozs4FUcjW9xfwQQz+RwXmME1OWYuGS6Js8qOeEtHhmw/F9WXZi+jh9cFvj33TwwpGeXWiC9zcIg+x53lOgX91ADp0+zlHTfg2o+ITf6osUqfWf9fqfi+g6U2veL0jNxyOdZPy4d5my/5c8lmwiCDKyr6uyG02uVdQuMmLyuFWb5aPMWt7lKCWWNaRSyviUAFNu72Umjtq/V2d9zrn2K8Ju/y2HdSf3Q94Y1G2jd21sjR7Gm+JfDzIXZ38uAZTNK+DRzPFodfmujevZNmlH81W2P2Cw0iw4EQ+lgOK1pbqvOxybQLNFdXylfIJqQeG1CvsIvysHTlvj/LuFYd2fMaTolYyj2k0DmoLjqJyXBusH466ZTnOVFK/vjTk/5WqMylOWxWnwWXcJugqkQCukZMJu8B6xknQABwbX2htD0YI+3v6+hSAe7sIlWsoFk1Xz1uk09LWxjRsafBuNvZNqDal+7HKWeklN2rAkJrGazk5G7UP/7TdVhVTHoKuasBn8D76Jffbzwu9uIpYZBFoNF1RJlOxeTdHfhP1VRKs6mqoRvggZY07fhlhk1/6mcxD0R1r/6HHdw0lIVIVNn69YEKJ2GYt9337UtGE5tRtWyDPc8x7+cRdSKrqD9Aji9RBSNsoaSDcYU4IlthrIAFBhZT/jvttqh0J8Bdd5VDsKEeyxB+weT6BB5pRZepyGlYAZpCGsLkQ8Jvny1B5diBBVNxISIvlhAzKeqarr3DOqVohJBBJL3eNVdlpx1Lf5XI+9NWJm/FmHQnz0zAozJclT3NH2Vzv8lRL926y6WVTS4SZ2NRB6xR+aRCthcb0/LFoDL24+h2MiUh4YaLyDOZAQlqQlq56jBLyyaMAHuyMQUNDiaPUiwadBPMxIqHklNNilYuKkYVahkgITDTSp4xLT1qywJ/MDyxpj8Q0Fxt8p8aNRqMMA7kNmjzh1qG+HobjzycybZGl6pvs7ah7OE6szSZAQUQqw+JW1DOrFaErDfZtdjb/fc4BUKg4Z1VC0D8TtvzhBEhC3+wNfksa1QwKDgQwgKCO/a2EDAyArEDVYKi77sl+3/Av6YZgSWVDOnO1ZGeBvcq1FbWaVcR0Ci7sGQuxwe2rD5d7QkVjRniV1lazTWMMVwbf6rOzOoejpUhg6o5CXnzg8zw1HUORimC1tFbbT69EVY6TIU6eWYtCU6PRimABKLQwc36SfBGaTpk110VTooygg2RoAwVoJoRbT9+luRks4LjcsZZQW90BJnr2qkmBqF/pYOrhlftmKf65KTcH4h/hTyvgTGjz9jCi0DD3nluGeZKJDj2mfcUGaYsJqfvmUnovtgMnRu7wDgXrJQqEogtAgATVS9RK+sI31katxJufD2HFbxVwlZVh7vazIEQHaqjaziFHONVSIqVDLTq7zyiXvtwPpZInHxu2AqahOCGd7+lhs0jyDA9VtMGtwR8ABG/amCdq54BsIyv1nYZS4a/6Q/mZ+KLhxxoww2F7bYuIsayaOUoaa77dnLa+HM+4tOe27pQ3gHwIqjtFszojXiJ+DL6nxxqv2lbuqDTk7VVc7oHpcTiUfPFD9hJuZ+PqO1j+WZn+pWfktc5W7FlBdOP71ckoF9HFP2Z6DSWD4ML7jV4W/hzo0VK8VvzkyMgJV3rChMdTbmsdfVQUpE5oSKcebPgME0KpLJJ6Nq5rTngq1mcfYSq9Gl1nTWJoQQBvzwLdq25jzy8ULqYYOgCiF4e5/2N5xZC2n71bhxB+THQTGm4gQy03VNYV77aHA5fhICDb5jppFk7BT4zjj21YjbTpVXw2dk3eTZMsF8pwvDqnN18cyHwcVTpglO1Z5XaS3b8SxQHcYWG/3sUAFITrgrXHc/YjvoOZaT1HgcpkAG2qAkNX12gdtraQn0HBD0gc+D2lty0q3mQ24HePrIujKM0CvXCnVwSB09Ihz9nI0PnR5QwOINH+/IxdwTDBNWkaKuz9C2VtxN+AesAGgXcvAt2BjmX60utFkxcl5y5QTkuOJnsomGgt3+/KDe83ddJK39+eTL+IeF+2FGEwr+5W+tUSFNT8MOAciUJ10x/y4AEgR7Dc4Udkbs9JIXWkcriwqV6Tpn0FkeMjBgsW6S20jCoHVrtyftC+B5reZpk+4RIJYr3e5ldVzm1SKBsYvR1cXyQ9eNm7jKc4FjwWMGf3j5873j064ZqyDzKhqb9uqWge6LcWBwvGHVLrjwnnTcHqC6D4z7j28Er/uJ9jagsQRszAfAoakJWRNNf9bi3Mroo82Lj4k3GrS66d9aTOMfRS5qkO1snbzV6vNyXNs5kLkC2FS84DOdr4K7gAIYSW4QgBuBxGLSrTlotyE2PRL6IRShCHB5Lve3kdsEzkjIAqnwRnWHoT/LK1LC6iHo74lvZbk7OKpi8xrHEzXARCDvWmjVAHS6HSg5GUuxlDWfE/1nIAjro8hsBt+UKbGI0Z/qzVT+UzTmzR1S1/Y3yt+lst++d+fGcokD998H/BQZ/qagnASRplbqpfFOn46tBeMqXKxnYq1XU0fejRGqb+LVLyFfeVcAVzH6HI7zp6ACe/Ks/UY2yEh5V4VU14qQ/W7Dy/V090qwCPTY3KoG6Qpj0xpTaXDp4XMiPVw4/8nLRbWHQmo4MfBvehkFHTPTtH3T2Fzd2XWNGNFqMSb4QLgAf9HdeNwRX/WF0Cqm+DXXyInw8mrzlDs2azBXrKep18gUJWr20iHT/Ju41d0K/taXZZnEd2FstB5TOiZRtqqTGS0Ma+7mUBxjGngj4NcRndPZt9m7z21nt0CVzcyMhbwry39qfoB4FpfvUh4PkrWkXtZaQHH9RYlu65FXdnCRA00066OHdX81a+2mLWVTNydV2mrhhEmSr8GgwAGoTKPdikuf1hxeXpCxQ6SJUTBTSHuXh8bABwam9ZQMp7NYhi2OVJxoPTVeB63B00lEb0+H4bYECJzeqfJYkRe90ydEAFJQkUK50R7o58RJpDlxTp0n0GdAGomutITAN9n0D3ecf4sM2flhVbVrFiPFkU0uBb4FB6XIw9Oy0LWpqrSlOh4623P1Tz1iRBd4GO8Kb5RdW2E2XZOL4qaFJuAr78A3W9PyuqsQPk+tKzS9BW4iBmcZAXBem4mUJF41H1A5vRJsAkwFcsix27AsfRcMc//jKt4Ghmj8ZpwVtgDtULzFPcVOVkTgBbkYIYy3iXk76FQq0zVfyRfvU9oc4qHPUtKhTzChE4+yQqHAB/wmiW5c5qDtDGWja0ARI0rn39kxjOj6oeXrsTs0fEGchRaFoDF1/PwRnYJ7daYfcfKNjROiRZQ/jl6TwmGuBTPq11sfsv19mt2hZf8XdCVekEQOGLwbCkNmPHy/aDjlD4axF/jzQZUeAoK8/YzKQlT0xo16C0fvREMqblEOAkkP0zKoY4FFgDelx2Dkb+pP0oPn94ph5YFw7jApsJPpjmb/xEeDm8RaKPem9fbNfWfNTBPMnwj4YjG+fTnne3muo7Cd6P3iFgM9EuPRkiVMXqUj+KR+WJ7Wai4JE7lLwcsCrK3raR+n5m5bSX9MA1ciujmNcbS/xE830Q5osdN9fTTitHuDVSgw3rgdlreIUZXSZs1Vb1eoDmF0dAl/tIAgoCn36g0HAknC9g5/comGDj5J902rHwzeKXXc9dOLn/G+62TA7Yvit12ZelFFVME2ENu05cNNQ8We6biKmewQ+o8Pd+ngNUTtyd3+eDBabQsztRm8zxt6zjipBfP+gLrlkOXlBKGQOmD/2skWvq88WnXyozIx1NYsiPs4a1lAiYoSJe6m8r6mhWvhf8G+19leyPV0/PWqz//ShFWGXHf9bE133lOS8BmSJYINOep1nbzOu49ENrDDpkA5whfwWuH77rByN0HXZIRw9PC80L3zT83HWk+BK8ATchzF2PuZp3Bju9VzZC5O2xQcJwTV+zxCRFioomVu64ojzUAZg/VSTQPNM9EY/7ZzR0wdg0rT5pXAXB5ne9IUlB3PhlcnVpkhBs1K4cQzcjn1dZosl58CTLBGYa9W1ZstVEC0pD32qmNsdlZj63xCSI5LrNbwVdgKpfedlcYJUyQkyWfaJc+WEQwJfCYFgvIVwqpsnjO5WCjG5U2r0kcf8qS4HqPuMtuz7Zt1dDWTQXDWXQsNmcxQEYG32nQ5rm2nZPP7iupw12mdcc03/cKmTS/4kflxzlTbGxiIMXVn8SC3f6z7qhxT9SFx5gmvIgTxhFSt3k2aglOpUrVskBDftDQ+hsN2HdUZoaCeBomphU3bzPc7SOpxN85g8WVUnEFThsN29loqW+bmpESw//KDj32mOUx+FazTLn3AE+XwoyQADPkcjxvmYHO5kHjWcVALP2rQljZD21op1TxRzwOB+NNChewTO4UJsCJe2C18J/YaYAgdt93tcBdLNai6k8yWUSkpPcxbatoHcNWwPaLpFT428bj4eSxaP/N0ClXinX5B6xXk2z2ncxLcL9kmGDpXP5ggk8O8STCVBxQQdKJQTigLwRhhtroqcRq1It06ZGChSbLcOxGcfFJozW7s6b+hL3WAzqk+a/gNIyrd+8nSyCuuv4O3x5qK6ZeqhtDncBOcsR8+p8SEQL+7uuSRTdPGAdwG6g80m/LYYJKQltKy/xALvaxoYspNfyKAMnB/IpD2UlDFLjTqDAnAZBai6dChYaH2I9TE5tJFrzOgK7xmplmiUVaareatUbP4er3RURyMhwzdNGGboAKwfxNIqnCtotY9yDlpCjkIj1jZZSkmODad5peh3FYyjz03OxxhEFbbrhITbLNHg90QmZiOidNwxJ1gE97it1+yCrAwx5eB+luDvkgMdIjoKf4NNUQxVoCq2bhwikP/Wu+VIwdVPCyQuE407N3rEePGn3fsnJOtItUjrKkXa4C+JIP13OIJ+zbZnEVSx9UdrOoFctiscSrUTJpX3w1KD03yLqyxBougIhGALv8V0OiYs3QKTenwxC44MGGsYWYzyR/sG1SZHbPfzwKC9gQud0xvE+7CT5qsHRq0sI6LKf3/UVaFw6FW0wcae+SmlHptAFZnFtqF9btlJVt7/aoJn7x/uijpiUlN1Mq02+1CDZfEcbv+ZFNSExOS4jYGvNd3+9WSbWqQqLM99YIf/zSS1WghVsy2b9tXXEPHQN9wGd+AYhSxJbanwweZWsPbw/hRm8+8ZNcklvoRw2r0sSiC5f7q/CtyjPtW1jmnn9T+srLTfXJWk6j4t5IePIBMvUKwAratSiHJiIDf+1gKFp3Q/3pKXdjsvBZxmw7ERXnpN0nOsDLZFTxasocSkrqsMDt+tCo07nAIrUxJtRov1go5iR5YqmPMvQrhS/97MqbFJLtrUiqGe2CfMIUlN3LSa9nXSH6GS7X8Dw2FuKCCGXU2wqBqD3YQKNPDxDL+oitHqiz/GDt+9r/SRvjq0go74D60Iz+W9iwtAI+nCP5PHdXBK7I8gKITsbA1NEBW0GrwhlpsfVckXo19J2Sx/1um+tqXAyeC68jpQa4soyU1Yeisf9dAkqKaAptXEXPlZHlICp7wAS3+fkf6+u3ABUU5g+W11sS/3+SB0HgQAj4xq+4mTcg0eLYM3Wo3rU7sG+s+STIc14ksZaUXwvdv71n0eCxXRjAgF06bH8r2O+im73La9qchKHD4lzvnGBpWT7rT3QUcodTC6ipbtR2JUvCalEOlOx7/N1EvmEshfB4E5fpje0Mx4JYwPBTwP1rAIGc86gCNUqfD6uIwKw68bY8orFy2aYqziXg4izkH3vWkJzZjAeyQGm1xQ2gBNhdO8JTC0wv+LxmGVzJPQ99hzRQ3hIb42KKaJt3uNjgnKiaxCU57dexBWIEARYZXqTEdP21WvXTGaAhG60a5kieV0QqBxJ8OkVMAn+Fyrz7ByuJc0Q6LlXnOBQ/TvXVuuL/rfkZJ+t30zYDPljJhkXNhJ71QVsBOmMbA2s3wRNMvXYhB8Is5jgZm1RpTJfkX+F7cBFCzH+ZmT3CbYZiElilfkAeCAFCy1AGwkGyRZeYDlqsHmBKGce+tws0j6kIubfx6sj+qZKkSFlt3WYn2R61bGXUn1+c5MBsOR+l498/ccFnEDiReiIvqgbWMUR7dHVtV3N43CJLWLpYIhLpJWmvHhMIIvrKq0RH+TgT7ccYFqaiYgNxweRwroeorjb4uLQoCk/P8G3PceEiqV/J32mc/4062e+r1oReMw4/VS9Ixju9NKiNcXWvqC4YiP5gSSGX699EdVMx694JGZKRJdYAyyruaFl0QACsEqvis1xsH1Q+DlH1TsmjmMHLJaQ/xl++CveO9YYKPfn6FoTR1SaC+yRQYqVDry+4++sT+b4ZGV/N8Jvbe1/OvN2PI3V5w2P5Ugp7Nv0Gvmko3vBjRQeKM9Qa5uJ5dX0rCMaXPPZC6HgMSmaAnoAQNxNlj0zLDG15zUPpivv9XdhnrbtkWpiu5a1dfaG5AV7JeKQ/CSEubOUQdIPqe1PdyxCRTTCX5h2j6b3OKkX7IhPPYeMyIAyPZtCOIxV0hIjJrf+OUM2SIBlsNvwVNRlUa8elI13sN+yCUVXzbWQczoGmbnkNCzj168AQMk7+Qbe6i9zKHfvT6BahWw1qGjkBV3yLLLGQPZOHLAsWHoIWQ7RfTGBi4sE8jUd89lXhsLT9JYeRDj8znmld3ASkrwCJU1l90IeCK68yBFb2UIxfOsFnqMgh6QZg8klmYmN1Hrkj/Kwi94lP1KajqSIilzyS9ik4QZgywxnWdASLjSqBHvuq5jL/mwA5YWTlhdHAoLPk9IWNtxvaZlUpew/k6Bjkms1VbrJXyaTbghWYDEUjox0JCAeAA9WRt57+Lob5L1wndcNehfB//M4v2SPoi/1sdZczhQSUycUJwqPFJdGVrGvOdPMmNVk+G0nwa18nu3KSDY4VxS7ldh3vCAtgVNqLOIL2Yh0oZWFHBYN+CpgTuemIXWXMIdxxcrupugaG0kEaUVls3oUXpBw3r1Obd+UgJz1W8UCN/tak5NnJIA6liOPGV7zybsyIN4+TX2nyvgcsMZtlnksPBm5TFSI0Sfu0cbM7/RVd5WQou1WcGu3gqENm3AYtvdJlSscpiQUK1YZSfTPCKKxa6+B+ew8H9/68Kbcfz0u0MsCfajyP4M23EODJw+QAHOF3vFNae81x0G74q+P+6zqIQge1QKkpbVRgqLSQn5CyupA7Y8x8KBsNfDs6mJ6YA5K2KZQu3Xmiludvf7dfxiFTCwDea6aRCgypkI4/7bhLwD3wcJrA+T4tDj3BV4XhHXqINrxWgD2yXb0zCjOBMMN//abK9FAWPAySu1W3wnymvYKsNxSfMjfxtrIAduMQlBbWhW2bc+dIQO+4zkf3URMGeIOxNQMIMLygsprDitZtVJayAr3wtd1+oVPTfKEGKnKQZxbQrdPZ99+6oljyK8N2kKnhn/caYkid7DhNK37nFd5vrtIve3K5HazUBcbmpnvBW4Z5ZfSBvekXgmgJ7az3LuAdu/kzQZoA9PUAk3Fg1LBRjpJ/VQxrf2B1A2aW8NLqk/eHil0ums+fiR3wm7I/k2e0nkqWqLA/O3R3Ysvpu13DazSniSfjOrubAHBzx/yz4b+gY+oTlg9qBbhVvHRZNIwTYHiKq5FPvyMzA1nFEU1aW8NXhQRSroz4YlX3YaCRxX8ADsMJ5tTd3rCuYorTPCNRdTVza64JfdAjIHWEVuLooBXdd5QEhWgS8h7DYxdBDpU56q8e4QIvObSJY8mcB6TBvdQHpvmjyW8d0G+E/EcyNJaPj3dCJzd18MTXMRAHrAj2DLOWV14h0mdVd6fFxG9+twuh/NClbsstWRkiSuIM+70qpOgaMqf55nPUMiX9NNkNCAcZghVVJJLfNaDnlVBne4t6F3sSI+6FfZxuV8/+iiQXD8ngGd9EPe57iRWZktdZVRrkv4BXA6m32asJPPI/m2v+jd1uwiZ+DXssgiDYRlNg0K60GqhA2UkS6RI8JGAKFGmGcfdaA6Mdpy4U1LclSDsyLRG4KpjJxtwol7XH7D+I7Esbm9G1XdOFgmLJ5IS0qKYRlejPMtsMdBtqWOCXceopWZfF50n0bhEmNYUTzLqsvB3DPQQqVdk03fg2JpDnQewMqmhFtCna/4AaalUr8KZkU4T24V+oyuyz6x/0JRXpXC+vB38kfWhPUL2scO3LkWVwRtm/+Rc0ddZ9GMf3CQ1zbM12BwoufEdK/7Ix3R0kPjvUjv2wQanZxO/IMrnDL3UkZoCW5cEzPEnZebBsZbFXKBhfIdkSWMnZY83Q2NhenWcR/pJbkArqC9TjAPOb6kXwBdzbNk75ar0S75ALVqvya1YLVdxhyq0INpjjsJYiBM/weNM5v7vJ3YZRBBMkZ6jDMujlgl3jfYE79d+RN4sUk99W/JdSNvk0APrXph2zMSPKy8KhsoC2Ob5nXxxWlcjE4um7Kxdlgfo9VhMQjq5EQb1PO+j7yclLYFlAf3fXtU4XVl3fP+Vyfk90biR8dPi3D81lX//VHwN2pRTs35Xj8fwYOfdY6Hho48tFbK3aoQQ7ORxkA32L8QK5qN5rmFmVH14OifxgB7ShDr95jblYD2mFlfDk8s+Ui24h77rrQ+oJN5oSmG11Tp1fdak2ChLyKEDZHem+HUNMCQ3ueHXCnGiyla4nvAfRRJvW7UQziAUemckI+9QSD9KLPIVd6wPUsFTnGBlL3Xus5c/oC/VJ2vO+ODLiktg/0MpEUx4OApZsRHhNYniGOF0U0N3dCy77MnqIzKM5nP4yMBqlESHPK3+bB1D4I6d2dCUL9WhfQyZfBX+hVHLIy9dQElAG2PwdgRbLdxNJ1B+8cjUtWuNO5+Mv05PDmYmqMdKVI/y8kAKMBeI9PvIqckJWhps5//bsFs9HHzJ1b2k4Zado99/CJXuDcSBr7IByPLpBcc+rYvl5tlasOpxBFVE5/N/zNr04f6VtTpijYBt/O0lxsJgFSUMNeEZZ7cgpDXnacr0ZPFPb2b0ybpj+MNU9RWOY95Rw1Ec+msal0Hp4dDwXwxVUW+Q4T7k1C3VG8SeaQlTmrBnmyV1QZvUAWYt+BBRlxhv7g3Qi4mvw1SqCOCAQZZicYVXIyPOhKnA2oAMZpNhRhV5DYxjOACCzBdxYro+RofbwhsmZcxIZKuVRhDDjRres+mDMOJ6/fjIzlupaIWLf+ZuP7+wveZuCwmITnoSEu0sX8ayT2axPAwd72R0YnpCWMXZsV+KHurt77VYm671wTwjO+zFuE8ZFS2nSvt3Gjxk84JAIXu4HDxMXvIV4I+a2TmDaWlcN840H5yqNySTVJSrYVYJHsh1kZ4sOtmPiguFUvkAggQodiBE9qpccvFY5VNrbCDvF1bxWGqkPuv2ynXWELLWvkFHomfwX0lolRjjhXdm9onXPwlzAQE/YG1IytUBdHY3WLd3F0NrCAjOSUs4En/83E6MfphGhtkrSbsbKljhoNHzb+svdKH4YvCUFMVCGmLanmn23+uIhPrbHbR/wZ+WbdAOJk8KAl/y9kLl1L0nlivUhyMQW418MpyBT1ExmrklYssyeloS557ZLxCQIh5FnT8aFBoYnFDkHapGc7mkjYiPl1ZkebrWdwKjJPgunhpBhDm+KYigjg2xAr0kM6pPQON0NS7luHDsLlJhJqRo21eyF+YBgLONVb0SnU+6G+D83xLWjkuUkn/v/lZyr7DaoY9Kt2QWj/6L0KakBPcvrK9CNDYAWPPOSM8+hZgUOE9HpIX7ngcKXqdquWx8UKstswB+QHkeg1qAlGGCFStg39rOQRcOHcFAKPQopNzgTSRYMHZSK+2KY/9ojDPn2r/yd3GFoneAAbAivyXR8B4WlS6XcZhnSX4Lo1e6TQvyvwn0gbxUWGbBQinwe59KpR9RUc2GRMk8VAGaZkydp07/q0TYdM6+fbwsPdzEeGpsp5gZTN3M1URo1sdK/IA1v932sbT3lcKvb0smhnUrsjtItROM5qM28qLqL4sFbG/G+XkvUlfKyPxrrhI4YF90VUuJzh5jw/zlB6ye4IF46INmGVVDgVCH4nSomnzHVjcGBTZGKkqttDwjsEc+gOFtddGcydmOmCBo+uzLQuTupGMu/2nYk8r1Gcihi/PbHPyehbd9hi6uwTisC1Fpg7SuanNdegkpR01qriJlMRQm1W3pXu2uuZNIYsC2Yiwm1+zqeRyu9HOWT3UFvF6RMYb73bRcka/SK3Fs7JkzovoeuEYSTQRB+HaKbJVolfFXMx69kC5FrRBMCYSJqspzeKNePHxNmmjWI6pZEqJ92WFUnUqLLTS7HHHFbhnEi+SlHkGI5jtrFzYcfXnQZidLwvjFk6VNThMLdK/6Ild+RCMt3XyXNY5JmKRJXtPUnzNEb6CCmNpkkblhIIEH8gnTcVj2M0ZArtCVlTteLnx3ZJdesmXsV+h4+2i/gTQA1AMF8p9Y3xB2kpG8/7UWL+cp36fBDtXtXRIAP/UnVjz9OOgx2E0VbzjmOQIEsbTw9/XytP3q38smLZQK/O+qcSq/E22wPH86yqhYeMcI6ddZoUJpZ9mPgCHlRNxzdzJVEvG56SAcJLoAe7fv58FYw0upILmMAKsGe+8p5dIyrIgkNbYkLoLCeyOJPEzhwXGsx8QprX5xJ6HsE0LiyjEp0IGNd4YN+as+u0knPfWE+WD1HHkEmLKGnljdjhOTQC76e8dwctuVwSd/BEauQl9JuiveX6IxVDMM0TqQ/IcJ9+tgIZxzFfjpcLTUTtp6c6aNHU2K7ac8Tn1/y5H5lCcDm8KwMuIhypFQj575fiOXEC32cAlhE/0bHlhZYjRui8ZwKbBNvQVJ1HLAe6zGAmNWvHo0rNgCmB0GuyM97afjUsqpAsgrVuauzS7feb00NcGiqWE3z1FVLRemeXvYRsXb3SULu7sswbMnKpmq5SYxjyeQGDcJRQxAuoqMAc7vsaEXPeDnaVUISQBAgyaHe+WBh1T/gEdUgG4uvU8TwvlfEQcTG+enlDKtAYNlRdc/39v16NMuvNAVsbwrSsLfSKc3qKr8q9GWfVoh//98AczmZ0UnuCv7ft3wpTOlHYFB8BsUt5POSzmYpKZH+fyDpmwLoUyBN3nSlCaZE8rZTi0cUrF6/wWtvwZuKFpv+3bIdOE9TPWf/eq8fMAhgTVWSIzutHw1WOmNm0oCPhy6wV3ou12/EEgqsW1NPnFZGKvyVvc6QV6UIbAfvOhxK+TiGj+zrTYtfCMzyqJiFLSassQvvGJChu0Mffd0yI3wEwehauGCSEJcfwywQ9KkQWtNx++dCahUPbszN9qLM3pz+Wz5U5OC7zbv3Shoc2NztgmdaJ08b3fbw3AwFhzioYh0LuklcWc+olQSb5fz8z7izeIsxoOCa3yK6c799LGAWErZR66OmtIYwmjjjdD1JK/2pSiF0/hROw7OkU9rxvB6j9aa6t8zgoQGcV1yawHM1QWv/5M+Pa6uOydmkIhle6WuVAUUjO+KjZS97VXesh3QTcmG9g99M9IM0llMAuAoeLFgsj0y4tonqoOlH6voslepz56VazbdsCLHi8WMl0mdXGVakYHNJysS0Ejc+hmoupS0SkV91eXMxCe17ylFpDUFrC/XW38PHeIBCSLnRnhmn2YAMf9JLBoIskGqFBmqvyLk7AOXRV9YdvxZquPJTbtslU4U4J1Q7EutQn31d1brUnRMB48N1QhtasxtidTdstP7kdlLgUfx9bOJ8ISzyS9U1NqI2HgQ3W5K5Srif93SIxDgTe+vPtcEkOloWQj3rqCVeyRaD7j+fKuI1fICA8SfGeYSJTD9hWcDMA0WrWgBIBhGQpRW/rVgzkmqbXUgyc8N7Iv2/cpabh+UDh242CDAqfWe1fbzSzpxAmnJUOM7R9nxgj2gIpl4gwr475OQCU0+Qs2MPOGKaMEg9C5/Yi9W1JrzUfCTHw06kkVY3jOdlnnKzQ0Mo2mJbS+ES6NoNvfaKjTd38tL9XA5hop/NwYiMrTgvMkAZfvqBMx1QXpBVKKDqpQUNeVxNmtHyNUzGJrROHodyIIIcBH8SA+dJEzr/A4AwkA8bkAUVWdBHway0vHkeca2S+eHF+2t6kG8Dn8NxuouCnUG0zngOhoaSEGW3FgOSGcSiIgwPgftUqr+falzfeJ9PDHdp+SvfGhltgBZ8e7kld/ALWan2wV6n+v6532DKN1w/IN7AQmKNdqiA6ZQ6nRjmg38+nj3nNM9KN3L3qBLkttBTd9IZANogvf3QdmOHuIf9nquBjfA1H3F/N83p4nTRK6JKtvSgXV7afEd5amSJS+lJt1fGa3aJEdHvLtL5rj2OUfLzFt7D8TE4BQKjbs0fFSAYqdbYkS5bMIUDcsYQDI/qEDDTXiobX/rXNbUVJOuqER9dRcSrxvHJRQywmKSxCMvNuqmOLO9ngg3txSLIfnL9gsIYEGkafLLfc4mRgDWxZBTxxYYG3IUGXbzMp6QQw9rLuQuBD2RGzA0cn99CYuW/leFCGHtNFS3qcZw0DvJkV2SonzGymc+MlqKvFSy3erKArI01caaeI2RAziJFQWrDibnpzqQqhNWfwWp+AM8yeibcrgtegi9RQfY9EctXlEv8Bnc8wMGAEsenmYyrYLSFY/FoehlHcowzCmizAtthv//63ovPTf5f5J8BuDbjGlfwtdPw3HTK6g2TmKsQfBXa6/M5OIZ7mcdfqIGquWSO2c8eTp2XC57KV8qQqe+5QzNcrDaf1Kcu0S8Q4atx5jKt9+6qLGinkH0rmvkj07m1IXgVj1UrDNfg3Tex6gorwzMYGs/FsmdONKd5VfwE10tOcyHQbCVZ0uqJRO5RdF+Rylx5ZoHISyl7NHjlULMOTBwJRvl8LDNIxd2oW/V9BoxjZXnQltOjkrtyZdzHqkSperiKCSyPvvQeh9ChOfbTzYL1OP0fwvlhtxTA0juskNpU+cpAbpTI34oaOu1EaKg3IQ84UuEHzka8KGe271B0AQsZwZorM7tlmCja0rfwBgsueNKqqvaDf3+GSWgj9f3c7t47NqT2gKp+hvNbVQ3PIDgtVQ5+/x/vKJZFvjUYftIhhWfXbmFeVJYCMKwrlOYprwB3S1RMrIw6Cp8FK3PTbukcjr5ZviPRPVrHRLKY4DeTfbgRcNHY9uNbSmx3XnEkMLWLMinzuHGCUM0qwRAd9pf/J68m7OvFpmOiOQ0ops3uGWXX8DkCYnk4/w4WD2Kx62mrfNaNQBwLLrbx/J6bkI1pMedMOa2tid5scGOH1PmGcPJoQyyZ+Mcls+LrDWPFjIhsHoh6ZV+wAAAOxe5hqz03VRwTXMag/BjxGigesn4woPenddAe2pyXFGlp6RjqHqCC3mJrM3Wf4z2RmgF4/juHmZo+NavKk7tdXQeGKgFVb/+Bh3WDY5I/WNNd0JKp2vcIrmO1zTFG1GpWpjZPF7kD6Shqz5kQo339puDzY3+5hGNa/fo1u0vZ7JTdXvPtUrg4OaZybg7H1mdKsBR3OAUlUe26lH3rk9X6yR5gLBbfsRUzqQ9mHLcpHQXz82zzl9m/4wvK/sie5Xgi146cwbgVKk1QB1Qw53KcF93k7fLEZ1lznSGQgrXqvLsaSnjyZOSMwrnQ0N057YLfeDsslAOAIq5amgZ4xkWHUMIkZPSH6GDo9JV8GJpJUSsFVQA8Yb9j0AqqPbE/lVOEDgEIg60A7ENpHtjZHPXmVAKOiPyUlDU5KMOTe7a03AvKVGeRpGKhUFf96h/gXvtu5zWjO7admYEnZiVGPffCM0DJEjafL61DTPFpUU8m2mxz2RteENCNGFCG7nx5dckH4llD3Xk/t5+nVopHqShf+BKzoo87ZvJCHgSImCevquhBV2Clw9S68Y4guT2JbkWXyNoFp30VW/bNhSKj1RdIvMnWsEQzIM/a/5KtAno2mJ/OV8k/WurcxQFxfUjughz+4+WhK/6Gs41uSdIm2qPY+ZbeNi5DFcOHVGw6qRJjdE4GJDNtQ/7sdGElvgZAtUQdHmDbCoZU+liFxZx1Wo3gqwmPiyw6mgZvg1eHN451u8ZxgKZnelmBmE9r+WgCM7MY/OaE2gGAjTS0Q6/Iubykyvod0d+0naht1ovTILTqDolXyBtHtMRj1w0yOrI5dv2uA74oeefdlh7Xpm+9cproEh8g6Gjk9en7N3Z6Oi/U0UU9HlE/JbqF7kZWAcDuhlDG7wllFLZpF3NTmbiNDwMU3HahdKoizg3qFFpIwwm6RF5sQthcWT9o/T7MWcJZqL2xhFOUCY1nwgBM3+xC3gz5P0WLNqbx1yAxjV3AnXSBj2c2B1R8kg8JVJyULSPB/XUV9VOaxyiy7mLovlrt0uXvlniN9gNuiuvRaafeZuTCXYwmk7txSly1Z6Zb98nqlLf1wmw06wdCjaBRhw/D1xNCM0fpxIcMXBszsVECpwhrFtjDTTGLi4C7kk/y7dn/eo/b0ACxG5TTuXXQVzkr9GVfXPtwMcfeWD6bIFiuUK1ZN9nBiTkuP2htd9yitZhAi0Z7nZLkJEPSogAFfHZzYykZl66CIRC3nVEYXMRSnYxI20IZw0HzC44+0mJs21AplwGBmgbHXZS/7vvUrg17eak88zWwxilx4vr+86pchKR3g+5PqkolK9iCSMhWKixgDy/TaE5vXjBh89qN2VUKU/ZMxqx9a9Nzv/p8icGcY46UVk53IR2frEspvBvo7OPWos0ZHVNx1Vyi+aR4W+E4EnaPmv/YKua6gWoitaWpnW1scFJIEexPpvHdKK8oHVVku9aYQa8PdrM/yDJNOpSAi99ZTaG3A1wmEuA74wB5Ob42TKE+FQGY/fsxHQ5JMRjfGeTcjNzsvtu8klyVRmMRDYfTsEd9q0VsK7MNKUEeyaNeEgNeM9PMVyIYfgY1evf5bPVx+N4j2z/5NaxhSgS9QStsMEObDHZxQUphlFfn6fWB+KFx+oYB0T/hyNkXtcRBl+0p/T43xIQKFJkDWbcYYeL/ylkKzundOxrVViq7+f7y3zqDXrhUWZZHuKUs0yRUezTL0Y1DlYPjRijju29Bks4tdFc3iBfKMk+RlKHNCuhSliwhc7eezxBNqzDXhi7fOdapRvXxsKDioVnLCmIC91dzVctrEnsO2GkXGoDHGYuFFR/OEgogCQWJn8feqoFrT4oYZnykQxS/0uR1qOP6NEfdyYpG63IKaRCNdRIWpiisD1d1nRSgxTfavVv6zJGK7zcyIarcd0KlLcJUcqjUl4IfejJFbMWK0NtnPaK6ncMC6/UrlhyIv5AYn6lSwlZw5ZhWgYigmSxg/x/i++CwtP8ZUUWh2P76yLSCUc6WRQC/w738i8cMzQv72D5W9/qcS58SxFM6NPCxBPctQ6Q3s/3aLeQHlOFDPPR5W7xaKZTds7+XZSK6eOLzxDVmuH+QBxf7vK1Ljiv+ILgLGomGNUQA0kkmKRB8U+yKvnEKXNwqZHuyyTR6B/HjXmneaoLjqWS4f+E4UHLjXUOMTg+Wa60QyjMrXwhxNscAiridux+F4hbOKUhodpBbYcjPpNZ4PlZMjrddow0OMl+G85C/M/Ael9MF3AKSYTqbSUSxm/Bk3Q1Xz3O7DziYpxFfETE955zJy/sN+PyKVB+0F2GK8FU8/uYbGJyXZXvonx0xF8a5kwjKEBMc6ggOZYer8y5inAH6DhneA2DPm3yxbK/dxtrEWgU8n+OtkbdxRYjrtRwg9sMUzOVzL8GmwCW4GtxNqhOSM94zrBwwPcZsVch0wMnoikxpxmzsO0vGgm/PSxYwRBwRnMjejp0oJa18btHCpwuTkfUsin5mrGNyLSoyFQoE1PkHYTeUPts6QxsDj2FT8h527zumOy4dsPSs46T+w49j50pNDxev4At3acv7936na51R9yB4VXAF/W5dONeHK87unK4FwCH8qEhLFAWc2B3BGSXZjZtOfe2CVAFBkv2se2sdOvLu2h8cltxBkRG83fozrsa4ErjbGU/O1VsZH9cH6Gpz2cSeM/3aPRfAPuqucDCxlO3qAOTiDI6dyCJON+Jnnj1iu8KgC0KNSfipMinIQ0OKnWRQTnUmG+xoCekFiTyfAFJwhLDQryGRKnUSTbZom3BF2GrxoHM2yEuThG3CjMGmGGau/f86nvnNcW+/NEqFIPS6PTl9aAAs/skNvK76IFKx/Y8DrQFAokgyI1Eg8JY87qdYoVGsF+nb4ywKfJso8U1xVr7DcuIbFGIlRgpsIWvTTj/zILqx+8cb1TfC/smTLt8OnaAMG0gdPDUTF5Uj0kZIZRiUJ7sotIQZzyWFTskTvaIdnvZSr5S8Zsysz+76eB+jbX0EjGxVlgsj1iJCVIAaO1IyWtsco7uuIdUvO/ISFunY+LrCkjwyKJ60PbJCIvug5iQhBFaF0iqqOEE1G+Um1ej0HYUwFMLnxOpIWwsi4kwztQ0OReW1H5riN1SrDglCWBpeaECg5Kqm8O8w7Vb04KlZS/chGjAdGVuUuDBVd4u/a8CfMo4/hSDlD04yTewcbphYP2aoAqmSzC8ujJodjXb6HQ9MOpf9FU5pzlnDmFZX/X14RKmrc76D8pCPrFArHMDcwwyiXVuFdeGFmrkBqQZVNC1MTA0yQsnDhWN6kYA3xNQjv2pLioF4NNPTYjsYJFaCaTmquLZBQtvOkQ/4fLzQJWNtQG10x7AbNwHTVZ8aAS8DXDfkpsZC8uaJkA6g4+4ljPvMFQvz6pTfy2I8XnFH8udtlPgQehf78lxpn3z/8y2cQ7+qY+TgiT+dx7ZHcHqFtx81DwURfSealiaWqibFezhd4msVWHRmMaXmTdgP/nkA3N4kDIF4DmnBo07wm3HusomTatp53N8qQqo6F8s29247oj45z2Ir4kwqh0Xo5kwfRz5MWzInNH4C5ToQrToy8x03jhMBJLpmhksO3GyFcAkbLK1epoD6swyT0MVjjkUE1a8yxtWXgSlu4A7RZUWGRxyoYOC8RpIkPOSl2UUOtKIF5DGuPwQWyTl+J82njJQxbpJeSicixxFp8IR06m+SymcCvTCT1P+/RV2EZaSpZ7Hl24+NW2iRSJSScqsz5ikMe6ZXL3hFrsWd1slHbHPGgS4mm0FEio+gdfCHDkydui0A8UFRB+0PkHaVzq0Q58O0rPBdasEZqOEvanaC9jMvL0t9F844XxD5J6kpvNSQvauT5a7eSxFhiaWVOrzGY2gwEZbIVX0JCfagdd//fjnbzX6GXy5K5F2HFQnTeIJNbsDECS1sG2Ly+Vznfng7zW2WT/JpwT5hybvqwUznpats0C4+2u+7H9mf5vr5PJYu4UoXz/1r847d0pO8oVLzL6KqSeFpoUWAUNvIGBpGXvtffjfkSPtNgDpr/A4SrdS27I3q3mRWtAiHVxTMjq8cZX7cWyk/1PnQJnUURK+zIsDdWdTKcvKV8XGdrstX1+94GBpsgxp7Xhxs4lumqYxpHW6Qe6yI/BaDncvYyDlvXo8PH5doyqH3cy2/jSXWQxTAsDfXGMJlF6k4bKkGme4/o0BESN230TjauG3fR6rRdVALWnm3yEQQeBqVylTU+GdvpQD7pIDnJX0PUFpfmPVJdXWv1BSl+3ehGNMiKiv0Sid9zr4SRbnrLtczowT+oqcwukYcW8ehrpkZjgrxhAccUmlnOuVJyMiT8J1MQKoizGdBxpyvUd3reOYTjJEE8CsA91QYK1QPoVUQJlPeGmZn+Pv/KrSCs9F1xo7DaYoLR0Teoy/2uHqqOPQ6/OPKK5UoLvwHmk3TKdElCYO1IuoRGXNdMA7B4sTwtk/3LNnNN9C2k1GfbD6WDiCr9o+yL+QyN0+2BCg7dgHLdt7pbBZHA5ZOjyv58feOqhIHU0Ofdi5CcmhiRpbGyaNLW5GMne9ulfHD4a76O/OtNFz6a3KYlFvJr3nVte/YUsXU0pOKh/ef0/eL7Vl2N4zVoK9GsyXeEBjJu8b4JtuOEZ8TSn1fgUajGfd3h812gEuaFuWlMAzU6h2qnYaadoGc5hdJiFjt3LLm/WPae/YbKagQMSIQ6qTao2P0P04XIkjyC5rjuwrWOv0fg60DWDCsSnOP6Z8lrkBpd29dpJwOmaZV5vKmhaVvE072L5X/Yig1Eu72715l6Da/3yYKLryKOFaSjHEb/soKLldwju073ZegDCAy3XLgLJQ5Qyh2MHncsThjuDJiG9XbydCufrxrY90mpoUISU1zb7A+XlDojQYJsjiJwdcrQtSFrGs9qTiGN3+CgCNPw/kqXnmc+LtDJZhUmNyx0haEdW/n+ag0mXi3wagG/OHN9+YyAyd9f4sz1CFRJVr3S6zCjCuQr87L/AuaTB2saWK8ePV6jElLOoI9VOUGuZmv1Afr7hpEhT1ExBWuU09vsdOlcpFZRtYct2lF9DkwlY3aMlOAxzay2RALJv2n5qB7PeTYWg9hvPy8OmNOQ+VDVGdufNJH3VWCC+zsacJ9XDcwXbPOHpm9MJEXjBsq/T/GrIlowQANoW1aFfg2+TwGUprOkcXlUAIUNBm+duYYchZAGVL/FWzbB43MHYmiOzxeshivW0KavrH7a0bQOwXsHSi5DoEELb1ySzl/RIv71+gugqAd8tjgU/nD7wF5PXg09X2jwgWiNzy4wlIAac+0ZdX6A+Eqwo8obaUHSJEyJmmY9L6g3zatMHg/9Q85Iru3estg/Y87ltzK9rVEUtUADdp6gbaelPLNougP7x8IR2W0mOx5MCLSOtgyzVny2qHHh5Ib4QTd5e7LIfgZY2KdvpFVlA3YWLucgy0Kx7KaVHuB2xVbfsjDZGyD+0oh/jEGYKCwnYpM4p8tl+RlFVHTrjs227RsCghRKRe/yaYEswI1k+PY7J16rAxNWq4aIkKYP7I3v3cc092IHbe0Bz/9wknfQBBw+aaNFOH0lqhIG69Yw3JwUuePrQStaDsovd50VdNk8Ays2QGOKvC4aHmV1WAZQlUai26ppPIh33tSdB/MTemAY5e0xUy7im1cMukShfxA7x2GVD3OkF56LmHppktSdPaqZJVkavRk6ETxEsczT+nE+ceKPnea0O7Dt7FxwbkcUAO7wD2WPMVhGKq4nP/3HG+y/9y14m9D2gv1PsGAvOqnYuMMHosD838Y+Fxl69FirVVCwTY/Hif+Vzxx0HF7ilurYiK3cQ9365QZ6Jc8ZwmipSOSzU0W637x1hZWclQVqhJ6WsfMvtyQ0Df852N90ur7G+5b6Emh6I6yVbWPrB0kBSZy/PENj/OFCI6dvv7P7liyhUDY5/mhE1IlUg3TPkjTPb+AWzZU38lRyJ933MjtHAyYBKpzL8jf9b17B+iu5/Ptc1iSWI3YyKUgWFA0PqrSWza+QUvsFvqbo9dbV3c9NpxGjcAf4ETP/opAyHVf6gk91956hKPaSil5qjPrAJQPM1agAB6WnDhKY1OzDeuALTq3ODWvnjbSpuus8y3QmpljcQsuIjAENQMl1aunX9qh9AoeH1cvb6pO2qOw+8/aYgwJwQEWU7JfQ0Ew1YjIL46YQVkwqxCSPvDBhHVEf5cL63aFL1dNtxsAoEaefmUTXfR6XhGV8dLLie/+9XMBokonl2GsoCjZ1AeCqwsgidP8QJzAtBQnMSf/ynxtLpKAAF7pBtlCbVF/7eJ4ls+b39sX2nF8llycWI6dbo16AMIVUtYS7aLGCJG9XJdJ/Dc5a9G+Ze3bghKTsDLPJtEpBdvjC80P6a+Grkb8XiiaaSyKTiKOFJO+mEKdt7RBxgJ9fw/tVvFD9ITYO39YcopU4b060bsNYJg3HotTN0zqKv1Vgwel+62ht9Hpq/yXY91qWAjRM7KKhwCTgwoKBZJRU3Ik0Ya2TJOAa4gS1bwr+w4qra8+v8u3Awi43bqkelP+zhnOfJSwdOeROOazABN4Bb7wfgN4pGt/378OJXwKDEGDvFdURQuuLRrvBRKCyaSRn0k+16XhBLKabmwgKRZDuMlXHPJgYLtS0p1xjef11m8F2C6q2B1NRPSky1+1a8Ln4WLfsewujk/kKgcBCWZOclDKtyrdBBSdUej8H9veRtM7ZyB5qU7idsDy2QHa/dDbY/4zmjFgzfxb+9xpVuTlXSXkbDlOubX2J4cEvfyq5xOFNYKryd9dE9wiCjGlH5qC56sLloKpEpPFRnZhar4NX7AT6oEQH8b/Qhpc4YTG9hetj/qvBDG5SR4ERfNQWwHfpBWykiKTjCQuBA9iRq4mh36t97a34/339UlTGB4Xyv1bSKElAfrL+Bn1xIda16qyG9PV3F3wgO0K4HyDecE+DZ3pt2H3O63OUdHgUW7XfaW89ZEbyigExPr6J1UKQhpnDcOpoyh4aywVKV7Xd8KVZvosL1ECsBwSWfqorLk6gh0KcK2ymHVU4udOMIGzKf/Sxxy1H/TfvLsiYTDNY0PLgx+VsvGg9UAdKs+JvxHShuu5zmv0REmyaYJh5U7bVzWcqxTsC7uafu5TuRlJizZJEF7mD3lDWljulu5TH2T5Llhhw+e9+MRg62+or1jl07rIs9lY5lFvXKl964jWO1IbcS+5Cot3U4EAsbEl61o25TqdZ7JxQufSwwk9yLGk7VM4czy/0183M7Dnr8ceon5qbR0WLVqvqMvMxhnNcXXacarTbndjv6nuZm9IYMjFV9mQvtSztTApIZ5/gGDvZYbzkbkGfFm8H/AKecrwiOj4VQGGy3LKApuvg6/XbUPebOuVey2M2V4GVZ1clGgambYBoOZzKlsIVVK4DupqaF+H3eVdzyyD2JVbT4xmDCjdA6qNDy4tdUdVzLC3BSGvzyD+sQ9hokHPPx3L3MEpaHVWIGKAaMk2mQOOMDYEGSrB5cA7PBSsoBPMU1AZfivGrjuLK2T6udajAoKWqFYR6xSG/EleJCX2C94kL5Td2A8g4kwZq22PLWHPlnyPCLbo5MFK1bVikINy5Hm3ds8RdCLqXdpnJ2HE+3e6JgYITE28mi3fCSOhFMts6ZaJH90D4DYA1Fd51/hARXdzdUroCFVMx5tojX0NbRKjKcGGjsCEQuRu8iW3z31nkA5Pr9aXiGs/WuXEZFlNm2RMY/gohCpoXAA0NHj+vAcbC02wtFrUnHRFyr417Amgi5rh4xEmzFcMcf4nDoYpEI62ZA8kM77L/olCyU6HVbck/e2CYcDsiygPFdf1di/mEfK+u7363Sabt/kiTzbKTgbWcFks6H0oEhslgNRhqH3QV0u2luODocVdnPs2nLpEy2JGfdT09S0Yek2iTBZbXPW78qSVMTkigJqk+hLenL+je+7G1JYYv9rJL90WrQqCQeo4ViFGa8lUo3AuIKSSe9udQBIqkWo7e+fj2pAN//zi1m/C16002z4eWVGu4Kgs0PbfNrJVMbn+4OVgRhQIeoAqbC44tFpiMP3XMcCB+FbXXTxUCpiMYDe5ZElHlmW2/AA77pnyHVqpia5vZKs+8wCQU+RB6DX7vkmivsyAKCIIF35wgOMqXjgxJ5A6NvSm96oZHHbircDRYauXZ9yadWXauz8wcCpIVKdMHRyj4lO6gicAoTDaAtOiHsz1IBJEW8M5VeNmkOM/aFugY9bdnq5OfXhHME/+kyNB3fGaMhHes+7tuWNraThse60XifqYHpf0gMaL7yRbLzIJTaO/j48xBbWIy3smf+eRR0GU95CPe+5eOWH/vrCXum3I2MC6nZbix8JuWwpgOSZq3DHuPfe0EzbGstgV218HEWJDknjCpJMWnPLbtBFla4PmnvxtaI8m4rgeJ3zPPXdCDvQqCUq/EcdTCp6nGaR2U4aomZ8vTH9MdyYs3Vuo7LvRwQUYXzS0wINtdcn1ZJsLd3SE6Dc8L2bWfV65+DIMjbUz1Xo1RaCojj6/5yZtGGVdiqZMrtcgIYZPzXLXBGRu5E27OrtCKYlAitt51EWoznpTg9LjYoG25wPsKNNjjtSkTxsfZvA1snzZStxaMUHhc/KCyOM9KD12ZG5+k583bAEw4RBGJKrHfVuh+TCseocPgsMTcMpjgBZQLyzs3hN69w5XwlsmH0bT9SSdPkknE5HPpJdjHDg8K15chokWxEAUw1Q0i2elmIXObLJAKt+lAtE1dYpqFx+xD/+g4X5E4aFCPPqMDSO9QccGR3g4HgCUOyCXms9guOUiTK5so0Klt/EBZsCwZp96djlez8MFCTc7tBZ2AKR5TlDLsCtjrNwaFZ0sNrXpVLD2RJOhT4Wkop1SJ4J6Vl3U2jD1FkTH9yNNXD5CdRKHPvrnV6jPBeliw+r9MdRSCAwIwtFv7WdAxz1TuyEoF0QXALoEyP9Yp//6ugVZO8LsFvDDm/Ya6rgBWig+FypYnfWKUELCytsYsgdPscPy+5PI9Mt3Ht4ymhHd2eEkGrD0bVZII321ZdbfbKj6fBC+0nj6Cgz7TtcyNBodxRFDFC41L8fB3ET8CzYOXr8huUF5nzyMuBqdDy92czNeHL2W/w2uvHM/Od98BkJSyV2AQK0GqhMKbSzY+Vrx3F25fmvB4MjL8bNWnDo0HvB0E2YtpYV+RavrleiZBEwb2AwiUoWyilOoiIo8BYvtWxYJIAk6LPq6zCNZFEacI2URPHpuKXMcVu4484sj0wx4cnUGK+hp4gj66F7/6Uecv1UHOwVcBLPGynIS9EtdcpxprUY9ynweKVBvL1LDQyaH7YZTX+CvrpT3zEm4iB4nQHqnl+j0tR85eDoEN7OH4vZVpNNPbEnZ6SuXAswk3KHDf2JOnWeb3qi9u0JcA3tdsYjmKzYTo9SUX/gySI5lajg/xcC39ooPwW0gn1SynaEJJu5uSSh+d1msQPrpiGZkEbS9IM1GavGGf3pGBxxjkynAw0jE52DUpaBdN/K+5xJRnroMCJ66y3mvA5BjN8PoSoX2f09wpx2dXxvKap2IPxTdlfuENFErvEQCBf/hKNJYSjJixZ7/SXshLDjfn8RRvi6JbXkYwubBYma6eWUPuMgSos7UuJCdegrBVzU0BwHSTYVNge8EwsBKAknCTo3thKfA67iqdKNk00/FkW7mxAU6fHwjvfB/90C9XCs53YQJIuI/w3RfcvgiZq/kvIR3R7h3P8v/GiMOiJmj9qH3ZNEBe0NhuFKICIy5a7P8Aoo9bd91+cA4UhfB5rFFhl85zPrZXHmhNKh8qEOEMXGeESIbxFucvA0ZSyJwRQrztPi/CLwk2/gKU2b5qkLOpI8a8UuHUSQdxvld+82PTlkutSaa6ihgM5NFUPCFpL0W3LkvJKzBILxLZz+X8oOZ7OPk5hjgCXJflxzXvCk+CwsVjF+u80IwIm5C7YwwKbF/+6zPIisvAkITY816Reymuz95xn03U3CTWqTrXZrPSGt92e/9fTW6LecDulsP/tsr8JiaTfYbEIgjhNvjpr1nHTawoToDWAiLbHBNzDAWfkdVemYlSozWuZQ1dtHqdXYXMOos3GWbW+S82BI8uKkjKc2UAYX+MSX0YVwqvCI2uLo+Ymmj8Lh20qzRuaQ9fvYGj9wcKLOD85mkU+7OxpQCowltA4eisG2PUZGU62c1GV8HWe+428g6OCJXv8dkbIX8OwtKxHs9qgCbVHv+e3Azns6gj2TCMmJqsBK3awcFGHbBuQmmdC/nwP5pJzpctkurMgcG9g3m3lAN8+cU8GpD+H7Dnog7SFQY0WVgG6uEnloP3pDBk86RjepTzsJ3Rp1vkkgEw8amFJUlzoqgx4vIhb3YM/X5i+qmSjvNvd8iKd4Rva0hADPk4vjv/SKjsHR4o0ds5WRtDMDJrkUNgHi8B03HkW0XkSO+TntJIDfe3SAKtQt84znBDc1c012qIRf2cOA5EISrxT2phGJoOpQ0c3bKSq5FADrAXdQCKkxoTWOwfilEL4bjZT+IxCB1GNSSQAZluEz1yVZCEIPu6/pzQ3yvdZdLPbVsFDHpCX5Vx5zBOcjWd0BkSP+tOAQGIh/xpeNTd69CZtdbSLXdeWs7A6eoaAEWBw0yVfFThyAkWERud7Xi8Xttd7BHA2sPuLF77xrNsEwB00cg9LHyyg95mbIPZiRfXohM1CzLyfCoxTv7QUh1KpKlLUY+PXBG2vAdFvPy7QWELV038F1RgN674iHHvq3ktOGhHnDt4eQVb07ZMY7bX5XhS953rssthJUl6ITT/EFlrUPs2R8LjQNCxL1+6YrDK+IUgpUfeQ3gnY2Ui929aolqtcx3VgzzD1ahOJKNSDKxCX1NcaCqg59P3YSZK6ADsJkVauaqBpVigTK5sGhv67wa9LBvxzDFgC5kXB6UHAI2IjDCx/9DW5U1jvwZkHWIBGXlyY+WiyBswd2h7j8/cM/teda3IZKRjahRAWgWIfGRnnLRy8fB35x44tfl7DClwKOG3VnT3uXXiqiX63uJWnlAnPaZsInBT7L8MnSxOtc2ZUKTEasISVMgGzGS+i3ktei0gxvmpP3intC5ahtF5Ka6infH8WHDV1g9urlRZMAMCyzcat7DXRLdUZBcUsMpD5Rqj6KuxCa5x67AM9saUtfRh60J/XufTIiv+TWV0e46NHuZ0sZvDRjsBHwLy9z/ZrAtNcaqxrkXODeE0R3VRTX+OOtfrjG/Xg1PQSKFjXiTYzWOiktox/VXIOXa0bznvCY7v4qdpQkwO50bgEoczESAMuC+P9hbShyus1tx31JgnDsukhqvGG4pswyU++9zvCCTvsl1Mv2hgXk4qcDecucq/zQGW8wimSJO6D7almpfa58kKtUAAlL/6Skbb9Q8zow5191tfp1QpZPBIuQA9XLAyriXVl6nSDDB5C41LkNHGAWXe//qSM3ZeG9ezKjWzNt2ws15Qp6ohymAaWYXihRh0QoT+GEUdYkJ/JRPj/P2d4izjta/sJACZPZMqvB4TydMQDOAW9CEcGT0tUCDUxQpTauT9LZaYJki9Afpwoui/NAUGP0/CLsAl3wYuYbTIn0PZ5w1UjF7DlKr53/yuZu2TwJghmk3MfpUbHxnAyFkLDlGnsMPGYoscaHsqJDNBD44PCghGhY3nTeBtDmQl+R3UBqJOCtHjAww7LqD/eLoBtvOzFD1tY7rl/nDSyMy58fZVEUwipnfwW9PaWe+5h9+LZVUeWaD7J5YWm6JaJ9Li2VhJjN3y0PdSTHzVN1Du8QVomYEkjuzb9NWF0WAhsvdplCXutqycL1ABawDNodBiXK1ZdyipJH82AQF8YiqjuXEAKySkFFyA8qSRVT09JjiPzs3QYA59B4au2XG7MLMrder79kW9ItTJt8Ej5wtZ9k8EGKb0i8FubqjBOUEM8sXZ7a5nojL4LZbhEpTF2mtEok2CCHck8tzt01uPe29etjIOd+u9HfNpvNJaPrhITi31lVPejdGXQDiyzDFZZvhh2QvVK6+fxgcnuXF4S8pPeruBkln78qK1qYwrMjTCN25FopShPKciSGnCOMmngpUrAEyZQaBqVVciMIRADXahTusHUMqbN6oFdp5zUgURTiZWWqExu3XwNIPzprc7ZvD4k0S8F8vTaN4+MLaIvmjdAA+5DCU/1n87QQ98o0LvdinoZh4Yt/vENJDIXrRer8Wglz8R5asGOq8DBsaSCEN39Sm8IkvwVbmjLyhGGRVJW1IQD+9oi9XiZ6mxr7y2vBKBx7sDg70lVputKN0re6o8ngF1zZqY+REL8kFwlIv62wx4zEVbucRgkVqZJWH0A/rYAVRilXbQrZpHN4zG5Atp90aNrKX5Mw05UEuDOPaOWpwhn9ZptgBewf0yPXg6dc77MLv2KKnhknDA4iKz5GMYwV3u3VPiw439ty3XYipFvmPYgXd2WX5XfzJd4ulpnEhOyJONXQyvLx9UX4ozdR86xt0mv378fi1/SVwCnHBHxlPSUjGKMcAX9Gh6Vk+1Tgnt/cfRYkWpjY6KieWRhXha09ZRv0/zzsAoAsQqNCKZI/Ep7nrp5nr2KXtvw0tWhZjkC4IX9VyRZz7NQSc5fY+78BnXB5HWJPMjXoZoyXtBmen4wIsyaVbiu4YkPHgA0c47xJpzBV4zBTQLPhTQZU2TU88LSPZcLM00isYBfmRWQShvS0M47snDlS8ErCrfZXv1qy3SIHW8cY+pjSfLcRp87DXKzvxscl8xTPjib4z7wW0lzgKLsZ7twQ5rlzr2Ml2vTIYmxEdh4bZAw9g80FYSFmDVO+06qBlp3FZtvEDmzmVw+lso1gvrar7z1uw8hOHeAXYQUKdAAUnuPZJXUTta1ZWYcD4x+OWCj/sJelvXkwaLBd0DPDiJghFg0+PyZeOee9M793ZDsgAH6HsX7x4clkAkUHIicTn4lNWYDYjyPQP9bHhFQGNvQ2/7jJuk0SGF1q6fe9R8WMAjo1bKotc7lrrP1cFxV7in6snU3a3Si6Pgs3n0krA+GPsDykE5b+DJorkBUz/m4BIr8IuMBh/thz9/c3PSXovmXv92Pkf0C7vwoGpiA7MKz1aXEplSLXuz9c2hFGjP8LPpqMqpb1qRy4bDa9jnkpA9aAQaLFXhxS3TI68ubne7gMImCJr4INQAABymPR9b0yJV9OE3pQw7ERBSFbc7qnIaprwlV6PrGy0C+FHwbmeiY9D9wDZpTBtRk/2ENe1/KpTHh3L1XlPFEgA3RUGsskSi5Xk1vay60lX+J/W0/dV/NnQvGgXnEIXb+ytFZnMdB65y16QLzK6ESrNXqEingrmG9hooxsEyVFIyIhekYcT7NQ16idoGA+0gUvirr1F/MTGXnjGhXbjP23912D8P3MdYV5eLHVA3EmYcbsWi5VEBq5O11igGdFVQUah6Ji3XCKwR9PAYVdkIzrvhC8VTdUNj3mBxHeEYiDOYr+B9qAGNiQGxJ7XYW6GyY5YJwZbZzcbhKlVmloUKh7nKcl5ZNJU2BUGjNRzrxhZUEl6f1T4Cqyy9c04HzsUB4qs0pUYXEojsuOJ8DpFBAJ9Pqaw6L2S9vptSo+ylXHB9QVriHasFY5Wh7CLkGM2snHZPqZAfHv6TFifQH1VJySxvtVcDww1V+mgUDpb/T+IWLrQgV5hoGHXs3U+z1EXIEi3UQ/1e9rIwnl9qMRsHo6pkU9++NMvQXP+UxWIj22VWVhfRG/Bw35xJJBZ+O4IcQSjWw7vYh5imWm5x6EwDY9bH0toHRlKSM+7AEDSwqrua62nQuUCCDU4M2ZZFCMm12En6zpRpZR+lewNeId+/eVo+KB5ildA0SK8d7z9AOlNzHD77JS6QFRGtAbEPZhqB9y/n5brGNl6A/12tL4qqoxVlnqL17HEcShOeSfcgnRHxXqrK3I5Tz7mcPkAMOT9CczsxK99uiOLi1yaQFq4nyz+nK3g/IZSzYQ03gcMIczhIXYixe80450N0m/VgGg2+nKVKoGl+nZ+6LS+McRzFpPXKRxfmVFD4zU9eWo+O8ww/PfEpxhKbJfWH9vOvW6WZQxVgxSm2wuRbYQ9fkgKSo6MU0zjFBTKoTc8x7Q6IABMOv+uqTHfCgAdcJbtSSfbpijaVCCQoiF/yJBHv4RCGTJZ8aMgH4Q909gwi5ZsK5nyqQK9cxC6V86MXj76E+ClTDR03gfxRu7RIO6Ns1SbiG/3RK20MOCI96hHRkY1BVlVOxmxm9ORN2j8VtRggpmVwpI2vczaw0Quq1D8zT7RRnsHILEOIHOMUFiUN59WIeK/+7VW9YrPBUjin5oja9JY1SDH+BoiRU0t3AWZfbvCBpFHnLqYzUT4DEmNFw5QbGrYIG5RwO0Nbg8iT9/Fy/sL/p96wd9EciaX59xzoK2vJFmWI/wLnd/M0avxQrJcH4bsYTBQdbs1h9ib65GsW+1mkbeyR3BLpjwO5sLQwf+bcx/wWjbBra+RSj9TkCGFWwCeXcAD5XocaBjJKqTSHG1H/xTXWZlW6aULBy3OXjeugbdsAifvhA5wjqlNQzUukR6gVj2OyntzGH4QjIU/4rR9WYoBlhv6MTVFaUXXJcXhg9GoSj8usGz301NmoBDP7EAytlGgGf5SvyvQh5grA+FeVYxTCGilWEN4hCr4DucydcWnB+Tp2fRA9LvoUguuRltb1+MihP0S6tNAV778497d80ip4fzWlWgcJ/Luvuiq+xaWZv0UrSDK1/eBtLB/j19cyp08hkLjLYIZS+iifmU1nlh6+e4eWLaFYEtmZFXgG51k7UvhWV8jACxHOEzsvK+cFdq92Pj5VTT8Rv9c4kVG/NXkpThRIO7baJvv9KINQpA9dbAjw8TBHYDPKAKUPzSAIxXEtHd1ANhgku9xCnuHEl7SHlFNT7cJ4lNjBDyE0r73SyVnWVv7L+40wJ1wrwGQdVg/e254h8NfekOt2yZPuniF17LjNM5Yw4j+3bsGLRUivDR4wMZKO3zQUjE1hAHAbEu+V+jVKRjzH4QRTxWTG5qAVJ4Owyj/bAvXrLkKGCJ/yFo2S5lIIxUxxBRJ2ItI9FOgLLhQX/RlSnwZMziEJd0stX498NvZ5EdxvHSCz8KltH+rXPYkUf3sITbHoY5WGdOaqEF+AJWzWw3DPy32CyJBlNUgpAu9NFjIaVldkvJE8fLn54AdX38U8dV63QIuRG5O7zvHCkIzpgDpYtXBCYnD0oh291j+gKJB9TPQd3LdT1ZQAkRxRarppgMcFvSZwYEptGKhuc/v37Us9xXlP+nsraRCfUZJTCUTsC9w2hG3efHMVh53X2ZyMVEQhJGGP4zyrx/VCYDwgC0exXOQRl2rPDBaOes1jzCj3nkam/lOSxwo7owcjJtugVZVlt/u3k5j46jWNElJYB3NFx1oSr6/PoRm4j/sJh84wrLk2qoEQ87n1QmiGVSmFxZfjeXqMUHHu2gkZ4aLdsaJi3lms9pBo43EBS5IHRVfMBNMDgie390MePvYDrMWPkLHCKq77ztixDeR+KTthaWxlQt+o2OvogtuVHDyMPzleT1Fx3DKysl0CdzRuwCXY1sswAWIhRULgtJI3leR2592CYXrNOEbuCDlVv3zllMyJhMRtgBEJZ9a07ueiXyX8y2BtkJQGd3N6lIMzFS/TyphaQsP7r7V5i0nKDQBi2bi7qjkJ5sn+uoHVry8QyNXY2IThz39fnkJ5iU4QJxZ12bxCdhuWGUYI3Exbkhtja/tXiJrYM2UvBUnm7UGUmmby76js3Lr0u2vFHYxSdxxXhi0fdqkMhfe/b7rbWU3/7WmGM0H9FXgLscrxmgcG7oGY8OG+0TFwj8InTgJ6tkK5HVLQ+O3LkCAcjd21ef2YNNCm6T31MZLU/JmlIC9CQvnOWdt9dSwSHj8p6s9YPWE3XM86RIdHalPI5fhGCwZ+aPQ6n1EGBKXDr0C0M5ODOCVjU7taO9rw5sdlkls+FtipQ16TPKHM87rPO7rw9Wfie6Qc/JNiHis9O7elkIFUB9l2NQH3K6LWxa8ut+iCXlnPrxk4xkwTXDkrmHVLIvA3UdS5hUyHjZYZhEwoByYDr2ZA/tqTQYAs1KPN/nOjXlO9V8zivcSfxIaPSVqf9e8nuMB+uTerkW6ETQDeJw5j/XrJ+NpCLGUaBQbg8keBR82TK2Ln7uEM24WsM7Kx9vH5q9bj1y0vRnoAIWdYstFNArENOqJRRO/o6BWwQf7cYYL9/dy5qnps1n1M3NUCB6YEQ16WRJ3fbAssSfH8jkW68Ti+53gnUSjJeIdbUh0/xhp5KyVgUs7rWbSjg45WIPQvzaq/rcIugKWPxNk/luI2sQc/jvUCYp6JUEUlIHLnnbafjC/EtK4NpoA2WeT+g10pRAnvTThIu18De3gq8grcj/nRiLitU4jRbArWz24OhvwGiNXytvniJZ/eB2srG1pAychZ7cRbc72D6z6x6V0Yms/orxYbde7j5KQ1Mu+dkXrEAgAhv7rWPMz3TPx70MGMB6KvLIoNldwpQVAbItM/kZY6c5iKZxkUpzBsUfbDBKxe4WKkEixhqJ/1SstDWuaM2kBhBtYWCyJxDx9PhdRc5c8SyLk+li/ou/sueWAWWofW4NGTo53HKk2LBJ75T+FxCcaykUmf4h9vtmNYNOcHZn/HSkXaHdt8r0e+EnY7SEoEnYMrqzOKHsvo98Prr8igndEC+vRTJX+z30Up9NFvT7PlODkWWbpTh2EQPoPn3JvJAPMAljP7CdtNdBRqYqcICgSZ0tFkklfXL3D4987XbW6DI3uWMUpjIgZzCUraicEvC1xdFkc1x/AAg6y5CsslklKbrk5LFRcRbyZzIEtK/ZokjxJoSKlXsub8SMbnnoYubjhNrPr/3xun1jYnaEwmq3zp2gjeKxmCAT8m1X3RKdDZPrb3vRQisukuZ+fO0ZwGLXz6BRCPZ0B+zbsnw94uVIzk8qQudQ/6ha26uraWn/lE4uzrsfaCnI5CJv9vLj2HjFcGEi0YUvvVVUXy1tuAumyMkmH6jCGHhhOVcctU4CFQNEh6urRisJlYA71Dunu3Zg2BABuPsRXuPX4AgmPegjZ3y+jiTdCvbDHXcLRAZyrnct2xR+9AdW/qP4kIDFbMG/pq+cJuuQoYI438LCU04shT202za9oAq4xN+sK9gyVfYSUrCz5EdOXaxZqjyeshuqvVzgXTGy+BkUR/jT3kXYJ3mFXyrQ+WJPQCePBxT5xmWs6dRNpyG/ba3mf1YXrSGrJsa6dARt35em38kL3a9tFO+L21EGWttKXPJGZRenIheJqtBRWQEPkJQSOLSkVxRJlvYpbfug3kGFKbx+cVVgq50UAFlp/onviAsXV0evkn1XTJ6dNgXX7mnrhZZ+i9qxLfLqllUMWhOCuySvAdhBEe+W82GbZmg+tUu7CjYROnME0F34Pb4/E+oGnT4EpYtQX9OmCjcJUBimPr18wRGYdi3rqCuRC1ks55eTDtj3yXjvaix0/+xRsYnEnNr8MPuvu1qbOF0ntSFqyG1mFuI9ZxUmasAUXLselcA4OImtHEUJM+9JSBUUNqAqRTElkT6YC7D//km+/6Zjg61Ju/uUADlEPRx88/Ql7ouvgtAHhhtewoAsZ4nQzvHIt9EG5wApwyU06Wq2l0CWlajI97rAbRKfJlqjSuSACeqM1h+eLuJxgVJft/+p8UzATaBFbvWi+cjWDtbVyh/tsO8TSRznF8BpgegDdote/ZPx+L/KAqlmdoe0urAwtWLC7mVveGSjuYUFG3PjFsDFfmJKnh709BwtV4kfma8GMJAKtojeTqL+ZXz646AL+gPeOLIj6fBRIFAVPYOiLYiQJz1OtSnRLi4fPwO9wc8Q+E1ckrDAu6O6BBCEOum4+p8dEHSNmSFAbWOgQRh5XL00y3BEWSErrCNH9jrcUHL03HVWFiETNFQm0+LJIPgKg73Klt/FPZqNxGGQJXOiL5jWDZrznqCfTacq8wwBGYCoA4n44Kot7C/Exi4kxjsEd4ijd6CwmYBI9Zu48tYTLxha2Qg2XUTVaJW1jCENWP2Hz2gZCgotKgvmkUeZeRlwVcWGiH8C+2/No4FVE1DE3g+IP4vxU9qfj/I5VfMF1L9LA3wnARh1Mub4096HOs6ka6xcgV+w0r8zH6obmhS+dEb8vufwZsoYyGKoVIImxpCkfqhaCqzc30WTidjFtrLNxJL6xGmfwDxQyvsLHNzSj+vmETMVWECwaudS9+QuvYU2V5nt2lX1iAUVYYDwo0mXe9B+gYvGZ4R4mYsa1RIcJ89EcnQrtQq46H8zB/fGu1xuzPRUbN/Nj0mdWh98CeSBa6/9TbeiMvoH/sPui6GlkmpXvjq+ZhaxgRYJOU7fZ8pvD1Jea1Vy2ZDi6N62BIQmD9m7lDUlJhSuoIh07WoCOoEh8Eks14EN0Rh8KVElT5T7kLDkb5mXOfoEdan57jcDEtXnky0A6lQCQBV9NXcogh9M3KF+keaGoTm5Z6X6Opt4aIh1XBVp08jvKbrjkvWuNLL6KyJ5M0NHTQyv/Vw/Sz38fBlfE+KggIMgx3ME3KIvr9YiqbzUx/51B9UDBJrPAMICkHgCEq9BK/CzLE6hXztDRsr0LUPr1ZsGmywA1uYfGxaHRymLRWx/eiPHjDB+PBHV6oJRCSxjHrNz269DiEB5nw5O/Xkfe4kmk52BY8yHBx5I5jPl7q/NPWWausU+h8NdOxYN/L+RdJJ2iGVUQWHdNbPbq/E3H8xY7WEpIUFFWYWhxFv2NbfH1dPxk7Fk2GwfTEtmza1J9SOkaMJmRb6pkFMKEJKqxDDsV0/sMsK7y++xiohHDbfM/XYh/HmcVCCjQtrmT8qDtey2IDpVmN3AY2jqdl/+IX7+R5lzYSEYaoKckp3tGNXNvEIokfZ5mWDChX3QrQR5O+E1db+46mGaZMDjR9EQS7yWmTF+Hyth9Uyo6YaAnvCqWimg7cFGjlLDmFux+vqGZbOagIzJdt6/ZDTIl92FC4nNk5OBPzX/l2FdFJc94/cifq3ejm6GwdRPQ8Kx73GjYt33TPIrdtPI4RZBdYaE7iz7QmuFlLDORHbroPiLbIaOoxd0mcBqTGafG1tub5D1gVaDwmPgfXMCMcLDKLxZiSXOwBApKKmmU2Yj1IG61FCr6A2Rt4efonw7Ms8MlWoACSj0DhREMSyVLjT2GmvOskyhT5aUh729eloVVudy8puTTPIhYm+6bFROiqYxxLkR1yNcsnazvmmzLWVXymg5Vgl2R79oK59Xf/QWmn0Eth107F6UXkTdiYsJ+2lgCLY3d8YmM4zRo+F92CZfOujeofXV9cURiiq/BdShgAXOg6zObqUqTEmX17FNYdlt2UNbTRsV7C6yLLc5TVatB+Gw6VDbkWmAycWhgoMe/DEPTpbOZvPOOwntsF/GhmLarKOF+QTdVprL3Dx3URzMBbfglmY18o7pzZuE7+AtwzXvmchAhA62V/2EwKaMAhufhuKZDVjF2cSjxvYXskPcSAQg6SFzszLKTspP+P+xj33IWiDnQADsLHWFECzY7oe2cyrzqppsWYtXafBBQMFBjw7TgAAg4+pxmMeUWp2SNeWiqyj0fbswPlrv7cQapdHnU1cmgUa2gmQBgMhB43HqIX+97VQLB3YyEUYnYHMsf+rspeZYCcj7jOWv4kjFdjp4ugAMYYUzcSgSrdhT6qIdeaRFbUDIJo3qLHuuNCckweiPlbNiuBHdgreqrm5Eo1RVI7nhayjcb4om3RK51zWJ3/0DfTZyoOuzyQlrWsSR+21W1kOIUxiH8OdITXJhRmp76jV0RAF4+UOTqK5Av2mQVjtzeQyv8PofX+SXdk9JB94ZEM1REPL68Ot1qeIJ/SsgQXkLOYvnbVRza+4jqu+9xfF1B1i0MmRTZumeLxXdnXqfKUxRAGD1ltajq8R5U3VRWt/HWnvXloXO4dlV1GQ0BR5zCeXq0j0q70YGs+T4et/mj3MP9AYCrpGvdVt/OMgGsPl8CiJ7HISw9HfjIp0CaTUH6DotYbzgVxgM4tdFXH4QHjcvgFh9KvG4Umkw3gVPS/oIjIl/6Kqy8NglYGOghTMiYNEX/pYUSJurD6Tb83vfwGH3SzmCVrlhTPD4sW3sLs+Sv426pg7rc+pBk+t47hg73DtHUFap0IVk3/ygbHfJyQYbO8vpiazK9cpyfbLmVfKpScnEHdX9RQ+l9uHv9ZAF6KAh4fbteDh6Q11wrQbRCFVl3cLfYCCjg/gkQf1X7del4yyyENUs64CGY17dtDsfICg0L1zh/dFv3Jg178RzjiEB68BW23QkMfc9AX4DChVdtwX9Figj+zOyydLZZWQXxr4Qj1p4W3zfbn+cJOXdwV0OyXbJf0fhNw+vdWedMzotyCY+oBBBZQYOypRxukgvJRCJoFgTUdZFBFrylXhWTxh1NbiLGZ8xVmqzI0jovI1+xCpuPgcKpwMwFq8y6WzLig6mN4B7y3VkVtGCZYsLByK9l13QzNpv8riXk+fpuXuI8YRrLQGKvqlvO3G18tu72o7hJy/4tj/wYAlTgeHd+WAcCS0e1p4M51A+tkYHlikUS4C7K9SJ4EueSvzkMaS+YN6+d67IWCJTM7M4JpIlsVPXhCCt4qTNnq8mjCrlYS7QDO5+0jqGG1r+PH9LsAB+vNwHFsiQbyHNGAWu1m3srjoAjsiy9kecAYow38Q/WSBBkAb0RCc/Dy6srgrrxLuJ/AuZjPkDEL6CBUzV+/PEPk+OgdH7JhEwkia0/ij+FOuBVvzlQKhBmmx/t6+uvPzJzgosaw3ovE0AZRBNaChEixlGOI21uKyfRvShFm5u6xDnVfYB9bJ5OtWC22cJodRkeikqD69cKcwp6XowqmT9Kctb3Crqwg86Nssb8UD+qkVZdLnjaYxVWHU7Ee3z7uxpF+bWBR3BO95kFeWR50hXFIVrxAQyZjEvSfNUxQCIadPP/876x06Uh81/3gQkxlf9EN9D7pS4UgrS3OpWu3SWGo61djqRuDc+AUX6coWq0LTP3ZsB81VAILjOA+ueK2DyMcqrVhty9ykk/UG3Dc0JnkzJkK/5mPShmb1J80BMoKY+qXEakIb7sbD9JFgiAYHU4c/hLgaIUckcfvqZ3unzeFuMoEUOvl7QJO6Y+m43nZfjgwShe71OiQCW2qvri+Hx2tBMPgzYQV621xaPrz9oR0RhGMUqcPLaPwUHCrRpKXJxuZB6l8jIlPZHKbKm5VnJT+zMKaumYsiTYJuNsYPHxKyjpOKQy4znSL4uBIUXPKz2TG/Lq1sOagPfTD/GfD+55gloWJolFnK8I8+DCLZPdVJnVFYOb5apRnrv+FrIi8X1hsnSt3MSw0Gh2PlapPzhlKJh6JzHchcEiVUTu+NMwHluYug4WbvFEvS94/Y4U3KkYhWLV4LC8D+GM/gk5ea03/jlazBFxWySPeIFVZxbDEHORthr1cFOu9Gvn+99AO+iyLeKDjBa8jPoPLB4PxNN4kAnYzBMaBNPTeU+2EzN5DIDeHKsq1EO7iMxAFuUOs+KicHyXdI4e0m3Y7cEW9AHY5zbljlSZCmsnzgSnPS5VRRalYj7a9lVi00LrfVCxqVxKfpjQog0cv+Tp9LjBqjCNz/a2qJeRl8DMiipHH08Z9uANHuPdfIATw2XBwOtuEmHu1jtbxQCS/5MgeVY3TLX645qZGzWX1mp58fO+drAND0ToAEw2A/nfgLk7xOeKG3zvQNJ8SngI0CwiyzxvIn1rR7/7c47eKsyo7HRLiu1/h/OG+1KfRYs2EMnzo9OND9AiPun5nWXqhisEbZK99fU5kpLkTAq0nsfd0Ou0RavbhCyIeGlDR5gj3os5BuLBVweRc1l6ujSyZZezEj28huwb+zL58Bf8KgwAiLWGEzJBYYnM4EwrSKvLbWwUE5ZFIlwEREM0NWqXUQotQnuCjJ0TwCWW772SHJqG9oambKhxYkh+KsrxufWi5OAAYQPB6Bzq0vgokR888AkG11HlZO3iQX2+SlIb7Z61RHjfQ561VcMNgpfMcldZ78yAAamDTNOjSwzcvIPXH1hzBoKu+U14NogtA8UMQOd0WDQsZmXQvN9eoCF370kR9WYTVgbC4gYOdsNhEO4+ja7V2fIMlqYruf62RUMYYzYMkFScCwR9616d6sSkrXM9bRvVrehb18umZ4LuFU3tHG96lxSVBs7TWHNU67soh3KT7P7Cj5FKnf5U04R6nHdgktZueJTcoWmwiQUO3Ekb4a5zABK1vcF2kLsqUIFetfBW4OZg9AOLAHrS0G4MpVtXKmlGMzdHtVqDjR71dT0PoLqXTTmhZ/p+jreZt0s2cECkKN1CxvjmV5evZSrwN5X7QztgEt2XFzA5OIrzQRW6zB8xLH1rtwj38RP8tfSrmiR12t/7m4vzoBd/KbAbqrdvsPs3NiZdxXCLmUIv4/YtoeuU0UY+dUQ2ESv0WrrdKmRXzqewzhleaTYpncTAzkAPDwRTHBViPEYSAL6M4rTaudjbA3SJNeZcxfG76jj8DdWuy84u1hZweIE21EI4hFTaKeIgjAd543gjIdgfIAQtLFoDVOl3JlpEA0vfFCWV7tjDRYwAQ4wVH5fXAMEDWodcml0jxSBjgV2D4gsKPaTiDZSh6SetpY8Pjk4iTeNcFuFcWlIKoPioUALhHY0AJFmlJRLAToIgvm0axvdc449XtYI3uaTjBAGbIGrTLJm7YFjbDnwMYm5+etDgNNlYe314Bh1jZMwMXRvsi90YGk6t1Oynea0ftWon56yREzWGHOzKGL19NdNkkljuR9eYoGheKT+XVxiVBWCLcJFKYhCx7P9jfHMF+E/hTM2Jbdj9keeArvecdV1GgIkgkfOqFDPaGUf8fy5JCaVGRICH2x7y6pXWbShI3VjbDRMf2bebeUR6Fe9Hr9JmoDot8WvJjZ2zWkicFnFxo/tR5GuTexkhXa+OBrNlf6Cq+iBRV7qG9STjlgOYouPzzMGfKwGxucYcZw5aRikOqgJuW1fomPSZ5D+LriZwBDVfYt0kaQGAkmKIqXoymRk5xse8iqGVqWxoqLpcOoNcbwP4DiYy2OTAFiC4orkTSbNqVgYSt3YcM14am3ubb+lG2bsIvS9nTTiFkefiEaqdQxwEhISgisCTJfWOJex4l+xlAMlbZJMEekFUzHvA4mUOh7S/mSC0MUu8bbJ97QTArUktu9kSNAmtr5Qw3bQch/gP3HBmND+yJJ/FUA3Z+UfV+CBEJoNgIyKNSmTowCjRfE6KsG7ScIUlRdGGL8Etz/ydiNUUlcyv9bXPXXitHGm+AOm0pejTrzNHHsB1XXm+YkOgIBCMJmT6aj77ObIyXiFO34OevuZ+D4zUBofvxIhxJcoJ6j0hr89UEIccZRjXthL2M0M1u2f8vgCGwHX8P7+j8hLsPKehyyn+cV8YMGB+WCjPRlK0JOIciCqinZz7vNYTC7BpNc6MKE5fkkyIDfXLeeclc6oolqgFItadPwsle0Yke1J9y3SxR/PIVQydyiTqUT7s3ml+eUWqa/9P4XmXYDE3s4HOIOXWmfEP28DG5xI7BorcMnnm1//Y0d0dvHBZDMYkvGfTGg2SOfslkL5XHZI1A/JMj4ezYRQsMsUwhTsaf5Y45rLBY8GIcoHetjFJ6BKz3L7yQ3PZMS6o1Ot2VbzRhmL/qOkIuGzK+P0LAmAIblj//mLuS1D3nMtVOUiqaGBZSpRTDtFSYHav0oNUhthNus62u7zdZ6vdILS1BV/0d9zZk+I9UApAod3CRMl5UcFDrC0aRl9HA0sNVf+M7+Ozm7kpxY2Wmm6gglSE8JOQdCTdik9kTMnIxmVf8qAbZbVy5rLDZGLCqCR06hOAPEDnZ7W3/CJeeGQgymkdK95MZYQxX//zFGPzJ2pUkQzNHbJ5dBnvyE4y7gY5Pw1ctQt7PrhRKuMDw/aKBmgMKHIxvQbp3/6NEMg99+37cdskQEMIzIA/K5wnc/U3gPJBfssGZE2W8o4XKxmtNCeuplV37Td5/NY5Ks1LZG2EeScL2lFXJGxmRGARbrd5HB3ZrSYeUeQxoC/vnjnKts3+CQhjZ1csMHZ5RrDzvBeYwRcImAqjObzuafVwlbbe41mqRhC+1kHR0rbNI1rEefOq5w5ivVxSnX4P+bBIcDqvYC3uORjUFqgQFAZQkrR4kyMlY4Niq22GZYeiYcgU3yrDfhdScq2HU8Z/IuDOFA1vNPZeCoF4iDBBcYvIN3N7k2XjH3vAuFsi+zfJwojQPZ8jb9kW7lO58NS3kp/1cubLU3lFh/73e21cOMg0NH9fSa2VhprM03olYctcviVPucABVX7e94pWBAYVpFE8pm7cVrcuDu3+FLFmbc6wuwoFSaHU81dubiAz9cSl4e21cWWbj4aipZCzoAczxlp094lTqi8SrTemOrVLYbYMqj2GTM/bC8ITibJHXvgOQqKBwW0jTB2qea2Ezl7/g1XYKQwEVsx3h8WjxtIgG9bd06EdAt8nwAlBZvsEup/FT4TCRI7WIVDRaj/P1b5EJfmjAgcT+z8ifuoigK3ZY9uzRG4rcwYH+4i3kJx5CpRtB5P9EKdT6GViOQAkROqGVnqCFvRt9Fddh5W7Wg4cuxq2ZfkwwUjGyyr3IilndcjpcNAGO2O9owWOZvIUjiEoOP4xAd9LlVVD99BxlMmo93q1jroWV9/sm2UWT/O48Gx3GAOPgkleAziunlpmmDBR245xJNTgXEIywmS6Gfihn7H6qdlR0ckNCBPC6RRUvEL181N5Av06MEqfE37TQxB/CAfuyOcXebLaI2UXlGISw1rBrqLVP6It9r6dyt6XGYC7zJ3NeB06ooBvPypPM8SGZT2c7QtK2cyGHk5ROlC2fTc/G4ZvRRByXecmKb6uv8VGaqTwvbcvOJhG+rJ7OTSVYiBcKORDBmDTmVnzDpI5BjpIajVjoi0COE5nLJ7QINlav/TVZj2lfmHtM47mGoGEZypZ3EW/905bhKyI2PaFl6w3G7QIbap0XzdaV0YoW1D+Rm85onP8Aklh6VLJw45airxwPdoE5fCOe34TUdn+YWmlm2gMW6NWiDGmtBVqH6YTvFsKBhhOx+KdjcCrWZV+JAXPWAIKkZoZai9LcpdaC3D1P7BbvynfOOKgeZA+7JBQBu4Gj0JoceRT6pYpvABJYujO91o5WwJ9vgfB6OKVTXMtDNNOUY/MoIx8yXuDQ4ZdNIWtaPmInGEN4In6dNoISSwCGgztXlEHslR82457lzWQI8KGVZZBjy0rleFFx65K6ktHAAcJ6pdKQ0fR/xCOp9hwAM+D467AfUPwheL3JG6Xu4e2+2b2U0jII7sljpRCEulNlLIBBI2IJ6C6oIcRpcqRkoXsZfxYzZBdgWKM33z7xxHC93LmOM6Zcwis3WPaBJo/5/B1icsZFcedbRfqNE1qCRNE4/VoFxbxgZt2YK38+j8C04uEq64zvVn+TDxRT/zUJe59wIpMY20oVYDE1Px7h1M7dE/pq9MGm57SSghKO3R3dnFonY084RIENdOeFxsTNCECiOvBsAgde8KfaKjsXdqUgz/9C1Cx45PnqVB9b8TVGNRtSUJJjRFpfjh0B14VwDA1iawJLrVZPHR2boDVGsqSNXap57UBkWG9Q9X0p7EssJOkwDjQcLPzd+TFrUMhoaK0CxDUeBFpXTzNwK8PO9R9EnhAD87lpJtZ7k1VewhP+6U10yd+T9bxn71wILVJHGNHAkCp/nIyuEQX6cpTN3jG6X6EyEk0eF/U/nmo67rYqwmMgrGYNli8EfRsUUqaD1P6PBQdyunhKwh2yoOWiMc8Vuh0hGGBk7SdApYRNKRnk+82g0f48hy5ERr8iC6lztjzFC3h4WBeExReyONuP1HTaX7DQunUXi2aOMgZcp5PpEXx7pN+g/oG5GMunp9PwmlUdJDnOfJoD05gNoTy+DSAZHmCoEPQ0yQSRrKpwWHbgQSfIQ90Y7N0cmFMtdahWJrvmjng65/YVKggIMnN1ZbjQ78F4wrXF25LeIrvqjCc9InxACpN3uSpCWL0S5LewPhei7b3NbmG/bDhQt2CQ5demTni09EkpV5NRX00DhhXJSRQzoa/dI19c6C6Fv8LD0p8VjAYFwsetchlJeqwBbTx433kovoX9xJxCx6PCtttwHo514ENHfh7EwYYRqeUO1yWty9SyQYL5em3p8PeB6/hAVVPH7VHbUPuyULGdZAAa+YYvXzjUfLn10q9YCNUqAVjjhZxmkm9k0JeygW3k9Vbt5XewENGxc4MrM4yz1GZyUsF4KqMYPRsFGUGg4j0dixc30k8IW6B7iDM2r+jPn4noC4IHggtkiyC6KAaBr7Rk3VAbFTkSlc7HCvjYzZxBNGSZSTnUwK21wDErmBVAHqv7QysGYdAPX13cheknzeOhxp0gMQj2//4XKDbUVizNqoGbPLmUMEBnRCJ3dkfOKciN+3yZEc5/JmeYDe2u2Vf3Chl/7y+Gsa7WB8BwxDVZtXDVlmMIiRwlhZ7owBeqOLmtHak297naqAPLg4x/7BZbp8kXzA1oH0MBqjKoM+qndNrX1pEZYGrV2wqSNf52AfiQxuNyZYse/USFS6YxaGzGubpcGfDFCbNwjBfbXZT/vIKJnAgk7m4j1FYRDikcAnoybKiBRSHx27qcIpuyq+z4WELVgqQ+jrMApvZSEFxQlpnwZlHOXtoSJhMJj1qbR9w/LYaJRfLmKanzTTCTRcXrfyQWawek2T0u73nl3PqRpgTeHi+oNwNA1WqTT8Hn05Y+pJF0SlzOztZMh9nQC7rGAnX7LurYL83Ew5LkkK9Go/6Mp/4Se+pZXFP3a8GLA1Y5gvoC4GuUi04JtDflBO/Y2pPWWz4QrrdjXtLHsgmrTTVqCF9sr1KMF0tQWe3XOJJrhqN7R7f0pWJ3RoTfratL1WwDxja1ekCc0UxC7F1XS1zr5SdiKojYqczcg7+KCNwN04k3Yphtdbl7PZNjFnlD019tDw0VU+ljOZpbFTF3XlIAWyONw5pINfcTG3jsDiMApc5ZYeUlbk8/CohZIXnu3i0JgV3DY9xBBgPTNoejh98r/XvTXj6+FvgH6FlzQFtFNe+obiN1QftvrpJrSsbHNJ4Z8aq2ZdL1qC3Tljd4Ook6NsPq8SUUNPzwYKF/3zTZLM43CptYs87KVL0SMd3vP2UHwZEdQjacWAz1rnMQN8UDH2ZZNwolNpWFXqyDb6a4aE3a9OiXZfliG6RiJVnDk9ItqqoDfqxYE0TZ1rnxfuDY6q4o/dvRZgmNN9hTSSbCH7nCH/ULScOufeQ9gOUmSKUOhUlfMzYmsmx1HPGlWLLY7q/troJQyaoDHFIQ1v+A5AuEMStnB2x76yVpykm77tvWvY6QZTAL4pcvGZzTkbGTO58hGHdUpQj49J8q6IxZbJQOg/C68uTcdZkA5E5VFgF4iiaRLFT7/dZ1NiMTk5xZwZkZBvnZU1HZjTVafDmKZquwP6cJZ9p2sUt5N/OuKFEk8giO+bFBCnv0a9WoHaynhyoDCCLtfn1SOvxUjoHRrKI3UeMaF7BVPnRoyuF1wIOqYZnulvO3igRe8wCd3i/eR5uoY+MY7qGZKlI6yuHpSOyEYqqT3dIiDSh+cpjpdDqskr+wAfXkIt3rxRmLTYgvgUd+d6TDB0EqRyqKtMhUtnmgF6MLTIPGKzK6OlsUIxaAcziW4H0nk7n7U/c+KHCaUEfYLKBUfx1hd4kSe57sc2zQwIldROXgUvAM1P96kVDr73hJZvai/JKfl47XpbSuvMYQwSG1MAHw6JnCgAEDCZODBNVxHeJmyAAQN1AE2ucDSf/Nc0VYU7EFxMVjVAfjMFz3dQpHPdFa4nBj2NeSd6yJ3041aSusq844jdMGCSv8uAv+uk1D6hIUf2MznnSbOkV6en6rxJv+DQiFZPYE2NTLhrIUbRzEtWoGv3gAX/3EI1DJbQ1flBH22Kk+TgUGEK/SXc7SfFFkT2r9CwSI795adW1hdPrsagSqzB0lGMQ70RVN6aonmDGzwlyHi34i7bpJvfNU3jYiPM8Od/KuESVrkEiTXblyC3NatbH+5TNwJpduDCgBuYSE6duQJrhOPEQNWcy5wfhCXF0iX0X7Bf0Q5Zaz/eN6jDZABK6PRIeTHFLyzCPP+Sb8Iz/53iODddwdMOXHJGgI7R3bq4C6PgIdwHjNgNwLz6RbzO6FI7Rv4XlFeeM2q359vkr9O1OcxpGBf68hBgQOD1wG9ee7yz4qqwBn0Y4vj4S7E1Kygy2WDEagjIlbQoJNHxsWhPzRP4GuFFhgo36H1OgfufUs0k0QBGlC8kNPbIgCYPZAwACZnrAC0EZnC9gHYZQUxa32QpTm2JVbwUGxQtXOrPsfYSpJ0CpkWJKCeb9ZhFCPXRDBvCmZrNdQO9VyPk05zQxcr+3lHWCkjAdRBCJEB21nhazBu9ZiBQDgg0Gy/WJXRFPImiUd86flaePMJCYhTIiZrdfbYmoM0OPmTOSlzGUcaVX+HFzSAT8VZOiNyoEGqwwOZdONPUnRyEoU1VIgIGkbhkTUsfSK/mkvx64SsK7BybRpucsymHkaXFXwjElA8uTKwf6KU0gC9ysUlpHVQRUZBb3Qpp8eVQHpNc0WJpt8HVuIvIWAC7DSm9MTR7cTM3qewgXL2QNNZlkpFZaGdGYmiQjJ1ZLKPAyRRpD3WxiGT325DJz+QNTFQiDsNPAiMh9L40Xcv8i5Nyy2YMwO3zqSXYjaEhEiJVGhPa/V+VX3PAE00bmhg+2lmMunsgfsHaN15sp2Jw2uZmv4pVNtLXxhmyMHLnw9hO1rMA/nMgnnDMWVHX3KNF5V0KepHPXoJmQQ1FEHehOSA9XgeK4387ptyzeIuhInnWoHp9E25UURgOwRx1CJ6QJwKXtTdY6NvGW2M1WaVo4rGMdFCp0LLL0mdVmIWU58yZf+GgPVRtrWJ5T7uBaXLt4bccjMtmFiEb9PdlxgTxqC9AP8h5sKT16JGy9t/1Vfm3fpoLknJTXfvew7cYWyQSkpQwEuGEZRl0SGsbl9jsILbt0BBDbHTGR1aHxbruofGxpJ4FZcZ2WRIue4WOrOlmlaPHhS20OIHM7P6tF2Cg0pSnYL7UAEFjAzgvuCja9jFCuRKES4VyYAxa4yxOClDC8Gf8iSBO2JSDPUQT9GeE8xTtb/KPpW/WRe2W0ZbIBZE+hIV4WIGUExgKP2AjNao4iGZlnyU0ijjpsm3ujKUSSqAt9ZH9rfQOqrhFRc84u6GCCPTcuQIRVxcg/uTRUa1gjqddIrU4kJMHUhzcKKtnAKKfM2v5U1idG91FJVOBiJyikjfiObHpo/TGu8FjQDB8eQjAfQpU3QV8AD7nUqNsRa9jGa36DXPDFqI2P0J8vnEvYosv4H25L52gYXOXH+HBNdksEL0WfeuLl21wQ7RHwl61KozNdRK99yt6Gs5Ba4AZRk9Ay/+aGglBwW78k5Xu2M9uaNQ4OMWy+uehsg2t88JHO9WPNvy5zNSSSSvDE0+GVU3VbdDgq2RYfWt+U6+bWxajONuIiymbom2RCAetGJaPSo94bJj4ill45g1AKatFKHvmoxFYrEGV5PIf36QTH41FPEwWkK0FFYkfz+OFbymSZpUNI3W6zDqUnChzuJsaXmv5dCx1yECQl43STDPOP//TaFepLHuo/qZjOYuGHUnRv+1KeFl7jhyAJycENadCX3QtWTuTLBB5tud/eFd3gy94xMWbu5mdhu2EAKlmPXnPeQSwicBRhmYa5TTanWJEL5J7W8xWMd9hQD4INv/cOgEK1QI3ZOiiTUjfrNAFHiJOntseGwUU6fNjSJIxivuRr3jj9/ednYr4ERg5Gmf68M6ArBKslWa8/xm9b+TyX5ibjYrSOPfR3X0mbEeBAl4LmDw+YYbDmgVEmGFIyAzDaft9k811Xy2v/j0slXAGeflc6TXe69LHQqs25mIvoZFijqZC/qN9Wfe2RZAyQMTB+vXwuU4i71CiAvR9xMZloN9eDtTU1tKx+H8N0di/s+xazOKYCiTm4OaekVsDg85mVvsXj/439DGEFPxHOfvn/8PkUN7Iqp38Gcx8qd8Hpyjw1kJIfPY9ZcCY03ckQ+4fOjyRYVN9SaQ6NUZNJTpQz8Mi1RYREcNFYmCwS/g1M9TQ+xmgcNjF7JFTs4bzoeR0zfZT+599HePUvZ1mHam2SfH6MpHyAuLTxdidTdsOjXWpotcy/pTmiMECGz39aMr4ntj4aGF7wVQ5+joDVEpjCHBUoq6ha47E/vIstajG/8K7k/9V/KEMxU0xYg5JHdf+op6TvKAkXRO3IodzaxT8PlGhg5A/2at/YB7IEHZQpvZVAVRp8ZIrqr4T1Hrk2fw5BkweP62RoKXM2y6mJCL8jGemgXRZ5bWiZLbuhYuRFaGqxvtvAJh7Nt1kbAfbV3PCXGtNDN3tCzb/cEirtWHsAiL5t7v2fp2VDc3M0MTYIFi0zOHALBYo1wlzLibfuVNYXvaTpJ6Nn0CU/r3Q+esI2n32/9iMfH94wGlgp3mQkUqbFbp6O4098pw2gagKHbVVbcDjVWjEXjLjpBByrpcoV+R8HHlVhTupE7SlDBsHZODJw2OQosvI/UbnyocyfutMp//jSUIIJ7zSi3R/jjCin/TI0pmbuYLqbXXW+xsS5TQxv7bNN97QT1o59XaMxbfKNNp/4TTLrc8HJVmnyNs2WrSVkEZl8uhz+womWKkzykPHqmfrd++nTpsAjGO9FFWAiytxZheZcHUGE/AV7PT7ZgQive1BJ1DST8NLT+qCKPDsP1i8e7v9x6i9d/YtuKBMTMDULuEEMypT3KfHNCuQEcOOumjfmfJyk916crIjWEOLV6igY0IEtrDYCWJX7znlkohtQZa/BKwMzjoU0wvpirUzx55cHJ790Yx8/4Mit8iCJUlwT1pKpWG5r5syc0cep9R5vl6N10AyBhnbcSbF4koMQ7HElMgkH4sBn9/gKuM+DZ4QdXWJXTidqAcoKEK0zL76bRzkEpf/3zE/mF5u+uGVBC/a5TNIUsrS4u61U1BaVOynnHDBy9kVUOJNmxx6dVwBDkAFDg/IeHzvbqjp8XD5JVfAGmcgg8R7a5eZ8QOhJRnUiSlIiTqRhBlTRx2wUuSMZf2Au4jYo7pJpBWrnwvdx0yNB89jxQsOQQxQip2nfxADDSMXrp449ss5JzJt7+OHhuQKyMIKAdWBabM3USdf+3rpawGYAnOEgBmoAIg0ZgDv5YWAUQqp9EDpQBuLjx2Y2m8OSU0ovnqLrwt0sZTSquXzJYFJADADVABGPM4ocHkmE8dsxhAaCpt5iKBEtRi1EhwWVjT3FtHhwm8fMmrQvB7hRe3rC+2gpcw0IR5tFZOtBI5ZGrKG8PEWTckz3m66rbh9qNLFgx2fxVjfnDA6MizS3nuSxj7iala9TLCCZCN/UVA5TRs22pi4N4CG12a4Rfvh/fAWwlDSxSdMbmmPVTg9QC1xmbQZBByBgICwe9qdlITt67UwHOeV4iBqBn++m9KeR3NN+UgDKVxTjh5ZFF8PNocEBYIaaw9OGUCZQcRB68kgIirifTff/d4FMB/oRLFE/cBpbKs8VNo4B+Ka18DLfkIusfAWGuN2sitMBxTtJA56IIp0a2wnVOxqqGb7lHSRqHwJpmRn4a8uhpGozqrCTH06YipJiYVjJDfILkX7ECa6iXsbMgd5SSbCcmQrFkX3ft8+xeEht+/osXCqMd7dlje3wKXsblaMnM5kMvi6sRo7F+ATlty8dMEaU21fD2ToLD9ilFbaaYwHOpdXMjUOdLou3X4ZNIJWbiXDawl2j1p4Hkdfc9eH/g+XTXDiLuOgMj+V9j1NWG1QtcTHKb4Xnw/7T8XG6p+1e/5i++Xw5sxYmQUvqnjOU0ZJFWGPEwkEHmiqqBrGPRardfiwCG9WRaOrCKtS98YvAZu1s07prXrYEw+c4JytrsSbhWRquBTW7jJ+cZbLx8Hz4j0dGCR+PvMP01e3Le2YH7gQAFDhjo0IBLHjQlevdA2Ru8qBlhgZlSjHGJQXH0ZtPA92AVtnN48K4Eh7EZW8wI3exrWRQyWcG4NEq+YgOS397RAy5lr42pS7qvKuVLjR8+1D9RoI+t7hn23jS+XkRypRg/wr+AJUqKmu7odJTRDgnkyUy3cc2DGxAHf+pH0tZsycZ6cywG6XxgGu3n/zy/dvI3eyNb4FvQWyVzeg2twp6u+UCHHT2ddF0FuEjMW3npBbmqG9vskssEE4XxNnYC27x5VVN72QsKGO9tWXMSyNiR/hhju9GlQRmGjAXBIQfQVMpwM7b/VQtwjxSzzCzfEVOrSTRn0EeiinZYZyUGusSyYlo4DxD30JlG72/ieJZugpw+JYCRfs+zYDzXf844XIj6rskAQdGKYeiTI5cMRuN6XcsDtIk1aCWf+2APsN/qiewfiL0B6bqYfh0w+QI8ZPYvefgKJe53TkCVS0eLMx8MMAAV5wEc2ingbiqf6PT2jDIeorALjLPw53JKFVsVGeTroXxRHeVN2Ic0kLlrg8rZgLcnWbnHEdKlckr4fVZRxw26k43V2cRY0A3jQYbUYenLSOLA2hRJZiOsG7RKOGZ/u6xMxUMVe6fXa5NzJW4Ur7DJ/n7slsGC43uwvLcCYVCyFZF+HSt1RJqwvEeMkbHdIYTCdW91m6uR4n4CGEYkCfiQe4DWo2x9QRI48Q/kNzlFACuCIZZ+8R1q0IsFllm1Ei5AEpyph6YTUB3q5k7hWl2unTYHhfWXradJFiOpHtIB+S6qjGm6Y6yVN9eLnTgqLI7xsELeNYpflCOEZIqiB5W+DTRRs9+eApRpk/C5xeDKyu2XqwVYhpc3MhMpm2Pcy7QTUNjsRupaWfuLCw65YKibKYHctRWR5OVDk/S6xtP4paIHFNTYVhbUiyoTMtI4sO0PvdHFdaeWp8egBEduOxJmoTiadR/8d3X46BeIO8qt0x/kpBHcz956jRaohdR3y8ZV2e5ywuEd1WIh7z2K/dagAKnPfCTgIn+n2/e3asjqa35yWnCX6WSKLepPfYMCwNsEq3jxz0n9zE9ZOI5M7Bfl/IahdBbIgZ7DW032rVQAqX8L1gk0qHO7rQbdzQwnPWy5gYzTPFATvlp82msvnExq0eupM2i43JjiBARc0mahsQj0FuRIWJabNZ2HTcJIaBfOTXVpk6pdR1wlVwxj2rJ8FLqFmKc5k/vJbkcavIDzMvnEArmUQ3KvLaqCqppFsqikE7Qs1YI9/OWzg6ZzWOxwDejSQURtVMvVgwuMnFcwJ/yPGrLHzaGTyVyj4XVyKUmiUVpALDaccY5YISEVvcoI7xt2BUnydMf3MZYttgoGAH0j31jL8KOaCzjyGXQRnd3piD2hRbdx+YFDRI5YvVkbUzofPuqI2wEXsDFgtwO1sPIJ/0TcoMKSRby6rjlSNjr2aWO8sNmJlxzJYO/ea3RIlXkL/YRrMyAcspvxs/O8udBQCML8hwyHdAAY11fewqqy4fminBdYNUxkmEoKrwsrjhvSwHgXXVk4KcsLsD2jgR0gDRKQmBo6IrNU042ZVO8meblaqfkC5ScNtEGe2wxkhqoL3cgGyFxlcMNk0T1cxCIsO6r5wHPKi0un27tcaWXqHrJfodt3Z9xj0Eh8mPY/Zd0+q8GbmLLYi3o0mdz0WM73j1HFaGsnl8Yog4PemNn1nWZL12NenCy3/O1eeYHby+DB10EVhq/feuXzhIyLPTmON3PWHU5ZO3nnUUjk3cTd80BsNmUip5GWPgMUjwG+2fProO+qgGOPQkr0xokFVvGWPlmQLrByWTBgJqfsY2seACkC1PsSoI1O/rVT/8oWjpJs7SfHuK3xuIudZIalJi1YxmZtTMh8LqJZxV3mzES9UwAKqg7znA1+CvWPXaRA6DM0BgVkLj51azosh3kxxPzml7boq/VPP2dskVPhQt6psTnyvw6psPo6v4ngKXAcIZhhozHMlg1jbD7xI2NWUaKGGqZ2MrZ93CwYpGtl9hbjKB5oq0oDbP7ikX32oytYv70bL/dPOKZDGFOeCCoRYkahasCfkd4nLdQ57+A5CtsuQu/wNO3xzOA9YRw0nuu9j+MqhPVtGP45dvgdqskQwr1aFRaZlZtV2w8XFruAv7CQkPN47k9gW/G84HnsOZ+W1da/K1GHNjMJU/RNQ7jEgrLq1UOjp+C0+LDf8Ai8SxZphz2hr0C2oo0p7Pe34hoLOlC39OW5iPapspMiO+Yfn3I/vdlRSeHCKptkCX50D5mbl35TVA7I4rbHlGQ4c57nuDil5UAC92YmpFrInspLUe30h/Wjjkjx7kWe0cMLIVN+k6ORiEWxUr4de4GQat3j9DIFeCiOjSyXL9WaTFWR8fWxF92T11pbr6KGTJM46h5nQxRW5dNrDpDuMlfRqX6QfIOYTCinweRtzk3oApDQ0q73JfXnzmSla2Nayi89y++DpIJdipkZ9KeMt9hKLgm2n831cKgiNfdyonXV3Ht8Eb3tExibmLfLakrlo55WkSnA7s6JGhAOHtRbDrdjcgQDkOq2k7kWgipy9+WEg7nUxx4LWNSM0HyU79bpzKmNKX0HntCDDuNvYa0G7zbL5YEj/4oZrLWjhPqQFV+KTqX02paNz/MV9WbzAfVC7gi10JQ6pXYil9hfpVoJgMcERpFFh09cdVpIV52RvAzJxdJSXD6B/ivkA0ieDqKaq6rf4kNSrLtsW/IKuF2QtijiwML8iqcRO025j9pCJO5gIcG7as4FQkGtJZx4KFLdT4sflXLvcS+rxVi258kRSfgQlbcvkgeoFELT3Dpj2OfKDixDZmTWNFkP+x9Mz92aJ+LvRtKWC/e0nwXZRzvPc+tETrdB5a43sT3NKhMHUHtz1MXiCddTqo7QBzF+n0Ago9rQlR0VludLfkuoguInAHw7nczkgQGlDoezd1LpZLUP0jVwnNrmHGwMT3yjVGlouNvXOp3cIkFAD6UhCHJlrlsN41iyTR/tB8Bgd4cSlTUZgnxU5tON0Z8CnBImcU2mc/uVr555kT9cGLef8g95u8cJY2HvIIok5+YIRc01E4xKj+US0LdaHoSHio1rqdAUjGqgJ7iJR8KC2CO3lhTVqru6ZVXLh8/F+adCOFoPNXAYUzw1qcWmZtLXNkYgV0fW1lfbT5lOK1hXKmdcE4D+JDQcdvz6lFGAKx8iHNZW26txybwT57Ke4eKP0VUfEIpWmFFWvuP4xdvsbyTmYu/lTY+NKxpr0rrW4oXFCIwYdTLKhFCEfTlw5noiayoSjJfncFdJ/t70kB9y3FtSDg9A1UDgPDAmMbhsm9nCPgSQMK++VE0NaynDxt20GjhnXjbGMIBP1eopk/7G39b124uimTqXuUTDRYu6DUHPPmECMBlPJ2pAEXaYzaUzzVpRe6AihTNdQSsxhuK3iCMgQbrZYyHbqe3FJ9gXOcr5aDwTMSKQ3M6hK1FzNqsKVkL7dEjQdJIlbhebAcWJdhR34gDweXRgfRlIrY/YR2bxht+tTUsBWX7vdSL+I3GM+DEthRVzJowd0s8SXpJH01zbdoH2VlcL46otxuMD1/dajLzCNqiPAZD5QL3DU9YSKim5GPEy0wdP/+/1FQCfmVJcRYW3NQM10F9sZhOKRhnzJ9wAilYLkQeAO8UgRzpPdx8ReDrka40UYW+xhZdHkp/HUSNB5M+IbNT1lsDhLcwjW++1Ap8kVQOmocVPTCTUNz7S4MPN3OP2YOrewgffZo+E3SU70CWX3/Rpbfl2+eUK1y1t6pC1SYRTLWiERvckXTQxR8xnBeMQG/54GCVmhn76JzMUqmPMM8wm0w6tdpXz+eLOXcslQ6uFyNPwFVqrNKqADxT1NKTiaVTuzEaxmTIsjH+8S1fMF4uv0mIwTF+w7vd2AJiCXzvKAfgtAzQbSBIuuC4jpj1JkvpXRFtL3+TuRaJfTCC8JV3admChBS18WnWrlhORcO5I7ztI3muhVStyu3m03RzXFASERzHUB36bG07bIpmzunKmboRXp+bc2Ds4r8XLxyK3bgb0M0+UU4sFT6iPXivRFUmMNfUk/mg4xzMGhcMOlpDA/fViuCJUmyRntZRu/8k4wpWMF9OxRpPWDyS82+dgCq8ZmIiApfOy4AwAuYzo6VABG3vt4rEfxpsrBBRyJIbQ0DL1iAIbJ72RpYKF4DDbBDGNowyN3UCorPbNgmkFpL3sjZJunNzTXK22vIpF/UUg7BdtDfr2Qaxh0bDoxxNbC2zR+8jgfzLpBNUWI058xbPCo5CnJOc9OQIEbEXsffFV4NcR6xQZNNMy4fszaWRzYSrnxBK/qk42Bk2HvB8A7Jb7cOvgWogfkb7c/RrTkEHXaStrDtC2nFymS+oecHgdwpBR6zc+A8v7+yr2UxGLgL5zrKcgA1lK1jElJvOJArQG6nGFZGn4QAbwavA8I1e5YhNttKYYMFIycglwsPcpgmeQRUJxwu9wGROpi5gxc7g7KMF3dMtvSMF9/J33Eva+hTwFVjFerVRlP5cQ8W9X43/suUt9urAyRulKSiDntmjL5VjPMOcZInIAvLJzkPKS+rR9iCW0uggYgycOI1Q6TSWkdKedZLaz8b6EKfU4zXyTYPOunTNA2yT+YCSxGP4cyilO7mcnQIt+94dIWunth0SlhT8sveVzFUgLs1xxHW1wP09JhnEZ1riNu38TmMBR2ZVYl+ULnAo0i/tRcGiDZb7034QMgXXa3Kro2sEoeoEzZP55Yw76mz+MkcxFGVTb8AbQx3Xb2it+w0zi6qFbiyGcpBvdUEMB3C0I/3qb1ouYg9faQ1LiKxzBQfXN1KUXE7b13IFJXROJ8yHyrcvuu5H9EM/kBNNx4QQ+U0pctiYu+F4rUmVQLp4TNjJ7mBXHqfVHwuN0w3yxqrVPglyI0PHdrSMDwgVJA9D+7qBlwegFlor6jK6Ty6BkzC6tHJ5anmgV58z6NQleyr5xuSXoDrDt34oN/cBuFYQKy1UuhJjZ9qscGRW85G7chvSbJWbf97L/7uGliC0xnKVCACFvs31IDzna9r1KBy7MYLq9mQLywrUAWEqIuGU+UHSUmEVb/bAP+rCLnH6/kHIFaSKPwtBL4vEOUcA2JsO+ORCLY5Rub1Pr/l52CJOiNTl8UvadMf584Qr2NoM+1lGCCS7eiZPT+Pgb9sJhvurCIRMwCltk8bCCdCOQCGrpJTWCAavvIAMs6BXe+7gJnsNaqCjd5HUGP+cVxsR8jqKRMJtH5KZS7VFng0KR1zgJ0KK4y7dwwlUcKTyG49sfIzttSRPmYGIxu4G+eaKHisC7tIzF6RNo9tHKVAaDEovnCwM9YDNgIGS26QF+ubSyOxU9vwz+11uN7re/x2VIKEIV83ZGkIlniODN0YeSV+bMzqSMXFfpijqw9T5X2R5LAgHYIPkBeMPOZX53N6VlqZ1qG0XuD23RVSJUpOQniu9eGuuxB8Ee+qGQuCq+0D+zH/CjNo1UkOIDCf7LzoPGpez44zjX1wvM5sGs7K9BgiqryGVl3RZDaSsIAoP3btGkCNmhfbyeFVX/3H6EQJjDbarugq+qKF5kCBk4CHl7e2CYsUg1BNDX7VrTZMtMJ3dUlFU1EY7v/nwJn4CMmYamG84pQkRH9QGQ2icO7zq0WVYR9eLLrB4SWo28tZWeAPnRPajBnXHR9lD03cAgncngjF2g9VtX+2L5e/c87bOQPK2cwU1qCuKD0grnNuUPcbofGq7+g+lr7gBEoKjUdJ7/VwyRdhYPQsQHCxGnRc96zu0ZVHjGGQyEpBl3ZWU7MplIqDKqPjJDQUFDYiKBTbj3P7ijtZRmM7/Uv+FHMct7Zy73CxuiZgpjN53l3wd2u7GNI4YmpGVlaz/wv+t4blfkHuWtSPgC/nziNHhYXKsRmKIA5iTyXoP6A+Hl/EdwBzrZnzoyWg5bNv5ZIu6w20HMEmPqI1KHvMoz9YBD8kEgYNNr34IrQjQ6PelWb4SGghIpG2VPoahYVfR9dVyI1W0h7IGrg4JpGITJoK6ix4m4pKxWjIiU934hS8ldSt9F4ZTVD66NU2XnYLMBbfRx0TQNMLFRTAOb68Rcbai81PXtugE7zYJ7dtYxzBcx7VqNJXnnWf3GiWTXVa5XQ/H+JpL7jBtg2+zkoWaXfl4UZIolbEhv3vFnLutaCOLP6QO5L4zAO97uUTt+FMHqRWLfy4hb2Rp7hNTRwZMKk/S6Y9gQ3YLg9oXFfa2aykRAbg83nusfYA38tOLxdPG3xLXAH7z8L7cktKRjlVLWop4KGiSEyN7qaLkBae/K3cqhyDygSr9+Wju2dA7PacLsAcehXfuJjpPPDZ1QeHqKIbflOFN2Ovmox73wuIVbf2X2P/kvmv1KC9QGRBhIqeL/BgqICINqg6pnpaSrJfZBJbfcM+X7MHV54aUqHnuroqi6iaPSWKuaqqod1UodL0Z1AriFRWRIbLJMq57PUodtsUTeLU5KA6bXgS3ZXKKomXAWdWTmHGc7hjE/CHraIwcmshPfAO6ZLUvq+Kx2LjYbOBZrNI5HWR1nDKpd+Fq02R7ibDSTt5CmHqR4sQZX3+93Vjl7vGsQPiiGKuTNGBUgDvQTcK1gPW8WKoBU0r45+bqqslGOyCwDisTvpARaNy3N4rE3cov7dka0sqVDSZmQpxcnE11hnxjq9t2Oq22HDAzkCjgAASgWiMXuTtjYpSFMnVJ5mgL5XC7QDRTN6ClZs4lq+CedeUCbU6HfY6GvfyvCiwJCNQqVDUaByP6hCvn9m8xlpOWE8Kzrb/vTboZTG2xgzRmh/qsQZ9v85+EeJqLsC45dHqBOjXNnQbaj10ivLIdfDDyRqCpSUEy//YmpxDfWE4RJzXvQyqUE7e99gWhWnG0Mc/59EebJpUT6nGFw00oT709QEUcS1S1prKBkzs/yHA4ykkTCPemkz1YfQ99YljwXtjO6f/un4DrgtAlqtX4Ua4IoqXQvhCacJkmCUduLtIcbFWfWzvCkU6KlXqeS/phfeP+g1BnzduEf4yTTDpzV6oJfJMU+zoDfwY5jxEeFnL4Q1Wv01MA7JxyCyOuvQAO/POwuy5cuNzn57nkcWQS8cPuDQmCSRSXvLqWqwKFTqlK65y1RlH88DGN7t+kSSb9TzGVdIu+5KQ4j8UqjTFIYjw2dA/wmEQ4XckfdUOxOnfeaQ2Zg0Ee3Q8aJ7mt38vOibJuHq21WQOQkTuYqlHklzkUMUr08PgqZ5+9CNWUiTXtcocF/JgD8OCp5/wJHANfBrKOSJUdQAD2JnZGaozVWbwa1RckFIPPvwfTMdY3KvY1bss2Lq3rXSI5p+WaecLsa3xgtIPpfX06z6qzhF7Ho8zjjjOU7wHfGIVRcJ6W4BIxc6Shax3ekp2AiYzZeJ+kEdI/6liJsVWYn6wGtYwVPRvg4uRrf+0gG8RxrU2Cu98ACTZiuVrvFDbtd5fDsKiI9mvxx0iItJJSMwNIrZsN8iu9BELJBpvTAIkhwO9eTdwp1GhwWitWlei9th837OrudWqGP/KIC1WsEX6yXFkIIhADjDyvp0CnlIyDk42lVZZdO2kIqztkpFwg7SnRVTYS2A0ByTMpZhNAQCoQFeItf+ts08CE4t9zwnAmowBelh7y7v/w6Qt4TW/5wPPkrJdTifDGzD9/SQPRjLJlBDByVYBfagDnISgx36z892fw8oVqJWaA4UNwh3LjkJQ4ReOHIF4lIR93Gmqtttgonu67LqdGM5+WCFbPOgNt4vp2kUxjMgz9MKFe4lsVZS407Z0PWxZIWU4ggUDWA1Kpaxg7g42tm6u6gp799Fku+HN3+b7srUVtf1vR95GLeFHVtVFppMJ9ITv4Yw5izJENDnvGT6xB9hNf2ActvcbQ7Chrg6xQooYECEnL7Des52XxkryWTPjzcWwl3oPk034Zg7+FnVAjqKjZPxZO3TZzHj+2d/AEIRSGrnM/VbJsj5nAu+UbBb16DJcCuRSndW1veZqItrt3ClB2JhERdIFfCtDNegN1yaCP39VbrW0rjI6X7WAEWrlHdpirSl1II0v6BxVWSxTY3v9l3tsEuKXyU3vegfUXlXYlBtKlbv/Sa4iejE18cHEAbLqLjC100aDca7+M/Ahm5gHRSQ2WaY6HKAG8Hu6zHbf5gm0yNejIcNwyp2R9sbK02cSkrNrfa2l2eMup49QB31DLucdeeSE9xko2h8VtjTVm1Kb70gcazxMIoD6LlHaaqmBegmkDEk8kMxX7+RHLDT4m+o5L4HlgoTJ4hN2JHCrCuhaad9JK+jjPRjJFgVCCEqRRI07S77o58kyqJOxnAbT6XfDFQRgXPi60aPikoZ5CklY4Beel+9HKvbOgCT/TRsJCduTLt69eq2AZm6TOwmHgdOFOmsM28NwyGrsTL65ChpiwUmuaG+MjbH3QnCD2MH4qyqKWi31fLbdqppbvO1Nd2rFGnEu+cZcotgGxuJGO6+ULITUX33NqT1+XfiEoe8uWvJ7dvTFTzCvqoiK7MOzJ5tlPNTr3qt9mERB3hdQSOGQTbSMFkgIiVOXYeSKL9LITxyT0QcU1GVlUig/44ENi03nm/6gjCQAUW8gr6x6wp2iU+qXitasrZHC9lBjaPt8P7r6payJP7ZOP5ohFp2q9ACIubC1M2871yHUmm05iDY6z+x+SqVBrxqJVDp0M+k8ogWwI+y/Czzbzqo2oDKYhh2U3Q/OjM0Vo8mkAMcSr0k489xKv513QLyrofmP+cVO9MI+9sTDkxWMuuA3t156UFo6WFykBcS7keLKDaP/rVUIEVftAcbS/NBYu2iFRMFcGa2X7XYpILcy2xZOFEG5JocLxIqP+H78q4XN0UsmgAHpIKRLjF6v1iFJAST09jFQ/cfVIkwu2zD37Ydbf/3VCC/GJegAdfNnN8W8mR182j0NNg4Zn/G2FIcuuWNKf6C6XFwluSJfuH5O7um7CP9feYMihxfBr5SL0YbJAAkEuOjDs4Ew96TNzEvGxvtOLTMvGhdDmsmVrssCSnyZPgxYJsQAxc0NM4ZWSeHnyWcdqyB1rl2EPReftMKQSUwdFKfSXeDcj66z+f44PyOgoAFKv+aEA93uqsBMb/59t9qRg3yMi89OHkl14RDt2JOaGWXRLcBUCMrkzSkQr3aRev8pKrHu/gU1Fzr0gCpueDx+wk0S+8+IXh6G5PmcY+plZLZz0OV76PKU+RyE7FeKeaW4rptCC1Ta5F1h24HuwJ2S1Qw6cy4QyahVYnjN/1iqhTTcFl1wCR0t1Pr+7SZvrdt/SMKfxTz2tU0EC2BxSqMdWRmXfK0qFpZyLaDiwBCchyLcs/q8owGJnTIpq82rSTwuoqyLAqC48s5bvS18hF7gjxcKiiWS4bpIEPMGB16aeM6SKfk0Lafo30rPLurH3RLV/QG/3HaPLHHNpaqyqmSg4QZ7zT7Ja5oNRHGRdvIXbLBd7OYLwQNwlSKTri9xZ8OpSBMf4RSDVoaBiq12BF1e2yTs3lxa0LMRqEHE4BODvE+QASJBfugPEyadNproJ3u0EKJuPOgz8gCdHnjgDuOgbjaOcn4VzGKnhu006BKCxSBrhe5/B5sz9wo8qubJNe+tPFZ2GyYOIFPla3JSLYgzaR9VSU2wqQgghIJubQAAA=;" vertex="1" parent="1">
          <mxGeometry x="130" y="130" width="638" height="472" as="geometry" />
        </mxCell>
      </root>
    </mxGraphModel>
  </diagram>
</mxfile>
